<?xml version="1.0" encoding="UTF-8"?>
<svg width="1104px" height="291px" viewBox="0 0 1104 291" version="1.1" xmlns="http://www.w3.org/2000/svg" xmlns:xlink="http://www.w3.org/1999/xlink">
    <!-- Generator: Sketch 52.6 (67491) - http://www.bohemiancoding.com/sketch -->
    <title>Accenture</title>
    <desc>Created with Sketch.</desc>
    <g id="Page-1" stroke="none" stroke-width="1" fill="none" fill-rule="evenodd">
        <g id="Accenture">
            <polygon id="Path" fill="#008FFF" points="643 32.4705882 706.639752 57.5 643 81.1764706 643 115 752 71.0294118 752 43.9705882 643 0"></polygon>
            <path d="M59.0545455,158 C28.5090909,158 6.10909091,171.566676 4.07272727,200.056696 L38.0121212,200.056696 L38.0121212,199.378362 C38.6909091,189.881689 47.5151515,183.098351 57.0181818,183.776685 C69.9151515,183.776685 76.0242424,191.238357 76.0242424,204.126699 L76.0242424,210.231703 L60.4121212,210.231703 C27.1515152,210.231703 0,220.40671 0,252.288399 L0,253.645067 C0,279.421752 19.0060606,290.953426 42.0848485,290.953426 C56.3393939,291.63176 69.2363636,284.848422 77.3818182,273.995081 L77.3818182,288.918425 L112,288.918425 L112,203.448365 C111.321212,170.888342 88.9212121,158 59.0545455,158 Z M51.5878788,265.855075 C39.369697,265.855075 33.9393939,259.750071 33.9393939,250.931732 L33.9393939,249.575064 C33.9393939,238.043389 42.7636364,233.295053 60.4121212,233.295053 L74.6666667,233.295053 L74.6666667,245.505061 C75.3454545,259.071737 63.8060606,265.855075 51.5878788,265.855075 Z" id="Shape" fill="#000000" fill-rule="nonzero"></path>
            <path d="M193.712644,264.535714 C176.758621,264.535714 167.942529,253 167.942529,227.214286 L167.942529,223.142857 C167.942529,198.035714 178.114943,185.821429 193.712644,185.821429 C205.91954,185.821429 212.701149,193.964286 214.735632,206.178571 L248.643678,206.178571 C245.931034,172.928571 221.517241,158 193.034483,158 C159.126437,158 132,181.071429 132,224.5 L132,225.857143 C132,269.285714 157.770115,291 193.034483,291 C227.62069,291 247.287356,269.964286 250,241.464286 L217.448276,241.464286 C214.735632,255.714286 205.91954,264.535714 193.712644,264.535714 Z" id="Path" fill="#000000"></path>
            <path d="M325.543353,264.535714 C308.635838,264.535714 299.843931,253 299.843931,227.214286 L299.843931,223.142857 C299.843931,198.035714 309.988439,185.821429 325.543353,185.821429 C337.716763,185.821429 344.479769,193.964286 346.508671,206.178571 L380.323699,206.178571 C377.618497,172.928571 353.271676,158 324.867052,158 C291.052023,158 264,181.071429 264,224.5 L264,225.857143 C264,269.285714 289.699422,291 324.867052,291 C359.358382,291 378.971098,269.964286 381,241.464286 L349.213873,241.464286 C347.184971,255.714286 337.716763,264.535714 325.543353,264.535714 Z" id="Path" fill="#000000"></path>
            <path d="M458.880682,264.670051 C443.329545,264.670051 433.863636,255.893401 432.511364,232.939086 L515,232.939086 L515,218.086294 C515,176.228426 488.630682,158 456.852273,158 C422.369318,158 396,181.629442 396,224.162437 L396,226.862944 C396,269.395939 421.017045,291 457.528409,291 C490.659091,291 510.943182,272.771574 514.323864,248.467005 L481.193182,248.467005 C479.840909,258.593909 469.698864,266.020305 458.880682,264.670051 Z M456.852273,182.304569 C471.051136,182.304569 479.840909,190.406091 480.517045,209.309645 L433.1875,209.309645 C435.892045,189.055838 446.034091,182.979695 456.852273,182.304569 Z" id="Shape" fill="#000000" fill-rule="nonzero"></path>
            <polygon id="Path" fill="#008FFF" points="432.85 209.5 432.85 209.5 432.15 209.5"></polygon>
            <path d="M610.542169,158.039206 C594.349398,157.362327 579.506024,165.484877 572.084337,179.699338 L572.084337,160.746723 L537,160.746723 L537,288 L572.084337,288 L572.084337,210.1589 C572.084337,208.805141 572.084337,208.128262 572.084337,206.774504 C572.759036,195.267559 582.879518,185.791251 594.349398,186.46813 C607.168675,186.46813 613.240964,193.236921 613.240964,208.128262 L613.240964,288 L649,288 L649,202.713229 C649,171.576789 633.481928,158.039206 610.542169,158.039206 Z" id="Path" fill="#000000"></path>
            <path d="M715.892857,247.322581 L715.892857,187.032258 L740.321429,187.032258 L740.321429,160.612903 L715.892857,160.612903 L715.892857,122 L680.607143,136.903226 L680.607143,160.612903 L665,160.612903 L665,187.032258 L679.928571,187.032258 L679.928571,251.387097 C679.928571,277.129032 692.821429,290 720.642857,290 C727.428571,290 734.214286,289.322581 741,287.290323 L741,259.516129 C736.928571,260.870968 732.857143,261.548387 728.785714,261.548387 C720.642857,261.548387 715.892857,256.806452 715.892857,247.322581 Z" id="Path" fill="#000000"></path>
            <path d="M838.461078,240.194859 C838.461078,241.548617 838.461078,242.225496 838.461078,243.579254 C837.784431,255.0862 827.634731,264.562508 816.131737,263.885628 C803.275449,263.885628 797.862275,257.116837 797.862275,242.225496 L797.862275,161 L762,161 L762,246.96365 C762,276.746332 778.916168,290.960794 801.922156,290.960794 C817.48503,291.637673 831.694611,283.515123 839.137725,269.300662 L839.137725,288.253277 L875,288.253277 L875,161 L839.137725,161 L838.461078,240.194859 Z" id="Path" fill="#000000"></path>
            <path d="M935.302752,183.664921 L935.302752,160.026178 L900,160.026178 L900,287 L935.302752,287 L935.302752,221.486911 C935.302752,200.549738 949.559633,193.120419 974,193.120419 L974,158 C956.348624,158 940.733945,168.13089 935.302752,183.664921 Z" id="Path" fill="#000000"></path>
            <path d="M1104,217.411168 C1104,175.553299 1077.63068,158 1045.85227,158 C1011.36932,158 985,181.629442 985,224.162437 L985,226.862944 C985,269.395939 1010.01705,291 1046.52841,291 C1079.65909,291 1099.26705,272.771574 1103.32386,248.467005 L1070.19318,248.467005 C1067.48864,259.269036 1057.34659,266.020305 1046.52841,265.345178 C1030.97727,265.345178 1021.51136,256.568528 1020.15909,233.614213 L1102.64773,233.614213 L1102.64773,217.411168 L1104,217.411168 Z M1021.51136,209.309645 C1024.21591,188.380711 1034.35795,182.304569 1045.85227,182.304569 C1060.05114,182.304569 1068.84091,190.406091 1069.51705,209.309645 L1021.51136,209.309645 Z" id="Shape" fill="#000000" fill-rule="nonzero"></path>
        </g>
    </g>
</svg>