<?xml version="1.0" encoding="UTF-8"?>
<svg width="90px" height="90px" viewBox="0 0 90 90" version="1.1" xmlns="http://www.w3.org/2000/svg" xmlns:xlink="http://www.w3.org/1999/xlink">
    <!-- Generator: Sketch 52.6 (67491) - http://www.bohemiancoding.com/sketch -->
    <title>Brand Strategy and Architecture</title>
    <desc>Created with Sketch.</desc>
    <g id="Brand-Strategy-and-Architecture" stroke="none" stroke-width="1" fill="none" fill-rule="evenodd">
        <g id="noun_issue-cards_410870" transform="translate(14.000000, 6.000000)" fill="#000000">
            <g id="Group">
                <path d="M26.828125,0.7558594 L1.6181641,0.7558594 C0.7895508,0.7558594 0.1181641,1.4277344 0.1181641,2.2558594 L0.1181641,35.9296875 C0.1181641,36.7578125 0.7895508,37.4296875 1.6181641,37.4296875 L26.828125,37.4296875 C27.6567383,37.4296875 28.328125,36.7578125 28.328125,35.9296875 L28.328125,2.2558594 C28.328125,1.4277344 27.6567383,0.7558594 26.828125,0.7558594 Z M25.328125,3.7558594 L25.328125,23 L3.1181641,23 L3.1181641,3.7558594 L25.328125,3.7558594 Z M3.1181641,34.4296875 L3.1181641,26 L25.328125,26 L25.328125,34.4296875 L3.1181641,34.4296875 Z" id="Shape" fill-rule="nonzero"></path>
                <rect id="Rectangle" x="7" y="29" width="12" height="3"></rect>
                <path d="M59.25,0.7558594 L34.0400391,0.7558594 C33.2114258,0.7558594 32.5400391,1.4277344 32.5400391,2.2558594 L32.5400391,35.9296875 C32.5400391,36.7578125 33.2114258,37.4296875 34.0400391,37.4296875 L59.25,37.4296875 C60.0786133,37.4296875 60.75,36.7578125 60.75,35.9296875 L60.75,2.2558594 C60.75,1.4277344 60.0786133,0.7558594 59.25,0.7558594 Z M57.75,3.7558594 L57.75,23 L35.5400391,23 L35.5400391,3.7558594 L57.75,3.7558594 Z M35.5400391,34.4296875 L35.5400391,26 L57.75,26 L57.75,34.4296875 L35.5400391,34.4296875 Z" id="Shape" fill-rule="nonzero"></path>
                <rect id="Rectangle" x="39" y="29" width="12" height="3"></rect>
                <path d="M26.828125,41.7558594 L1.6181641,41.7558594 C0.7895508,41.7558594 0.1181641,42.4277344 0.1181641,43.2558594 L0.1181641,76.9296875 C0.1181641,77.7578125 0.7895508,78.4296875 1.6181641,78.4296875 L26.828125,78.4296875 C27.6567383,78.4296875 28.328125,77.7578125 28.328125,76.9296875 L28.328125,43.2558594 C28.328125,42.4277344 27.6567383,41.7558594 26.828125,41.7558594 Z M25.328125,44.7558594 L25.328125,64 L3.1181641,64 L3.1181641,44.7558594 L25.328125,44.7558594 Z M3.1181641,75.4296875 L3.1181641,67 L25.328125,67 L25.328125,75.4296875 L3.1181641,75.4296875 Z" id="Shape" fill-rule="nonzero"></path>
                <rect id="Rectangle" x="7" y="70" width="12" height="3"></rect>
                <path d="M59.25,41.7558594 L34.0400391,41.7558594 C33.2114258,41.7558594 32.5400391,42.4277344 32.5400391,43.2558594 L32.5400391,76.9296875 C32.5400391,77.7578125 33.2114258,78.4296875 34.0400391,78.4296875 L59.25,78.4296875 C60.0786133,78.4296875 60.75,77.7578125 60.75,76.9296875 L60.75,43.2558594 C60.75,42.4277344 60.0786133,41.7558594 59.25,41.7558594 Z M57.75,44.7558594 L57.75,64 L35.5400391,64 L35.5400391,44.7558594 L57.75,44.7558594 Z M35.5400391,75.4296875 L35.5400391,67 L57.75,67 L57.75,75.4296875 L35.5400391,75.4296875 Z" id="Shape" fill-rule="nonzero"></path>
                <rect id="Rectangle" x="39" y="70" width="12" height="3"></rect>
                <path d="M14.2231445,19.25 C17.5317383,19.25 20.2231445,16.5585938 20.2231445,13.25 C20.2231445,9.9414062 17.5317383,7.25 14.2231445,7.25 C10.9145507,7.25 8.2231445,9.9414062 8.2231445,13.25 C8.2231445,16.5585938 10.9145508,19.25 14.2231445,19.25 Z M14.2231445,10.25 C15.8774414,10.25 17.2231445,11.5957031 17.2231445,13.25 C17.2231445,14.9042969 15.8774414,16.25 14.2231445,16.25 C12.5688476,16.25 11.2231445,14.9042969 11.2231445,13.25 C11.2231445,11.5957031 12.5688477,10.25 14.2231445,10.25 Z" id="Shape" fill-rule="nonzero"></path>
                <path d="M52,7.75 L41,7.75 L41,18.75 L52,18.75 L52,7.75 Z M49,15.75 L44,15.75 L44,10.75 L49,10.75 L49,15.75 Z" id="Shape" fill-rule="nonzero"></path>
                <path d="M14.5,47.3291016 L6.9018555,60.4892578 L22.0981446,60.4892578 L14.5,47.3291016 Z M14.5,53.3291016 L16.9018555,57.4892578 L12.0981446,57.4892578 L14.5,53.3291016 Z" id="Shape" fill-rule="nonzero"></path>
                <path d="M50.6293945,60.8359375 L53.1811523,52.9814453 L46.5,48.1269531 L39.8188477,52.9814453 L42.3706055,60.8359375 L50.6293945,60.8359375 Z M46.5,51.8359375 L49.6547852,54.1279297 L48.4497071,57.8359375 L44.550293,57.8359375 L43.3452149,54.1279297 L46.5,51.8359375 Z" id="Shape" fill-rule="nonzero"></path>
            </g>
        </g>
    </g>
</svg>