<?xml version="1.0" encoding="UTF-8"?>
<svg width="891px" height="508px" viewBox="0 0 891 508" version="1.1" xmlns="http://www.w3.org/2000/svg" xmlns:xlink="http://www.w3.org/1999/xlink">
    <!-- Generator: Sketch 52.6 (67491) - http://www.bohemiancoding.com/sketch -->
    <title>British American Tobacco</title>
    <desc>Created with Sketch.</desc>
    <g id="Page-1" stroke="none" stroke-width="1" fill="none" fill-rule="evenodd">
        <g id="British-American-Tobacco">
            <path d="M650.583454,366.683321 C650.583454,373.01338 648.081846,378.272973 640.934514,378.272973 C638.56157,378.272973 635.96709,378.173062 635.96709,375.603929 L635.96709,357.256024 C636.967649,356.970566 638.668776,356.770743 641.349004,356.770743 C643.93636,356.770743 646.402261,357.555759 647.781686,358.954506 C649.682891,360.731492 650.583454,363.507587 650.583454,366.683321 Z M680.723952,405.420158 C680.723952,405.134701 680.50954,405.034789 680.15934,404.934878 L678.458214,404.628012 C675.384869,403.942908 672.118488,401.55219 668.837857,398.09813 L663.627438,392.353255 L657.430626,385.009818 L652.470326,379.264943 C657.909489,377.380915 665.45002,372.727922 665.45002,365.184662 C665.45002,361.923286 664.170592,358.954506 662.183639,357.070478 C657.430626,352.603039 649.975926,351.889388 642.928592,351.889388 L615.246786,351.889388 C615.246786,352.967 615.754232,353.509367 616.476174,354.037473 L617.676895,354.865298 L619.020614,355.978596 C620.307167,357.355935 621.407807,359.739522 621.407807,364.492419 L621.407807,406.005351 C623.780751,405.52007 626.646892,405.420158 628.848257,405.420158 C630.828085,405.420158 633.60127,405.52007 635.988464,406.005351 L635.988464,382.925958 C637.367973,383.02587 638.468614,383.325605 640.041077,384.802856 L643.557577,389.156113 L647.495776,394.579844 C650.290419,398.276545 653.399554,401.923281 656.923179,403.842996 C660.990042,406.126671 667.737133,406.512049 670.924891,406.512049 C673.390792,406.512049 678.458214,406.312225 680.373752,406.005351 L680.723952,405.420158 Z M607.563342,394.415699 L606.66278,394.230153 C605.805133,394.230153 605.297603,394.615522 604.847322,395.200714 L603.475021,397.305975 C602.33859,398.847459 600.423135,400.360396 595.555708,400.360396 L583.333746,400.360396 L583.333746,379.850136 L602.295758,379.850136 L602.295758,373.919716 L583.333746,373.919716 L583.333746,357.455847 L598.629136,357.455847 C601.009204,357.455847 603.396398,358.16236 604.768699,359.254242 L604.482789,351.889388 L562.584859,351.889388 C562.584859,352.902766 563.070848,353.487959 563.785665,354.037473 L566.272939,355.978596 C567.652365,357.455847 568.753089,359.739522 568.753089,364.599469 L568.753089,401.55219 C568.753089,405.619982 569.053249,406.026768 573.30594,406.026768 L603.982551,406.026768 C606.169583,406.026768 606.569823,404.228373 606.855733,401.252455 L607.563342,394.415699 Z M553.529114,406.005351 L546.195954,366.983056 C545.595551,363.807314 545.002273,359.839434 545.002273,356.463877 C545.002273,354.986618 545.20956,353.109729 545.995792,351.889388 L535.589203,351.889388 C532.194158,351.889388 531.40801,353.309552 530.014251,356.285462 L517.813664,382.540589 L504.912592,354.20161 C504.112111,352.317574 503.61179,351.889388 501.524756,351.889388 L485.157224,351.889388 C485.157224,352.724359 485.514633,353.33096 486.107827,353.894736 L488.330733,355.57181 C489.731617,356.663692 491.111043,358.347905 491.111043,361.423736 L490.632179,365.284573 L481.490686,406.005351 L488.137696,406.005351 L496.178548,367.875115 L513.039193,406.897418 L531.40801,367.082968 L538.948458,406.005351 C540.928286,405.619982 543.908757,405.420158 546.403157,405.420158 C548.668895,405.420158 551.44208,405.619982 553.529114,406.005351 Z M449.034409,380.256913 L428.106818,380.256913 L439.221014,353.20964 L449.034409,380.256913 Z M474.443352,406.005351 L452.415121,347.850135 C450.535373,342.690461 449.034409,340 444.267062,340 L427.999612,340 C427.999612,340.949153 428.321229,341.555754 428.828759,342.041035 L430.722756,343.297062 C432.095057,344.103478 433.474567,345.138274 433.474567,347.850135 C433.474567,349.826944 432.280886,353.109729 431.380324,355.186441 L410.045402,406.026768 L417.593041,406.026768 L425.526671,386.487069 L451.314396,386.487069 L458.368855,406.005351 C460.849005,405.52007 463.329155,405.320255 466.116589,405.320255 C469.190017,405.320255 471.577211,405.52007 474.443352,406.005351 Z M365.781652,406.005351 L365.781652,351.889388 L351.179555,351.889388 L351.179555,373.819804 L329.458649,373.819804 L329.458649,353.409455 C329.458649,352.603039 328.944037,351.889388 327.950552,351.889388 L308.802711,351.889388 C308.802711,352.967 309.353065,353.509367 310.12498,354.08029 L311.375775,355.029443 L312.776659,356.363965 C314.056037,358.16236 314.863693,360.346123 314.863693,364.799293 L314.863693,406.005351 C317.236629,405.52007 319.831126,405.420158 322.296976,405.420158 C324.691345,405.420158 327.064281,405.52007 329.458649,406.005351 L329.458649,379.66459 L351.179555,379.66459 L351.179555,406.005351 C353.559632,405.52007 356.132688,405.420158 358.627129,405.420158 C361.014348,405.420158 363.387284,405.52007 365.781652,406.005351 Z M299.975694,391.054419 C299.975694,381.891171 293.871829,377.687781 287.775114,374.305085 L283.265112,371.900089 L279.369787,369.352365 C277.096916,367.546832 275.581677,365.448711 275.581677,362.515617 C275.581677,358.062448 280.134561,355.778773 283.915522,355.778773 C286.202685,355.778773 288.082449,356.285462 289.376127,356.970566 C291.65614,358.16236 293.042732,360.246212 293.836088,362.13024 C295.029702,364.999108 295.923131,366.176632 297.702831,366.176632 L298.603401,365.891174 L297.702831,353.694921 C293.335775,351.810884 288.97587,350.918826 283.522415,350.918826 C278.647904,350.918826 274.08072,351.910796 270.414115,353.694921 C265.346618,356.178411 261.780077,360.831404 261.780077,365.991078 C261.780077,375.254238 267.755286,379.30063 273.737645,382.597684 L278.090409,385.009818 L281.942843,387.536134 C284.187124,389.377345 285.688072,391.582517 285.688072,394.715434 C285.688072,399.368426 281.44253,401.759144 277.161248,401.759144 C269.620759,401.759144 264.667617,396.699374 260.672228,390.754684 L260.672228,403.050849 C266.440167,406.005351 271.507664,407.097233 278.161883,407.097233 C290.269547,407.097233 299.975694,401.152543 299.975694,391.054419 Z M246.549002,406.005351 L246.549002,353.509367 C246.549002,352.517397 246.041539,351.889388 245.048054,351.889388 L225.80729,351.889388 C225.80729,352.859949 226.286171,353.388047 227.000904,353.916153 L228.173076,354.786803 L229.466754,355.978596 C230.874788,357.455847 231.946896,359.839434 231.946896,364.899196 L231.946896,406.005351 C234.026789,405.619982 236.621286,405.420158 239.194342,405.420158 C241.481505,405.420158 244.569174,405.619982 246.549002,406.005351 Z M218.381165,364.392507 L217.980908,351.889388 L169.950489,351.889388 L169.457318,364.492419 L170.150618,364.599469 C171.237017,364.599469 172.030382,363.507587 172.745115,362.230152 C174.803567,358.347905 176.104386,357.256024 180.964613,357.256024 L186.618188,357.256024 L186.618188,406.005351 C188.805287,405.619982 191.578472,405.420158 193.979998,405.420158 C195.652484,405.420158 199.219025,405.619982 201.206003,406.005351 L201.206003,357.256024 L206.873878,357.256024 C212.23441,357.256024 213.320818,358.647641 215.407852,362.515617 C215.993938,363.707403 216.794444,364.492419 217.673574,364.492419 L218.381165,364.392507 Z M156.327577,406.005351 L156.327577,353.509367 C156.327577,352.517397 155.805822,351.889388 154.812329,351.889388 L135.557283,351.889388 C135.557283,352.859949 136.050446,353.388047 136.758038,353.916153 L137.93021,354.786803 L139.231038,355.978596 C140.631921,357.455847 141.718329,359.839434 141.718329,364.899196 L141.718329,406.005351 C143.783922,405.619982 146.378419,405.420158 148.958625,405.420158 C151.238638,405.420158 154.319166,405.619982 156.327577,406.005351 Z M287.753665,454.983049 L287.153287,440.702944 L229.995659,440.702944 L229.395281,454.983049 L230.295851,455.182873 C231.089208,455.182873 231.761067,454.640497 232.361444,453.869759 L234.062521,451.115081 C236.335393,447.154331 238.92989,446.262264 243.38271,446.262264 L250.74452,446.262264 L250.74452,506.708295 C253.310426,506.201606 255.883482,506.001782 258.663817,506.001782 C260.758001,506.001782 264.031499,506.201606 266.325811,506.708295 L266.325811,446.262264 L273.65903,446.262264 C278.626463,446.262264 280.906476,447.254234 283.286554,451.421946 C284.272889,453.198932 285.366446,455.082961 286.853095,455.082961 L287.753665,454.983049 Z M335.769793,479.361286 C335.769793,487.875109 333.682758,502.540591 322.389891,502.540591 C309.68184,502.540591 307.494742,489.759145 307.494742,479.760925 C307.494742,470.54059 309.581776,456.560212 321.48932,456.560212 C333.311092,456.560212 335.769793,470.133812 335.769793,479.361286 Z M351.351092,479.860837 C351.351092,462.105263 339.943861,451.222123 322.282677,451.222123 C306.101,451.222123 291.906301,461.51294 291.906301,478.669043 C291.906301,496.895628 303.313524,508 321.289192,508 C338.171311,508 351.351092,497.302406 351.351092,479.860837 Z M398.580997,490.851027 C398.580997,498.472791 394.828627,501.755575 387.481116,501.755575 C383.30704,501.755575 381.498749,501.348798 381.498749,497.98751 L381.498749,480.731486 L383.514318,480.731486 C386.180289,480.731486 389.360872,480.938449 390.740323,481.238184 C395.521919,482.230154 398.580997,485.591433 398.580997,490.851027 Z M395.429004,465.48082 C395.429004,473.309546 391.354992,475.593221 383.99319,475.593221 L381.498749,475.49331 L381.498749,458.943799 C381.498749,457.452278 382.106285,457.266724 384.600718,457.266724 C389.653915,457.266724 395.429004,458.54416 395.429004,465.48082 Z M414.076532,491.842997 C414.076532,482.429978 404.749193,477.170384 396.408198,476.48528 C403.155322,475.878679 409.709476,471.425509 409.709476,464.103481 C409.709476,457.752005 403.948687,454.576272 398.295103,453.505798 C396.007941,453.063334 393.963789,452.834972 391.77669,452.73506 L384.400589,452.592331 L360.878551,452.592331 C360.878551,453.562893 361.528961,454.276536 362.315176,454.918824 L364.645221,456.760035 C366.832319,459.050849 366.932384,462.50491 366.932384,465.580731 L366.932384,506.729703 L389.753979,506.729703 C397.301618,506.729703 401.868794,506.201606 406.035721,504.139162 C410.495691,501.955399 414.076532,497.887598 414.076532,491.842997 Z M454.301993,485.305976 L437.212603,485.305976 L446.261224,464.203392 L454.301993,485.305976 Z M478.009893,506.708295 L458.854927,459.050849 C457.1538,454.776095 456.081743,452.592331 451.914799,452.592331 L435.92605,452.592331 C435.92605,453.36307 436.240543,453.869759 436.73374,454.290814 L438.556322,455.382696 C439.871458,456.096339 441.193718,456.966997 441.193718,459.050849 C441.193718,459.835865 440.900683,460.90633 440.543275,461.983942 L439.413968,464.995539 L421.331119,506.729703 L428.078235,506.729703 L434.753911,491.150762 L456.360444,491.150762 L462.421468,506.708295 C464.915868,506.201606 467.596096,506.101694 469.976249,506.101694 C472.649352,506.101694 475.329581,506.301517 478.009893,506.708295 Z M533.373506,467.564671 L532.773103,455.282784 C528.613368,452.799286 522.752506,451.62177 517.28476,451.62177 C501.017309,451.62177 486.429528,462.326495 486.429528,479.56111 C486.429528,497.587872 500.030999,507.600353 517.084597,507.600353 C522.144978,507.600353 529.599678,506.301517 533.066138,502.847457 L533.066138,494.911688 C529.599678,498.679753 525.325528,501.548621 519.671953,501.548621 C506.971044,501.548621 502.010828,489.859057 502.010828,478.768955 C502.010828,468.656553 507.071125,456.859947 518.385484,456.859947 C521.265874,456.859947 523.653068,457.452278 525.532815,458.943799 C527.119528,460.142731 528.105921,462.019629 529.306643,465.095451 C529.892712,466.879576 531.079184,467.864407 532.379987,467.864407 L533.373506,467.564671 Z M593.197097,467.564671 L592.596694,455.282784 C588.436959,452.799286 582.583222,451.62177 577.115475,451.62177 C560.848025,451.62177 546.267368,462.326495 546.267368,479.56111 C546.267368,497.587872 559.85459,507.600353 576.908188,507.600353 C581.982903,507.600353 589.430477,506.301517 592.904062,502.847457 L592.904062,494.911688 C589.430477,498.679753 585.156328,501.548621 579.502753,501.548621 C566.801843,501.548621 561.841543,489.859057 561.841543,478.768955 C561.841543,468.656553 566.901925,456.859947 578.2162,456.859947 C581.082257,456.859947 583.483784,457.452278 585.356406,458.943799 C586.950327,460.142731 587.929513,462.019629 589.137359,465.095451 C589.723512,466.879576 590.917109,467.864407 592.217911,467.864407 L593.197097,467.564671 Z M649.954468,479.361286 C649.954468,487.875109 647.860309,502.540591 636.538826,502.540591 C623.859375,502.540591 621.665135,489.759145 621.665135,479.760925 C621.665135,470.54059 623.752169,456.560212 635.652597,456.560212 C647.460069,456.560212 649.954468,470.133812 649.954468,479.361286 Z M665.535768,479.860837 C665.535768,462.105263 654.121412,451.222123 636.460203,451.222123 C620.264251,451.222123 606.09096,461.51294 606.09096,478.669043 C606.09096,496.895628 617.491066,508 635.44531,508 C652.327412,508 665.535768,497.302406 665.535768,479.860837 Z M102.157552,366.683321 C102.157552,373.01338 99.6774109,378.272973 92.5371791,378.272973 C90.1356606,378.272973 87.541155,378.173062 87.541155,375.603929 L87.541155,357.256024 C88.5560895,356.970566 90.2357166,356.770743 92.9302865,356.770743 C95.5033425,356.770743 97.9763343,357.555759 99.3843678,358.954506 C101.264132,360.731492 102.157552,363.507587 102.157552,366.683321 Z M132.319517,405.420158 C132.319517,405.134701 132.13368,405.034789 131.733431,404.934878 L130.046646,404.628012 C126.951827,403.942908 123.685479,401.55219 120.404831,398.09813 L115.215828,392.353255 L108.9976,385.009818 L104.044466,379.264943 C109.505071,377.380915 117.04556,372.727922 117.04556,365.184662 C117.04556,361.923286 115.744733,358.954506 113.757763,357.070478 C108.9976,352.603039 101.571475,351.889388 94.5170075,351.889388 L66.8137432,351.889388 C66.8137432,352.967 67.3212062,353.509367 68.0573889,354.037473 L69.2510025,354.865298 L70.5875626,355.978596 C71.8812405,357.355935 72.9747898,359.739522 72.9747898,364.492419 L72.9747898,406.005351 C75.354867,405.52007 78.2424074,405.420158 80.4366557,405.420158 C82.3950429,405.420158 85.1825189,405.52007 87.5625962,406.005351 L87.5625962,382.925958 C88.9634882,383.02587 90.0355963,383.325605 91.6366086,384.802856 L95.1388261,389.156113 L99.0913331,394.579844 C101.864518,398.276545 104.995069,401.923281 108.511578,403.842996 C112.564149,406.126671 119.318423,406.512049 122.491865,406.512049 C124.986298,406.512049 130.046646,406.312225 131.93356,406.005351 L132.319517,405.420158 Z M41.7764578,386.686892 C41.7764578,396.014278 37.3164878,400.667262 29.1827711,400.667262 C24.3082525,400.667262 22.2140685,400.181981 22.2140685,396.11419 L22.2140685,373.983941 L24.5941458,373.983941 C29.6616431,373.983941 35.922754,374.711871 39.2820249,379.057989 C40.7901227,381.041929 41.7764578,383.818024 41.7764578,386.686892 Z M38.016938,356.363965 C38.016938,365.284573 33.6284414,368.360395 25.1016172,368.360395 L22.2140685,368.17485 L22.2140685,347.1579 C22.2140685,345.380914 22.9216602,344.974136 25.7877594,344.974136 C32.9422909,344.974136 38.016938,349.041928 38.016938,356.363965 Z M58.3512425,387.878686 C58.3512425,376.388937 47.5372471,370.344335 38.016938,369.452277 C45.7432561,368.767173 53.1908307,363.000898 53.1908307,354.09456 C53.1908307,346.265833 46.6366767,342.404995 40.0825311,341.113299 C37.5023252,340.563784 35.17228,340.299735 32.6563976,340.157007 L24.2081882,340 L0,340 C0,341.170385 0.807655989,342.062443 1.77969976,342.868868 L4.5600343,345.074048 C6.8471971,347.643181 6.94726142,351.525427 6.94726142,355.778773 L6.94726142,406.026768 L30.3763846,406.026768 C39.0032731,406.026768 44.1636849,405.420158 49.0167623,402.950938 C54.06996,400.181981 58.3512425,395.222123 58.3512425,387.878686 Z M704.73922,406.005351 L704.73922,353.509367 C704.73922,352.517397 704.238898,351.889388 703.24538,351.889388 L683.940293,351.889388 C683.940293,352.859949 684.447739,353.388047 685.155348,353.916153 L686.306112,354.786803 L687.656956,355.978596 C689.014923,357.455847 690.15848,359.839434 690.15848,364.899196 L690.15848,406.005351 C692.231264,405.619982 694.804287,405.420158 697.377393,405.420158 C699.671714,405.420158 702.737934,405.619982 704.73922,406.005351 Z M766.778509,366.883144 L766.213814,354.57984 C762.068328,352.117758 756.200341,350.918826 750.696888,350.918826 C734.472269,350.918826 719.820198,361.623551 719.820198,378.858166 C719.820198,396.906336 733.471626,406.897418 750.553891,406.897418 C755.557107,406.897418 762.990348,405.619982 766.492599,402.144513 L766.492599,394.230153 C762.990348,397.998218 758.773364,400.867086 753.126997,400.867086 C740.40463,400.867086 735.408623,389.177522 735.408623,378.066011 C735.408623,367.975026 740.476128,356.178411 751.840444,356.178411 C754.699376,356.178411 757.057987,356.770743 758.987859,358.262272 C760.567363,359.439787 761.489383,361.316685 762.704438,364.392507 C763.354881,366.176632 764.491313,367.168602 765.777866,367.168602 L766.778509,366.883144 Z M808.447694,384.603032 L791.36543,384.603032 L800.449757,363.507587 L808.447694,384.603032 Z M832.184177,406.005351 L813.022003,358.347905 C811.38525,354.09456 810.234569,351.889388 806.089083,351.889388 L790.07896,351.889388 C790.07896,352.660126 790.436285,353.188232 790.936606,353.609279 L792.730606,354.701161 C794.010034,355.414812 795.368002,356.285462 795.368002,358.347905 C795.368002,359.946476 794.295861,362.615521 793.581127,364.292595 L775.498304,406.026768 L782.295435,406.026768 L788.93532,390.469227 L810.520479,390.469227 L816.595752,406.005351 C819.104485,405.52007 821.741881,405.420158 824.171991,405.420158 C826.823636,405.420158 829.532531,405.619982 832.184177,406.005351 Z M891,406.026768 L891,351.889388 L884.14562,351.889388 L884.781813,388.08564 L856.478146,353.694921 C855.477503,352.417485 854.619857,351.889388 852.904481,351.889388 L837.609007,351.889388 C837.609007,352.859949 838.252326,353.595009 839.045682,354.237288 L841.404293,356.078508 C843.548492,358.347905 843.762904,361.13827 843.762904,364.899196 L843.762904,406.026768 L850.545786,406.026768 L850.045464,367.775203 L874.78259,398.297953 C876.204932,400.181981 878.635041,402.54416 880.278919,403.53613 C882.787652,405.034789 885.853871,406.026768 889.713447,406.026768 L891,406.026768 Z" id="path3502" fill="#0A4E8C" fill-rule="nonzero"></path>
            <path d="M496.621897,278.796236 L496.357357,278.99662 L496.314427,279.239941 L496.557585,279.282878 L657.255345,165.515809 L515.876194,283.519532 L515.861856,283.741385 L516.076338,283.762854 L516.426738,283.476595 L608.272404,249.232689 L534.115178,292 C603.081724,292 685.689882,237.410129 711,124.129702 C711,124.129702 563.59362,125.811482 514.381859,191.443854 C523.640832,99.017503 459.900769,11.9084343 448.025075,0 C436.14217,11.9084343 372.387819,99.017503 381.653902,191.443854 C332.442166,125.811482 185,124.129702 185,124.129702 C210.360167,237.410129 292.939791,292 361.927735,292 L287.74907,249.232689 L379.623369,283.476595 L379.966558,283.762854 L380.188201,283.741385 L380.166753,283.519532 L238.787577,165.515809 L399.49253,279.282878 L399.735622,279.239941 L399.685573,278.99662 L399.428177,278.796236 L352.804654,187.72962 L419.14004,276.599185 L397.862387,169.630802 L438.537281,275.017596 L438.5159,275.404047 L438.680325,275.568645 L438.837624,275.404047 L448.025075,63.8217714 L457.18385,275.404047 L457.341148,275.568645 L457.512784,275.404047 L457.491319,275.017596 L498.180543,169.630802 L476.910042,276.599185 L543.216853,187.72962" id="path3506" fill="#FFB30F"></path>
        </g>
    </g>
</svg>