<?xml version="1.0" encoding="UTF-8"?>
<svg width="90px" height="90px" viewBox="0 0 90 90" version="1.1" xmlns="http://www.w3.org/2000/svg" xmlns:xlink="http://www.w3.org/1999/xlink">
    <!-- Generator: Sketch 52.6 (67491) - http://www.bohemiancoding.com/sketch -->
    <title>Codesign</title>
    <desc>Created with Sketch.</desc>
    <g id="Codesign" stroke="none" stroke-width="1" fill="none" fill-rule="evenodd">
        <g id="Colore" transform="translate(51.000000, 40.000000)" fill="#FFFE2A">
            <polygon id="Path" points="3.9956055 7.3642578 0.5532227 0.9980469 6.9194336 4.4404297"></polygon>
            <polygon id="Path" points="27.0722656 31.1660156 21.140625 25.2342529 18.140625 22.2341308 5.7543945 9.8476562 9.402832 6.1992187 18.140625 14.9372558 21.140625 17.9372558 30.7207031 27.5175781"></polygon>
        </g>
        <g id="noun_Group-sketching_410867" transform="translate(4.000000, 4.000000)" fill="#000000" fill-rule="nonzero">
            <path d="M79.9023438,63.4570312 L67.140625,50.6950684 L67.140625,2.4462891 C67.140625,1.6181641 66.4692383,0.9462891 65.640625,0.9462891 L16.359375,0.9462891 C15.5307617,0.9462891 14.859375,1.6181641 14.859375,2.4462891 L14.859375,28.5598145 L1.4311523,41.9882812 C0.8452148,42.5742187 0.8452148,43.5234374 1.4311523,44.109375 L7.2001953,49.8789062 C7.4814453,50.1601562 7.862793,50.3183593 8.2607422,50.3183593 C8.6586914,50.3183593 9.0400391,50.1601562 9.3212891,49.8789062 L14.859375,44.3408203 L14.859375,63.5537109 C14.859375,64.3818359 15.5307617,65.0537109 16.359375,65.0537109 L27.274292,65.0537109 L23.2182617,78.6875 C22.9819336,79.4814453 23.434082,80.3164062 24.2280273,80.5527344 C24.3706054,80.5957032 24.5146484,80.6152344 24.65625,80.6152344 C25.3027344,80.6152344 25.8999023,80.194336 26.0932617,79.5429688 L30.4038086,65.053711 L51.5961914,65.053711 L55.9067383,79.5429688 C56.1000977,80.194336 56.6972656,80.6152344 57.34375,80.6152344 C57.4853516,80.6152344 57.6293945,80.5957032 57.7719727,80.5527344 C58.565918,80.3164063 59.0180665,79.4814453 58.7817383,78.6875 L54.725708,65.0537109 L65.640625,65.0537109 C65.6646729,65.0537109 65.6870728,65.0477295 65.7108154,65.0466308 L72.0117187,71.3476562 C72.2929687,71.6289062 72.6743164,71.7871093 73.0722656,71.7871093 C73.4702148,71.7871093 73.8515625,71.6289062 74.1328125,71.3476562 L79.9023437,65.578125 C80.4882812,64.9921875 80.4882812,64.0429688 79.9023438,63.4570312 Z M8.2607422,46.6972656 L4.612793,43.0488281 L14.859375,32.802002 L17.859375,29.802002 L25.9306641,21.7304688 L29.5791016,25.3789063 L17.859375,37.0986328 L14.859375,40.0986328 L8.2607422,46.6972656 Z M31.3378906,22.8955078 L28.4140625,19.9716797 L34.7802734,16.5292969 L31.3378906,22.8955078 Z M17.8593749,62.0537109 L17.859375,41.3408203 L32.7607422,26.4394531 C32.7675781,26.4326172 32.7694702,26.4230957 32.7761841,26.4162597 C32.8696289,26.3193359 32.9541626,26.213623 33.0195313,26.0927734 L39.6135865,13.8980713 C40.5333863,13.4500733 43.0133668,12.4714356 45.4907227,13.4873047 C48.2817383,14.6308594 50.3720704,17.9091797 51.7041016,23.2314453 C51.8745118,23.9130859 52.4858399,24.3671875 53.1582032,24.3671875 C53.2788087,24.3671875 53.4013673,24.3525391 53.5234376,24.3222656 C54.3271485,24.1210937 54.8154298,23.3066406 54.6142579,22.5029297 C53.0322267,16.1816406 50.3325196,12.2089844 46.5898438,10.6953125 C42.0546876,8.8603516 37.8334961,11.4365234 37.65625,11.5458984 C37.6278076,11.5635986 37.6052856,11.5866699 37.5784912,11.605957 L25.2172851,18.290039 C25.0958251,18.3557128 24.989685,18.4405517 24.8926391,18.5341796 C24.8860473,18.5405273 24.8765869,18.5423583 24.8701171,18.548828 L17.8593749,25.5596923 L17.8593749,3.9462891 L64.1406249,3.9462891 L64.1406249,47.6950684 L56.4633788,40.0175782 C56.4569701,40.0112305 56.4475097,40.0093995 56.4409789,40.0031739 C56.343933,39.9094239 56.2377318,39.824463 56.1162108,39.7587891 L43.6908568,33.0400391 C42.0852049,31.6198731 39.4215087,30.3707276 37.1420897,30.8867188 C36.1430663,31.1113282 34.7983397,31.7675782 34.0649413,33.616211 C32.6054686,37.2958985 34.8999022,40.4892579 36.923828,43.3066407 C38.3295897,45.2626954 39.6572264,47.1103516 39.6933592,48.8632813 C39.7202147,50.1884766 39.2270506,50.4550782 39.0410154,50.5546875 C36.9707029,51.6699219 30.745117,49.0214844 28.1806638,47.2636719 C27.4965818,46.7939453 26.5634763,46.9697266 26.0952146,47.6523438 C25.6269529,48.3359376 25.8012693,49.2695313 26.4843748,49.7382813 C27.9199217,50.7226563 33.4492186,53.8056641 37.6943357,53.8056641 C38.7177732,53.8056641 39.6674802,53.6259766 40.4663084,53.194336 C41.5112303,52.6308594 42.7460936,51.4101563 42.6923826,48.8027344 C42.6376951,46.1171875 40.9716795,43.7978516 39.3603514,41.5556641 C37.2685545,38.6445313 36.0561522,36.7324219 36.8540037,34.7216797 C37.1220701,34.0449219 37.5009764,33.8808594 37.8012693,33.8134766 C38.8760984,33.5671387 40.6005247,34.3378907 41.6506956,35.2388916 L48.3139646,47.5615234 C48.3793333,47.682373 48.4638669,47.7880859 48.5573118,47.8850097 C48.5640257,47.8918456 48.5659178,47.9013671 48.5727537,47.9082031 L62.7179563,62.0537109 L17.8593749,62.0537109 Z M49.9956055,44.3642578 L46.5532227,37.9980469 L52.9194336,41.4404297 L49.9956055,44.3642578 Z M73.0722656,68.1660156 L67.140625,62.2342529 L64.140625,59.2341308 L51.7543945,46.8476562 L55.402832,43.1992187 L64.140625,51.9372558 L67.140625,54.9372558 L76.7207031,64.5175781 L73.0722656,68.1660156 Z" id="Shape"></path>
        </g>
    </g>
</svg>