<?xml version="1.0" encoding="UTF-8"?>
<svg width="90px" height="90px" viewBox="0 0 90 90" version="1.1" xmlns="http://www.w3.org/2000/svg" xmlns:xlink="http://www.w3.org/1999/xlink">
    <!-- Generator: Sketch 52.6 (67491) - http://www.bohemiancoding.com/sketch -->
    <title>Communication Strategy</title>
    <desc>Created with Sketch.</desc>
    <g id="Communication-Strategy" stroke="none" stroke-width="1" fill="none" fill-rule="evenodd">
        <g id="noun_Cognitive-walkthrough_229114" transform="translate(11.000000, 5.000000)" fill="#000000">
            <g id="Group">
                <path d="M11.8,57.2 L19.3,57.2 C19.9,59.7 22.1,61.5 24.7,61.5 C27.4,61.5 29.6,59.6 30.1,57.2 L37.6,57.2 C38.2,59.7 40.4,61.5 43,61.5 C45.7,61.5 47.9,59.6 48.4,57.2 L55.9,57.2 C56.5,59.7 58.7,61.5 61.3,61.5 C64.4,61.5 66.9,59 66.9,55.9 C66.9,53.2 65,51 62.6,50.5 L62.6,43.9 C65.1,43.3 66.9,41.1 66.9,38.5 C66.9,35.4 64.4,32.9 61.3,32.9 C58.6,32.9 56.4,34.8 55.9,37.2 L48.4,37.2 C47.8,34.7 45.6,32.9 43,32.9 C40.3,32.9 38.1,34.8 37.6,37.2 L30.1,37.2 C29.5,34.7 27.3,32.9 24.7,32.9 C22,32.9 19.8,34.8 19.3,37.2 L11.8,37.2 C11.2,34.7 9,32.9 6.4,32.9 C3.3,32.9 0.8,35.4 0.8,38.5 C0.8,41.6 3.3,44.1 6.4,44.1 C9.1,44.1 11.3,42.2 11.8,39.8 L19.3,39.8 C19.9,42.3 22.1,44.1 24.7,44.1 C27.4,44.1 29.6,42.2 30.1,39.8 L37.6,39.8 C38.2,42.3 40.4,44.1 43,44.1 C45.7,44.1 47.9,42.2 48.4,39.8 L55.9,39.8 C56.4,41.9 58,43.5 60.1,44 L60.1,50.6 C58,51.1 56.4,52.7 55.9,54.8 L48.4,54.8 C47.8,52.3 45.6,50.5 43,50.5 C40.3,50.5 38.1,52.4 37.6,54.8 L30.1,54.8 C29.5,52.3 27.3,50.5 24.7,50.5 C22,50.5 19.8,52.4 19.3,54.8 L11.8,54.8 C11.2,52.3 9,50.5 6.4,50.5 C3.3,50.5 0.8,53 0.8,56.1 C0.8,58.8 2.7,61 5.1,61.5 L5.1,68.1 C2.6,68.7 0.8,70.9 0.8,73.5 C0.8,76.6 3.3,79.1 6.4,79.1 C9.1,79.1 11.3,77.2 11.8,74.8 L19.3,74.8 C19.9,77.3 22.1,79.1 24.7,79.1 C27.4,79.1 29.6,77.2 30.1,74.8 L37.6,74.8 C38.2,77.3 40.4,79.1 43,79.1 C45.7,79.1 47.9,77.2 48.4,74.8 L55.9,74.8 C56.5,77.3 58.7,79.1 61.3,79.1 C64.4,79.1 66.9,76.6 66.9,73.5 C66.9,70.4 64.4,67.9 61.3,67.9 C58.6,67.9 56.4,69.8 55.9,72.2 L48.4,72.2 C47.8,69.7 45.6,67.9 43,67.9 C40.3,67.9 38.1,69.8 37.6,72.2 L30.1,72.2 C29.5,69.7 27.3,67.9 24.7,67.9 C22,67.9 19.8,69.8 19.3,72.2 L11.8,72.2 C11.3,70.1 9.7,68.5 7.6,68 L7.6,61.4 C9.7,60.9 11.3,59.3 11.8,57.2 Z M27.6,39.7 C27.1,40.8 26,41.5 24.8,41.5 C23.6,41.5 22.5,40.7 22,39.7 C21.8,39.3 21.7,38.9 21.7,38.5 C21.7,38.1 21.8,37.6 22,37.3 C22.5,36.2 23.6,35.5 24.8,35.5 C26,35.5 27.1,36.3 27.6,37.3 C27.8,37.7 27.9,38.1 27.9,38.5 C27.9,38.9 27.8,39.3 27.6,39.7 Z M46,39.7 C45.5,40.8 44.4,41.5 43.2,41.5 C42,41.5 40.9,40.7 40.4,39.7 C40.2,39.3 40.1,38.9 40.1,38.5 C40.1,38.1 40.2,37.6 40.4,37.3 C40.9,36.2 42,35.5 43.2,35.5 C44.4,35.5 45.5,36.3 46,37.3 C46.2,37.7 46.3,38.1 46.3,38.5 C46.3,38.9 46.2,39.3 46,39.7 Z M58.8,39.7 C58.6,39.3 58.5,38.9 58.5,38.5 C58.5,38.1 58.6,37.6 58.8,37.3 C59.3,36.2 60.4,35.5 61.6,35.5 C63.3,35.5 64.7,36.9 64.7,38.6 C64.7,39.9 63.9,40.9 62.9,41.4 C62.5,41.6 62.1,41.7 61.7,41.7 C61.3,41.7 60.8,41.6 60.5,41.4 C59.7,40.9 59.1,40.4 58.8,39.7 Z M58.8,54.7 C59.1,54 59.7,53.4 60.4,53.1 C60.8,52.9 61.2,52.8 61.6,52.8 C62,52.8 62.5,52.9 62.8,53.1 C63.9,53.6 64.6,54.7 64.6,55.9 C64.6,57.6 63.2,59 61.5,59 C60.2,59 59.2,58.2 58.7,57.2 C58.5,56.8 58.4,56.4 58.4,56 C58.4,55.6 58.6,55.1 58.8,54.7 Z M40.4,54.7 C40.9,53.6 42,52.9 43.2,52.9 C44.5,52.9 45.5,53.7 46,54.7 C46.2,55.1 46.3,55.5 46.3,55.9 C46.3,56.3 46.2,56.8 46,57.1 C45.5,58.2 44.4,58.9 43.2,58.9 C41.9,58.9 40.9,58.1 40.4,57.1 C40.2,56.7 40.1,56.3 40.1,55.9 C40.1,55.5 40.2,55.1 40.4,54.7 Z M22,54.7 C22.5,53.6 23.6,52.9 24.8,52.9 C26.1,52.9 27.1,53.7 27.6,54.7 C27.8,55.1 27.9,55.5 27.9,55.9 C27.9,56.3 27.8,56.8 27.6,57.1 C27.1,58.2 26,58.9 24.8,58.9 C23.5,58.9 22.5,58.1 22,57.1 C21.8,56.7 21.7,56.3 21.7,55.9 C21.7,55.5 21.8,55.1 22,54.7 Z M58.8,72.3 C59.3,71.2 60.4,70.5 61.6,70.5 C63.3,70.5 64.7,71.9 64.7,73.6 C64.7,75.3 63.3,76.7 61.6,76.7 C60.3,76.7 59.3,75.9 58.8,74.9 C58.6,74.5 58.5,74.1 58.5,73.7 C58.5,73.3 58.6,72.6 58.8,72.3 Z M40.4,72.3 C40.9,71.2 42,70.5 43.2,70.5 C44.5,70.5 45.5,71.3 46,72.3 C46.2,72.7 46.3,73.1 46.3,73.5 C46.3,73.9 46.2,74.4 46,74.7 C45.5,75.8 44.4,76.5 43.2,76.5 C41.9,76.5 40.9,75.7 40.4,74.7 C40.2,74.3 40.1,73.9 40.1,73.5 C40.1,73.1 40.2,72.6 40.4,72.3 Z M22,72.3 C22.5,71.2 23.6,70.5 24.8,70.5 C26.1,70.5 27.1,71.3 27.6,72.3 C27.8,72.7 27.9,73.1 27.9,73.5 C27.9,73.9 27.8,74.4 27.6,74.7 C27.1,75.8 26,76.5 24.8,76.5 C23.5,76.5 22.5,75.7 22,74.7 C21.8,74.3 21.7,73.9 21.7,73.5 C21.7,73.1 21.8,72.6 22,72.3 Z M9.2,72.3 C9.4,72.7 9.5,73.1 9.5,73.5 C9.5,73.9 9.4,74.4 9.2,74.7 C8.7,75.8 7.6,76.5 6.4,76.5 C4.7,76.5 3.3,75.1 3.3,73.4 C3.3,72.1 4.1,71.1 5.1,70.6 C5.5,70.4 5.9,70.3 6.3,70.3 C6.7,70.3 7.2,70.4 7.5,70.6 C8.3,71 8.9,71.6 9.2,72.3 Z M6.4,59.1 C6,59.1 5.5,59 5.2,58.8 C4.1,58.3 3.4,57.2 3.4,56 C3.4,54.3 4.8,52.9 6.5,52.9 C7.8,52.9 8.8,53.7 9.3,54.7 C9.5,55.1 9.6,55.5 9.6,55.9 C9.6,56.3 9.5,56.8 9.3,57.1 C9,57.8 8.4,58.4 7.7,58.7 C7.2,59 6.8,59.1 6.4,59.1 Z" id="Shape" fill-rule="nonzero"></path>
                <path d="M26,11.1 L35,11.1 C35.7,11.1 36.2,10.5 36.2,9.9 C36.2,9.3 35.6,8.7 35,8.7 L26,8.7 C25.3,8.7 24.8,9.3 24.8,9.9 C24.8,10.5 25.3,11.1 26,11.1 Z" id="Path"></path>
                <path d="M26,17.4 L43.2,17.4 C43.9,17.4 44.4,16.8 44.4,16.2 C44.4,15.6 43.8,15 43.2,15 L26,15 C25.3,15 24.8,15.6 24.8,16.2 C24.8,16.8 25.3,17.4 26,17.4 Z" id="Path"></path>
                <path d="M27.4,25.2 L30.2,25.2 C29.9,27 29.5,28.4 29,29 C28.7,29.4 28.6,29.9 28.9,30.4 C29.1,30.8 29.5,31.1 30,31.1 L30.1,31.1 C30.5,31.1 38.2,30.3 40.3,25.2 L41.7,25.2 C47.5,25.2 52.2,20.5 52.2,14.7 L52.2,11.4 C52.2,5.6 47.5,0.9 41.7,0.9 L27.4,0.9 C21.6,0.9 16.9,5.6 16.9,11.4 L16.9,14.7 C17,20.5 21.7,25.2 27.4,25.2 Z M19.3,11.4 C19.3,7 23.1,3.4 27.5,3.4 L41.8,3.4 C46.2,3.4 49.8,7 49.8,11.4 L49.8,14.7 C49.8,19.1 46.2,22.7 41.8,22.7 L39.5,22.7 C38.9,22.7 38.4,23.1 38.3,23.7 C37.7,26.4 34.5,27.7 32.2,28.2 C32.6,26.9 32.8,25.4 33,24.1 C33,23.7 32.9,23.4 32.7,23.1 C32.5,22.8 32.1,22.7 31.8,22.7 L27.6,22.7 C23.2,22.7 19.3,19.1 19.3,14.7 L19.3,11.4 Z" id="Shape" fill-rule="nonzero"></path>
            </g>
        </g>
    </g>
</svg>