<?xml version="1.0" encoding="UTF-8"?>
<svg width="90px" height="90px" viewBox="0 0 90 90" version="1.1" xmlns="http://www.w3.org/2000/svg" xmlns:xlink="http://www.w3.org/1999/xlink">
    <!-- Generator: Sketch 52.6 (67491) - http://www.bohemiancoding.com/sketch -->
    <title>Competitive analysis</title>
    <desc>Created with Sketch.</desc>
    <g id="Competitive-analysis" stroke="none" stroke-width="1" fill="none" fill-rule="evenodd">
        <g id="noun_Card-sorting_229077" transform="translate(11.000000, 12.000000)" fill="#000000">
            <path d="M1.8,32.8 C1.1,32.8 0.6,33.4 0.6,34 C0.6,34.7 1.2,35.2 1.8,35.2 L32.8,35.2 L32.8,32.7 L1.8,32.7 L1.8,32.8 Z" id="Path"></path>
            <path d="M66.2,32.8 L35.3,32.8 L35.3,35.3 L66.2,35.3 C66.9,35.3 67.4,34.7 67.4,34.1 C67.4,33.3 66.9,32.8 66.2,32.8 Z" id="Path"></path>
            <path d="M32.8,65.8 C32.8,66.5 33.4,67 34,67 C34.7,67 35.2,66.4 35.2,65.8 L35.2,35.3 L32.7,35.3 L32.7,65.8 L32.8,65.8 Z" id="Path"></path>
            <path d="M35.3,2.2 C35.3,1.5 34.7,1 34.1,1 C33.4,1 32.9,1.6 32.9,2.2 L32.9,32.8 L35.4,32.8 L35.4,2.2 L35.3,2.2 Z" id="Path"></path>
            <rect id="Rectangle" x="32.8" y="32.8" width="2.5" height="2.5"></rect>
            <path d="M1.8,28.2 L11.5,28.2 C12.2,28.2 12.7,27.6 12.7,27 L12.7,17.3 C12.7,16.6 12.1,16.1 11.5,16.1 L1.8,16.1 C1.1,16.1 0.6,16.7 0.6,17.3 L0.6,27 C0.6,27.7 1.1,28.2 1.8,28.2 Z M3.1,18.6 L10.3,18.6 L10.3,25.8 L3.1,25.8 L3.1,18.6 Z" id="Shape" fill-rule="nonzero"></path>
            <path d="M17.3,28.2 L27,28.2 C27.7,28.2 28.2,27.6 28.2,27 L28.2,17.3 C28.2,16.6 27.6,16.1 27,16.1 L17.3,16.1 C16.6,16.1 16.1,16.7 16.1,17.3 L16.1,27 C16,27.7 16.6,28.2 17.3,28.2 Z M18.5,18.6 L25.7,18.6 L25.7,25.8 L18.5,25.8 L18.5,18.6 Z" id="Shape" fill-rule="nonzero"></path>
            <path d="M1.8,13.1 L11.5,13.1 C12.2,13.1 12.7,12.5 12.7,11.9 L12.7,2.2 C12.7,1.5 12.1,1 11.5,1 L1.8,1 C1.1,1 0.6,1.6 0.6,2.2 L0.6,11.9 C0.6,12.5 1.1,13.1 1.8,13.1 Z M3.1,3.4 L10.3,3.4 L10.3,10.6 L3.1,10.6 L3.1,3.4 Z" id="Shape" fill-rule="nonzero"></path>
            <path d="M17.3,13.1 L27,13.1 C27.7,13.1 28.2,12.5 28.2,11.9 L28.2,2.2 C28.2,1.5 27.6,1 27,1 L17.3,1 C16.6,1 16.1,1.6 16.1,2.2 L16.1,11.9 C16,12.5 16.6,13.1 17.3,13.1 Z M18.5,3.4 L25.7,3.4 L25.7,10.6 L18.5,10.6 L18.5,3.4 Z" id="Shape" fill-rule="nonzero"></path>
            <path d="M41.1,28.2 L50.8,28.2 C51.5,28.2 52,27.6 52,27 L52,17.3 C52,16.6 51.4,16.1 50.8,16.1 L41.1,16.1 C40.4,16.1 39.9,16.7 39.9,17.3 L39.9,27 C39.8,27.7 40.4,28.2 41.1,28.2 Z M42.3,18.6 L49.5,18.6 L49.5,25.8 L42.3,25.8 L42.3,18.6 Z" id="Shape" fill-rule="nonzero"></path>
            <path d="M41.1,13.1 L50.8,13.1 C51.5,13.1 52,12.5 52,11.9 L52,2.2 C52,1.5 51.4,1 50.8,1 L41.1,1 C40.4,1 39.9,1.6 39.9,2.2 L39.9,11.9 C39.8,12.5 40.4,13.1 41.1,13.1 Z M42.3,3.4 L49.5,3.4 L49.5,10.6 L42.3,10.6 L42.3,3.4 Z" id="Shape" fill-rule="nonzero"></path>
            <path d="M66.2,0.9 L56.5,0.9 C55.8,0.9 55.3,1.5 55.3,2.1 L55.3,11.8 C55.3,12.5 55.9,13 56.5,13 L66.2,13 C66.9,13 67.4,12.4 67.4,11.8 L67.4,2.1 C67.4,1.5 66.9,0.9 66.2,0.9 Z M64.9,10.6 L57.7,10.6 L57.7,3.4 L64.9,3.4 L64.9,10.6 Z" id="Shape" fill-rule="nonzero"></path>
            <path d="M66.2,54.9 L56.5,54.9 C55.8,54.9 55.3,55.5 55.3,56.1 L55.3,65.8 C55.3,66.5 55.9,67 56.5,67 L66.2,67 C66.9,67 67.4,66.4 67.4,65.8 L67.4,56.1 C67.4,55.5 66.9,54.9 66.2,54.9 Z M64.9,64.6 L57.7,64.6 L57.7,57.4 L64.9,57.4 L64.9,64.6 Z" id="Shape" fill-rule="nonzero"></path>
            <path d="M11.5,39.8 L1.8,39.8 C1.1,39.8 0.6,40.4 0.6,41 L0.6,50.7 C0.6,51.4 1.2,51.9 1.8,51.9 L11.5,51.9 C12.2,51.9 12.7,51.3 12.7,50.7 L12.7,41 C12.7,40.3 12.2,39.8 11.5,39.8 Z M10.2,49.4 L3,49.4 L3,42.2 L10.2,42.2 L10.2,49.4 Z" id="Shape" fill-rule="nonzero"></path>
            <path d="M26.9,39.8 L17.2,39.8 C16.5,39.8 16,40.4 16,41 L16,50.7 C16,51.4 16.6,51.9 17.2,51.9 L26.9,51.9 C27.6,51.9 28.1,51.3 28.1,50.7 L28.1,41 C28.2,40.3 27.6,39.8 26.9,39.8 Z M25.7,49.4 L18.5,49.4 L18.5,42.2 L25.7,42.2 L25.7,49.4 Z" id="Shape" fill-rule="nonzero"></path>
            <path d="M50.7,54.9 L41,54.9 C40.3,54.9 39.8,55.5 39.8,56.1 L39.8,65.8 C39.8,66.5 40.4,67 41,67 L50.7,67 C51.4,67 51.9,66.4 51.9,65.8 L51.9,56.1 C52,55.5 51.4,54.9 50.7,54.9 Z M49.5,64.6 L42.3,64.6 L42.3,57.4 L49.5,57.4 L49.5,64.6 Z" id="Shape" fill-rule="nonzero"></path>
            <path d="M50.7,39.8 L41,39.8 C40.3,39.8 39.8,40.4 39.8,41 L39.8,50.7 C39.8,51.4 40.4,51.9 41,51.9 L50.7,51.9 C51.4,51.9 51.9,51.3 51.9,50.7 L51.9,41 C52,40.3 51.4,39.8 50.7,39.8 Z M49.5,49.4 L42.3,49.4 L42.3,42.2 L49.5,42.2 L49.5,49.4 Z" id="Shape" fill-rule="nonzero"></path>
            <path d="M66.2,39.8 L56.5,39.8 C55.8,39.8 55.3,40.4 55.3,41 L55.3,50.7 C55.3,51.4 55.9,51.9 56.5,51.9 L66.2,51.9 C66.9,51.9 67.4,51.3 67.4,50.7 L67.4,41 C67.4,40.3 66.9,39.8 66.2,39.8 Z M64.9,49.4 L57.7,49.4 L57.7,42.2 L64.9,42.2 L64.9,49.4 Z" id="Shape" fill-rule="nonzero"></path>
        </g>
    </g>
</svg>