<?xml version="1.0" encoding="UTF-8"?>
<svg width="90px" height="90px" viewBox="0 0 90 90" version="1.1" xmlns="http://www.w3.org/2000/svg" xmlns:xlink="http://www.w3.org/1999/xlink">
    <!-- Generator: Sketch 52.6 (67491) - http://www.bohemiancoding.com/sketch -->
    <title>Customer Journey Mapping</title>
    <desc>Created with Sketch.</desc>
    <g id="Customer-Journey-Mapping" stroke="none" stroke-width="1" fill="none" fill-rule="evenodd">
        <g id="noun_customer-journey-map_229089" transform="translate(6.000000, 12.000000)" fill="#000000">
            <g id="Group">
                <path d="M12.7,26.8 C13.4,26.8 13.9,26.2 13.9,25.5 C13.9,25.3 13.9,25 13.9,24.8 C15.9,24.2 17.4,22.4 17.4,20.3 C17.4,17.7 15.3,15.5 12.6,15.5 C10,15.5 7.8,17.6 7.8,20.3 C7.8,22.5 9.3,24.3 11.3,24.9 C11.3,25.2 11.3,25.4 11.4,25.7 C11.4,26.3 11.9,26.8 12.7,26.8 C12.6,26.8 12.6,26.8 12.7,26.8 Z M12.5,17.9 C13.7,17.9 14.7,18.9 14.7,20.1 C14.7,21.3 13.7,22.3 12.5,22.3 C11.3,22.3 10.3,21.3 10.3,20.1 C10.3,18.9 11.2,17.9 12.5,17.9 Z" id="Shape" fill-rule="nonzero"></path>
                <path d="M15,33.1 C14.7,32.3 14.5,31.3 14.4,30.3 C14.3,29.6 13.6,29.2 13,29.3 C12.3,29.4 11.9,30.1 12,30.7 C12.2,31.8 12.4,32.9 12.7,33.8 C12.9,34.3 13.4,34.7 13.9,34.7 C14,34.7 14.1,34.7 14.3,34.6 C14.9,34.4 15.2,33.7 15,33.1 Z" id="Path"></path>
                <path d="M19.1,38.1 C18.4,37.9 17.7,37.5 17.1,36.9 C16.6,36.4 15.8,36.4 15.3,36.9 C14.8,37.4 14.8,38.2 15.3,38.7 C16.2,39.6 17.3,40.2 18.4,40.5 C18.5,40.5 18.6,40.5 18.7,40.5 C19.3,40.5 19.8,40.1 19.9,39.6 C20.1,39 19.7,38.3 19.1,38.1 Z" id="Path"></path>
                <path d="M38.1,24.8 C37.6,24.3 36.8,24.4 36.3,24.9 C35.7,25.5 35.1,26.3 34.3,27.2 C33.9,27.7 33.9,28.5 34.5,29 C34.7,29.2 35,29.3 35.3,29.3 C35.7,29.3 36,29.1 36.3,28.9 C37.1,28 37.7,27.3 38.2,26.7 C38.6,26.1 38.6,25.3 38.1,24.8 Z" id="Path"></path>
                <path d="M31.1,31 C30.4,31.9 29.7,32.6 29.1,33.2 C28.6,33.7 28.6,34.5 29.1,35 C29.3,35.2 29.7,35.3 30,35.3 C30.3,35.3 30.7,35.2 30.9,34.9 C31.5,34.2 32.2,33.5 33,32.6 C33.4,32.1 33.4,31.3 32.9,30.8 C32.3,30.4 31.6,30.5 31.1,31 Z" id="Path"></path>
                <path d="M49.1,20 C48.5,19.7 47.7,19.9 47.4,20.6 C47.1,21.2 47.3,22 48,22.3 C48.6,22.6 49.2,23.2 49.7,23.9 C49.9,24.3 50.3,24.5 50.7,24.5 C50.9,24.5 51.2,24.4 51.4,24.3 C52,23.9 52.1,23.2 51.8,22.6 C51,21.3 50.1,20.5 49.1,20 Z" id="Path"></path>
                <path d="M60,44.6 C60,43.9 59.4,43.4 58.8,43.4 L57.9,43.4 L57.9,40.9 C57.9,40.2 57.3,39.7 56.7,39.7 C56.1,39.7 55.5,40.3 55.5,40.9 L55.5,44.6 C55.5,45.3 56.1,45.9 56.7,45.9 L58.8,45.9 C59.4,45.8 60,45.3 60,44.6 Z" id="Path"></path>
                <path d="M66.9,27.4 L66.9,2 C66.9,1.6 66.7,1.2 66.3,1 C66,0.8 65.5,0.7 65.1,0.9 L44.3,9.7 L23.5,0.9 C23.5,0.9 23.5,0.9 23.5,0.9 C23.5,0.9 23.4,0.9 23.3,0.9 C23.3,0.9 23.2,0.9 23.2,0.9 C23.1,0.9 23.1,0.9 23,0.9 C22.9,0.9 22.9,0.9 22.8,0.9 C22.8,0.9 22.7,0.9 22.7,0.9 C22.6,0.9 22.6,0.9 22.5,0.9 C22.5,0.9 22.5,0.9 22.5,0.9 L1.2,9.9 C0.7,10.1 0.4,10.5 0.4,11.1 L0.4,55.3 C0.4,55.7 0.6,56.1 1,56.3 C1.2,56.4 1.4,56.5 1.7,56.5 C1.9,56.5 2,56.5 2.2,56.4 L23,47.6 L39.9,54.7 C43.3,60.9 49.9,65.2 57.5,65.2 C68.6,65.2 77.6,56.2 77.6,45.1 C77.6,37.5 73.3,30.8 66.9,27.4 Z M45.6,11.9 L64.4,4 L64.4,26.4 C62.3,25.6 59.9,25.2 57.5,25.2 C53,25.2 48.9,26.7 45.5,29.2 L45.5,11.9 L45.6,11.9 Z M55.2,50.6 C54.7,50.4 54.2,50.1 53.8,49.8 C53.4,49.5 53,49.2 52.8,49 C52.9,48.2 52.8,47.2 52.4,46.1 C51.7,44.1 51.4,42.7 51.5,40.9 C51.8,38.2 54.4,35.8 57.3,35.8 L57.4,35.8 C60.3,35.8 63,38.1 63.2,40.9 C63.4,42.7 63,44.1 62.3,46.1 C62.3,46.1 62.3,46.1 62.3,46.1 C62.1,46.6 62,47.1 61.9,47.6 C61.8,48.1 61.8,48.5 61.9,49 C61.9,49 61.9,49 61.9,49 C60.4,50.4 58.8,51 57.2,51 C57.1,51 57.1,51 57,51 C56.6,51.1 55.9,50.9 55.2,50.6 Z M44.1,56.4 C44.1,56.4 44,56.3 44,56.3 C44,56.2 44.1,56.1 44.1,56.1 C44.4,55.6 44.8,55.2 45.3,54.8 C45.4,54.7 45.5,54.7 45.5,54.6 C46.5,53.9 47.7,53.3 48.9,52.8 C49.5,52.5 50.1,52.2 50.7,51.9 C51,51.7 51.3,51.5 51.5,51.3 C51.7,51.5 52,51.7 52.2,51.8 C52.6,52.1 53,52.3 53.5,52.6 C54.5,53.1 55.8,53.5 57.2,53.6 C57.3,53.6 57.3,53.6 57.4,53.6 C59.4,53.6 61.4,52.8 63.2,51.3 C63.4,51.5 63.7,51.7 64,51.9 C64.6,52.2 65.2,52.5 65.8,52.8 C67.7,53.7 69.6,54.6 70.6,56.1 C70.7,56.2 70.7,56.3 70.8,56.4 C67.6,60.2 62.7,62.7 57.3,62.7 C52.2,62.7 47.3,60.3 44.1,56.4 C44.1,56.5 44.1,56.4 44.1,56.4 Z M72.5,54.2 C71.1,52.4 69,51.4 67,50.5 C66.4,50.2 65.8,50 65.3,49.7 C64.8,49.4 64.4,49.1 64.5,48 C64.5,47.7 64.6,47.4 64.8,47 C64.9,46.8 64.9,46.7 65,46.5 C65.3,45.7 65.5,45 65.6,44.3 C65.8,43.1 65.9,42 65.8,40.7 C65.8,40.3 65.7,40 65.6,39.6 C65.4,38.6 64.9,37.8 64.4,37 C62.9,34.9 60.3,33.4 57.5,33.4 L57.4,33.4 C55.7,33.4 54.1,33.9 52.7,34.9 C51.9,35.5 51.1,36.2 50.5,37 C49.7,38.1 49.2,39.4 49,40.8 C48.7,43.3 49.3,45.2 50,47.1 C50.7,49 50.1,49.5 49.5,49.8 C49,50.1 48.4,50.3 47.8,50.6 C47.1,51 46.3,51.3 45.5,51.7 C45.1,51.9 44.7,52.2 44.3,52.5 C43.9,52.8 43.4,53.1 43.1,53.5 C42.9,53.7 42.7,53.9 42.5,54.2 C42.2,53.8 42,53.3 41.8,52.9 C40.7,50.6 40,48 40,45.3 C40,41.6 41.1,38.2 43.1,35.4 C43.5,34.8 43.9,34.3 44.3,33.8 C44.7,33.3 45.1,32.9 45.5,32.5 C47.1,31 49,29.8 51.1,29 C51.9,28.7 52.7,28.4 53.5,28.2 C54.8,27.9 56.1,27.7 57.5,27.7 C59.9,27.7 62.3,28.2 64.4,29.1 C64.8,29.3 65.2,29.5 65.6,29.7 C66,29.9 66.4,30.2 66.8,30.4 C71.7,33.5 75,39 75,45.2 C75.1,48.5 74.2,51.6 72.5,54.2 Z M24.2,45.4 L24.2,39.9 C25.1,39.5 26,39 27,38.4 C27.6,38 27.7,37.2 27.3,36.7 C26.9,36.1 26.1,36 25.6,36.4 C25.1,36.7 24.7,37 24.3,37.2 L24.3,3.9 L43.1,11.8 L43.1,19.8 C42.2,20.1 41.2,20.6 40.3,21.3 C39.7,21.7 39.6,22.5 40,23 C40.2,23.4 40.6,23.5 41,23.5 C41.2,23.5 41.5,23.4 41.7,23.3 C42.2,23 42.6,22.7 43.1,22.5 L43.1,31.2 C39.6,34.8 37.5,39.7 37.5,45.1 C37.5,47.3 37.9,49.4 38.5,51.4 L24.2,45.4 Z M2.9,11.9 L21.7,4 L21.7,45.5 L2.9,53.4 L2.9,11.9 Z" id="Shape" fill-rule="nonzero"></path>
            </g>
        </g>
    </g>
</svg>