<?xml version="1.0" encoding="UTF-8"?>
<svg width="90px" height="90px" viewBox="0 0 90 90" version="1.1" xmlns="http://www.w3.org/2000/svg" xmlns:xlink="http://www.w3.org/1999/xlink">
    <!-- Generator: Sketch 52.6 (67491) - http://www.bohemiancoding.com/sketch -->
    <title>Delivery</title>
    <desc>Created with Sketch.</desc>
    <g id="Delivery" stroke="none" stroke-width="1" fill="none" fill-rule="evenodd">
        <g id="noun_Protest_402077" transform="translate(7.000000, 12.000000)">
            <path d="M69.876236,22.5873871 C64.0332718,23.3397331 59.2371521,23.1125336 54.8686219,21.8562851 C52.5237008,21.1818695 50.4149857,19.9144898 48.1820489,18.5726929 C45.5604936,16.9971047 42.8499452,15.3681984 39.7028009,14.7658539 C33.027363,13.4902687 27.5159608,15.8832398 23.0035821,18.392807 C22.5056096,18.6705437 21.4322454,19.3889008 20.2808057,20.1939812 C20.9815866,18.7127304 21.7233106,17.2226906 22.3123227,16.0396843 L22.4294377,15.8041382 C26.1642037,8.3017941 38.5567818,2.8748398 47.9229203,4.6402702 C49.3544389,4.9098014 50.7952576,5.3152694 52.3204537,5.7447624 C55.772873,6.7168331 59.3428422,7.7211284 63.0864716,7.1732769 C67.6939164,6.4972515 71.7091217,4.051403 75.5801926,1.6035023 L69.876236,22.5873871 Z" id="Path" fill="#FFFE2A"></path>
            <path d="M52.150528,42.4918327 C55.1728669,42.4918327 57.6320496,40.0326538 57.6320496,37.0097999 C57.6320496,33.9869499 55.1728669,31.5277709 52.150528,31.5277709 C49.1277543,31.5277709 46.6684266,33.9869498 46.6684266,37.0097999 C46.6684265,40.0326538 49.1277542,42.4918327 52.150528,42.4918327 Z M52.150528,33.9277687 C53.8497468,33.9277687 55.2320481,35.3105812 55.2320481,37.0097999 C55.2320481,38.7090186 53.8497468,40.0918311 52.150528,40.0918311 C50.4513131,40.0918311 49.0684281,38.7090186 49.0684281,37.0097999 C49.0684281,35.3105812 50.451313,33.9277687 52.150528,33.9277687 Z" id="Shape" fill="#000000" fill-rule="nonzero"></path>
            <path d="M15.52248,42.4918327 C18.5452576,42.4918327 21.0044365,40.0326538 21.0044365,37.0097999 C21.0044365,33.9869499 18.5452576,31.5277709 15.52248,31.5277709 C12.4995556,31.5277709 10.0403747,33.9869498 10.0403747,37.0097999 C10.0403748,40.0326538 12.4995556,42.4918327 15.52248,42.4918327 Z M15.52248,33.9277687 C17.2216244,33.9277687 18.6044369,35.3105812 18.6044369,37.0097999 C18.6044369,38.7090186 17.2216244,40.0918311 15.52248,40.0918311 C13.8231144,40.0918311 12.4403744,38.7090186 12.4403744,37.0097999 C12.4403744,35.3105812 13.8231144,33.9277687 15.52248,33.9277687 Z" id="Shape" fill="#000000" fill-rule="nonzero"></path>
            <path d="M74.8479156,0.8340206 C74.5170822,0.7426128 74.1858062,0.8029651 73.9156951,0.9662952 C73.8677901,0.9878292 73.8157882,0.99193 73.7698669,1.0203476 C73.1288528,1.416441 72.4836578,1.8248406 71.8322448,2.2379265 C68.0078277,4.6601925 64.0531921,7.1656609 59.7383498,7.7990589 C56.4999465,8.2736683 53.1817778,7.3385124 49.9708442,6.4344101 C48.4627151,6.0096054 46.9028014,5.5707378 45.3672065,5.2812862 C34.8928413,3.3084335 21.5065879,9.2445659 17.2808055,17.7348022 L17.1635436,17.9703483 C15.9781932,20.3521842 14.186468,23.9515991 13.2771663,26.3691749 C13.0866641,26.8754272 13.2582702,27.4461288 13.6966247,27.7637061 C14.1343212,28.0806998 14.7302188,28.0660514 15.1521663,27.7267913 C16.4944763,26.6480827 20.263153,23.9955444 21.1702575,23.4904632 C25.3070487,21.1906585 30.3336601,18.9945678 36.2517051,20.1236686 C38.9798278,20.645153 41.392208,22.0947608 43.9456481,23.6299171 C46.2131537,24.9922218 48.5580749,26.4014015 51.2054137,27.1625366 C54.1438903,28.0074577 57.2381514,28.426403 60.6578292,28.426403 C62.4093474,28.426403 64.2490386,28.3140487 66.1945037,28.0951995 L60.841301,47.7887039 C60.2732392,47.8519897 59.6689148,47.9924698 59.0265046,48.2310867 C57.7046357,48.7221069 56.440178,49.330307 55.2173997,49.9174194 L54.9742356,50.033432 C54.7131272,47.141243 52.6939164,44.5771828 49.7294388,43.7826538 C47.8983116,43.2916374 45.9794388,43.5453491 44.3265076,44.5004272 C42.867817,45.3424148 41.808075,46.6527175 41.2326126,48.2138061 C41.2133484,48.2208328 41.1957703,48.2237625 41.1765098,48.2310867 C39.8546333,48.7221069 38.5901794,49.330307 37.3674011,49.9174194 L36.7597122,50.2073135 C36.5659866,47.2443695 34.5231132,44.5931511 31.499752,43.7826538 C29.668621,43.2922211 27.749752,43.5465202 26.0962333,44.5004272 C24.6937942,45.3100433 23.6610793,46.5532608 23.0697212,48.0342178 C22.8572464,48.0954437 22.64748,48.1490554 22.4265098,48.2310867 C21.1046333,48.7221069 19.8401794,49.330307 18.6174011,49.9174194 L18.3476505,50.0460281 C18.0915222,47.1485672 16.0707702,44.5783538 13.1019726,43.7826538 C9.3078804,42.7625351 5.3922062,45.0254288 4.3720894,48.833435 L0.8007269,62.7939834 C0.6366644,63.4361648 1.0239687,64.0900726 1.6655703,64.2541351 C2.3089295,64.41996 2.9610787,64.0303116 3.1257267,63.3892898 L4.7514095,57.0342178 C5.0031433,57.7534561 5.3325138,58.44281 5.779438,59.0557022 C6.8505306,60.5234756 8.3698673,61.3742523 10.2952575,61.5846023 C10.4633483,61.6027679 10.6397895,61.611557 10.8236999,61.611557 C11.5509223,61.611557 12.4017028,61.4612656 13.3095397,61.2260132 L12.8915462,62.7799149 C12.7192821,63.4197617 13.0989685,64.0783539 13.7388134,64.250618 C13.8430367,64.2787476 13.9479198,64.2922211 14.0511169,64.2922211 C14.5808048,64.2916336 15.0653743,63.9389038 15.2095165,63.4033585 L16.0362739,60.3292313 C17.4858093,59.7662964 18.9620056,59.0845566 20.3212356,58.4036942 L19.1979198,62.7939835 C19.0339298,63.4361649 19.4212341,64.0900727 20.0629081,64.2541352 C20.7056083,64.4199601 21.35783,64.0303117 21.5229186,63.3892899 L21.599163,63.0916367 L23.1847839,56.8938828 C23.2616157,56.8514023 23.3301696,56.812439 23.404438,56.7711258 C23.6638603,57.5870438 24.027729,58.3675156 24.529438,59.0557022 C25.6005325,60.5234756 27.1198692,61.3742523 29.0452575,61.5846023 C29.2133483,61.6027679 29.3897895,61.611557 29.5736999,61.611557 C30.2029228,61.611557 30.9219436,61.5031586 31.6913528,61.3226929 L31.3005333,62.7810898 C31.27248,62.8856812 31.2808304,62.9882202 31.2809753,63.0916367 C31.2815628,63.6207352 31.6131286,64.1069184 32.1489677,64.250618 C32.2527542,64.2787476 32.3576355,64.2922211 32.460102,64.2922211 C32.989788,64.2916336 33.474945,63.9383164 33.6184272,63.4021836 L34.4033622,60.4733735 C35.7634696,59.9640504 37.1623954,59.3404618 38.4759216,58.6990128 L37.4281921,62.7939835 C37.2642021,63.4361649 37.6515083,64.0900727 38.2930374,64.2541352 C38.93647,64.4199601 39.5879593,64.0303117 39.7531929,63.3892899 L39.8294373,63.0916367 L41.3304635,57.2242051 C41.3557321,57.210579 41.3812219,57.1968156 41.4061967,57.1830445 C41.651703,57.847786 41.9636422,58.4852906 42.3794366,59.0557023 C43.4505311,60.5234757 44.9698678,61.3742524 46.89526,61.5846024 C47.0633508,61.602768 47.2397882,61.6115571 47.4237024,61.6115571 C48.1617624,61.6115571 49.0270464,61.4568711 49.9504816,61.2151719 L49.5308039,62.7810899 C49.5027544,62.8856813 49.5111048,62.9882203 49.5112498,63.0916368 C49.5118373,63.6207353 49.8434031,64.1069185 50.3792422,64.2506181 C50.4828799,64.2787477 50.58791,64.2922212 50.6903765,64.2922212 C51.2200625,64.2916337 51.7052195,63.9383165 51.8487017,63.4021837 L52.6762621,60.3142931 C54.555588,59.5815813 56.4806063,58.6490557 58.1234285,57.7880251 L57.3924028,60.4771807 C57.2182314,61.11644 57.5956499,61.7762072 58.235489,61.9496462 C58.3409578,61.9783556 58.4464265,61.9924166 58.550728,61.9924166 C59.079239,61.9924166 59.5627138,61.6408541 59.7078783,61.1064837 L61.0471117,56.1802142 C61.7757265,55.7593615 62.2552416,55.4680026 62.3411562,55.4152682 C63.8710405,54.4812854 65.9188921,52.1674197 64.9023592,49.9344104 C64.5213549,49.0973972 63.948311,48.5050128 63.2307589,48.1464236 L68.9813693,26.9908564 L68.9829028,26.9848483 L75.6911548,2.3064807 C75.865181,1.667223 75.4879074,1.0074577 74.8479156,0.8340206 Z M25.2198906,52.7923203 C24.9920349,53.0129242 24.7422791,53.2130204 24.4895935,53.3674164 C24.3524132,53.45121 24.2022667,53.539978 24.0574646,53.6268387 C24.0429649,53.6356278 24.0286827,53.6441269 24.0140343,53.652916 C23.6626892,53.8628312 23.2973595,54.0778656 22.9082222,54.3005219 C22.7948418,54.3652726 22.6756783,54.4313355 22.5595169,54.496811 C22.0958214,54.7584306 21.6155701,55.0238648 21.1178169,55.2904664 C19.7358837,56.0309449 18.2543392,56.7681962 16.8232612,57.4035035 C15.8533153,57.8341676 14.9102477,58.2151719 14.0385188,58.5160523 C12.609785,59.0088273 11.374628,59.2877274 10.5554141,59.1986695 C9.3138122,59.0633164 8.3862742,58.5547257 7.7212352,57.6447602 C5.9806346,55.2632218 6.490179,50.9753266 6.692768,49.6883164 C6.7292422,49.457161 6.7567805,49.3109742 6.7584666,49.3027726 C6.7608832,49.2910538 6.7565612,49.2805024 6.7584666,49.2687836 C7.1105403,48.1351395 7.8565863,47.1807938 8.8989695,46.578743 C9.9970892,45.946518 11.2684267,45.7765961 12.4808043,46.1006241 C14.7396677,46.7064819 16.1640814,48.8603897 15.947357,51.1141968 C15.7319525,51.2032547 15.5208681,51.3016968 15.305023,51.3898773 C14.5104921,51.7144851 13.7159613,52.0396805 12.9390085,52.4064789 C12.7043398,52.5169296 12.5415228,52.7036972 12.4236028,52.9136124 C12.2401311,53.2405625 12.1930368,53.6381226 12.3653753,54.0031586 C12.6483095,54.6031571 13.3638132,54.8586274 13.9621275,54.5767899 C14.3835638,54.3781586 14.816717,54.2061844 15.2463568,54.0258637 C15.5697211,53.8900757 15.8885439,53.7438813 16.2131537,53.611168 C16.8322695,53.3583375 17.4458197,53.0924684 18.0561465,52.8198625 C18.2268733,52.7436906 18.4024352,52.6783525 18.5716246,52.5986711 L19.656782,52.0806962 C20.5354689,51.6583863 21.3841246,51.2687379 22.2395934,50.906334 C22.4615897,50.812439 22.6836623,50.7160493 22.9080771,50.6283036 C23.0268744,50.5818711 23.1422308,50.5256196 23.2621268,50.4810868 C23.392208,50.432602 23.4963568,50.409607 23.614643,50.3725434 C23.8084411,50.3121949 23.9949149,50.2578507 24.1594924,50.2247391 C24.4522399,50.1661453 24.6969413,50.1490097 24.9078063,50.1594086 C25.0839538,50.1681977 25.2373961,50.1925125 25.365425,50.2347031 C25.8616408,50.3984757 26.0394706,50.755745 26.1178397,50.929329 C26.3224792,51.3781586 25.8622246,52.1703491 25.2198906,52.7923203 Z M43.2395935,53.3674164 C43.1931572,53.3958359 43.1405716,53.4265976 43.0930366,53.455307 C42.7964057,53.6354828 42.4804382,53.8226929 42.151802,54.0142898 C42.0854453,54.0529632 42.0183524,54.0916366 41.9507522,54.1308975 C41.5873222,54.34095 41.2120323,54.5542373 40.8200378,54.7717666 C40.7802696,54.7937393 40.7424736,54.8152694 40.7025566,54.837387 C40.2390098,55.0932998 39.7564888,55.3511123 39.2668648,55.6077499 C37.9305611,56.3088226 36.5271683,56.9926147 35.1798058,57.57621 C34.7046814,57.7821655 34.2368126,57.9768448 33.783001,58.1529159 C33.3064881,58.3376312 32.8497506,58.498764 32.4097863,58.6418838 C31.1445275,59.0530624 30.0516778,59.2796707 29.3054162,59.1986694 C28.0638123,59.0633163 27.1362725,58.5547256 26.4712335,57.6447601 C26.0287057,57.0391922 25.7381555,56.3072128 25.5446473,55.5346527 C25.6452103,55.4738617 25.7138368,55.4319687 25.7411576,55.4152679 C26.92585,54.6920776 28.4145699,53.1406631 28.5572472,51.4411468 C28.5987015,50.9457397 28.5317574,50.4383163 28.3023644,49.93441 C27.792965,48.8158568 26.9451104,48.12928 25.8557816,47.8707351 C26.2377396,47.3540878 26.7204056,46.9112624 27.2962342,46.5787429 C28.393036,45.9465179 29.6640092,45.7754287 30.8785821,46.100624 C33.1909867,46.7203979 34.6217729,48.964096 34.3189164,51.2766494 C34.2302209,51.312828 34.1437188,51.3535537 34.0550233,51.3898772 C33.2604943,51.714485 32.4659616,52.0396804 31.6890069,52.4064788 C31.454342,52.5169295 31.2915231,52.7036971 31.1736032,52.9136123 C30.9901315,53.2405624 30.9430353,53.6381225 31.1153757,54.0031585 C31.3972856,54.603157 32.1138117,54.8586273 32.7121279,54.5767898 C33.0039255,54.4392471 33.3051722,54.322792 33.6014368,54.1953506 C34.0550234,53.9999389 34.5059778,53.7983779 34.963154,53.6111679 C34.97707,53.6053085 34.9907648,53.5990066 35.0046808,53.5932999 C35.476288,53.4008179 35.9410822,53.1928101 36.4085886,52.9906617 C36.7126886,52.8591157 37.0219919,52.7397309 37.3216249,52.598671 L38.4067804,52.0806961 C39.0869829,51.753746 39.7478449,51.4427566 40.4079057,51.1481781 C40.5136682,51.1010132 40.6214067,51.0614624 40.7272416,51.0154648 C41.0807801,50.8618012 41.4347611,50.7096024 41.7937928,50.5717621 C41.8564873,50.5478897 41.9169122,50.5180054 41.979683,50.4945679 C41.9905968,50.4904633 42.0011407,50.4851914 42.012127,50.4810868 C42.4570733,50.3155595 42.8139115,50.2351456 43.1298791,50.1907578 C43.160492,50.1863633 43.1938897,50.1797715 43.2234078,50.1762543 C44.4425965,50.0372391 44.7535096,50.6776734 44.8678399,50.9293289 C45.1450615,51.5375366 44.2046318,52.7779617 43.2395935,53.3674164 Z M62.0268021,52.5758133 C61.748703,52.8813858 61.4224778,53.1641007 61.089592,53.3674164 C60.4651337,53.7491532 59.7516022,54.1651688 58.9922333,54.5912934 C57.2897873,55.5465165 55.3341522,56.5555039 53.4599533,57.3895875 C52.9845428,57.6012574 52.5166702,57.7991563 52.0583954,57.9837266 C51.5835648,58.1753312 51.1206017,58.3512574 50.6766777,58.505066 C49.2334404,59.0053101 47.9845886,59.2884599 47.1554146,59.1986695 C45.9138146,59.0633164 44.9862747,58.5547257 44.3212357,57.6447602 C43.9671097,57.1601945 43.711567,56.5932999 43.5221634,55.991684 C44.0615921,55.6765976 44.4190865,55.4596558 44.4911575,55.415268 C45.5663528,54.7587281 46.8929863,53.4201508 47.2362747,51.9078446 C47.3815117,51.2681504 47.3543396,50.5979844 47.0523643,49.9344102 C46.4719924,48.6611711 45.4572944,47.9410478 44.1406936,47.7866593 C44.5132751,47.3047257 44.9806327,46.893982 45.5265083,46.578743 C46.6245536,45.946518 47.8972854,45.7765961 49.1082725,46.1006241 C51.3625907,46.705307 52.7867889,48.8516007 52.5774612,51.1013031 C52.3521652,51.1944656 52.1311187,51.2975922 51.9050254,51.3898773 C51.1104926,51.7144851 50.3159598,52.0396805 49.539009,52.4064789 C49.3043403,52.5169296 49.1415214,52.7036972 49.0236014,52.9136124 C48.8401297,53.2405625 48.7930373,53.6381226 48.9653739,54.0031586 C49.2478713,54.6031571 49.9643973,54.8586274 50.5621299,54.5767899 C50.9949149,54.3728867 51.4396438,54.1959305 51.8810004,54.0110703 C52.1928633,53.8804093 52.5001906,53.7391968 52.813156,53.611168 C52.9714278,53.5465699 53.1261138,53.4737626 53.2843169,53.4090196 C53.7554168,53.2153703 54.223503,53.0142442 54.688301,52.8060914 C54.8484038,52.7343141 55.0129851,52.6733781 55.1716231,52.5986711 L56.2567824,52.0806962 C57.4843215,51.4906617 58.6444777,50.9334336 59.8621291,50.4810868 C59.9616622,50.4438859 60.0392989,50.4283524 60.1320952,50.3980332 C61.6753081,49.894127 62.2923049,50.2833329 62.5527495,50.6407548 C62.632881,50.7506181 62.6852492,50.8571168 62.717842,50.929329 C62.8995514,51.3277664 62.5548782,51.9954453 62.0268021,52.5758133 Z M66.876236,25.5873871 C61.0332718,26.3397331 56.2371521,26.1125336 51.8686219,24.8562851 C49.5237008,24.1818695 47.4149857,22.9144898 45.1820489,21.5726929 C42.5604936,19.9971047 39.8499452,18.3681984 36.7028009,17.7658539 C30.027363,16.4902687 24.5159608,18.8832398 20.0035821,21.392807 C19.5056096,21.6705437 18.4322454,22.3889008 17.2808057,23.1939812 C17.9815866,21.7127304 18.7233106,20.2226906 19.3123227,19.0396843 L19.4294377,18.8041382 C23.1642037,11.3017941 35.5567818,5.8748398 44.9229203,7.6402702 C46.3544389,7.9098014 47.7952576,8.3152694 49.3204537,8.7447624 C52.772873,9.7168331 56.3428422,10.7211284 60.0864716,10.1732769 C64.6939164,9.4972515 68.7091217,7.051403 72.5801926,4.6035023 L66.876236,25.5873871 Z" id="Shape" fill="#000000" fill-rule="nonzero"></path>
            <path d="M33.9202576,42.4918327 C36.9430352,42.4918327 39.4023629,40.0326538 39.4023629,37.0097999 C39.4023629,33.9869499 36.9430352,31.5277709 33.9202576,31.5277709 C30.89748,31.5277709 28.4381523,33.9869498 28.4381523,37.0097999 C28.4381523,40.0326538 30.89748,42.4918327 33.9202576,42.4918327 Z M33.9202576,33.9277687 C35.6194764,33.9277687 37.0023613,35.3105812 37.0023613,37.0097999 C37.0023613,38.7090186 35.6194763,40.0918311 33.9202576,40.0918311 C32.2210389,40.0918311 30.8381539,38.7090186 30.8381539,37.0097999 C30.8381539,35.3105812 32.2210388,33.9277687 33.9202576,33.9277687 Z" id="Shape" fill="#000000" fill-rule="nonzero"></path>
        </g>
    </g>
</svg>