<?xml version="1.0" encoding="UTF-8"?>
<svg width="604px" height="188px" viewBox="0 0 604 188" version="1.1" xmlns="http://www.w3.org/2000/svg" xmlns:xlink="http://www.w3.org/1999/xlink">
    <!-- Generator: Sketch 52.6 (67491) - http://www.bohemiancoding.com/sketch -->
    <title>E.ON</title>
    <desc>Created with Sketch.</desc>
    <g id="Page-1" stroke="none" stroke-width="1" fill="none" fill-rule="evenodd">
        <g id="E.ON" fill="#EA1C0A" fill-rule="nonzero">
            <path d="M583.855503,151.783454 C580.218955,163.366131 577.198155,172.393634 575.98557,175.723382 C573.381281,182.980729 568.418887,184.006809 561.946072,184.006809 C550.330911,184.006809 541.49041,181.039281 537.186169,177.407892 C536.343316,176.648776 535.258987,175.029023 535.974,172.675221 C537.304553,168.390416 539.847317,160.700661 542.697996,151.783454 L583.855503,151.783454 Z M464.935906,151.783454 C454.347965,163.612624 446.236848,173.510374 442.728223,177.664412 C438.973248,182.135549 433.471168,183.060943 426.993354,183.060943 C419.06677,183.060943 410.534101,178.569752 409.748066,178.137345 C407.205302,176.754058 407.143735,175.210342 407.872953,171.99632 L409.984834,162.853091 C410.590919,160.212688 411.61843,156.410425 412.948983,151.793481 L464.934781,151.793481 L464.935906,151.783454 Z M382.691707,151.783454 C361.151758,184.257898 333.859213,184.006809 303.53833,184.006809 C287.022008,184.006809 250.28621,184.19899 249.798844,151.783454 L382.691707,151.783454 Z M77.1585053,151.783454 C82.4237336,155.092731 88.7170144,157.200039 95.800496,157.200039 C103.907031,157.200039 110.626029,154.730511 115.768375,151.783454 L190.14389,151.783454 C187.056608,166.458995 144.089804,188 107.783056,188 C69.7788546,188 34.3197912,173.324041 15.0750485,151.7634 L77.1622542,151.7634 L77.1585053,151.783454 Z M246.237317,96.5773169 C246.237317,101.043441 241.397805,113.32549 240.668838,115.140767 C236.250878,126.663283 224.759017,128.529112 216.58625,128.529112 C204.421656,128.529112 200.245297,123.8871 200.245297,116.549121 C200.245297,110.881029 204.724907,101.073939 205.330991,99.6304912 C210.83782,86.2922808 220.639726,84.8287792 230.322914,84.8287792 C238.552333,84.8287792 246.237733,88.4601682 246.237733,96.5773169 L246.237317,96.5773169 Z M142.032866,68.3826646 C142.032866,59.8882558 141.668383,47.7018791 135.436752,47.7018791 C115.037741,47.7018791 79.2770932,80.8004942 75.7072351,84.6027574 C73.04138,87.4190474 74.9827663,87.1926079 78.553041,87.1926079 L124.365526,87.1926079 C140.578597,87.18843 142.032366,84.2756316 142.032366,68.3826646 L142.032866,68.3826646 Z M341.370078,71.4458657 C337.127487,71.4458657 330.777555,72.1498338 327.870433,76.3694643 C317.102958,92.2219062 309.962408,131.863873 309.962408,142.872513 C309.962408,150.396407 314.924803,149.923892 321.46385,149.923892 C325.332459,149.923892 331.502357,150.028338 334.958913,146.171763 C344.46215,135.680341 352.630336,88.2165994 352.630336,79.6520027 C352.630336,73.5515031 352.199453,71.4441946 341.370078,71.4441946 L341.370078,71.4458657 Z M412.95469,151.785961 C420.033589,127.22228 436.132941,78.9576437 447.809751,50.7654981 C448.415836,49.3421039 448.955646,48.1601895 451.98611,47.667203 C453.37823,47.441599 457.985305,46.3043876 464.391888,46.3043876 C469.1081,46.3043876 478.251435,46.6636829 482.787696,49.2664847 C482.787696,49.2664847 482.853928,49.1912834 482.853928,57.3435261 C482.853928,60.8792423 483.21383,72.8592331 493.806353,72.8592331 C511.780609,72.8592331 544.271733,40.1984569 573.018047,40.1984569 C598.31322,40.1984569 604,56.7552845 604,69.5700101 C604,84.5877171 592.26154,125.018463 583.847172,151.798494 L542.703828,151.798494 C549.058342,131.741462 556.989509,105.503716 556.989509,98.037894 C556.989509,92.1032552 555.351165,87.6722253 549.78731,87.6722253 C526.37204,87.6722253 489.212191,124.723506 464.943821,151.818966 L412.953856,151.777187 L412.95469,151.785961 Z M249.807175,151.785961 L249.807591,151.102046 C249.807591,136.295321 261.972185,109.16059 271.896974,83.420843 C276.191634,72.4865687 294.227956,35.7223062 355.769895,35.7223062 C381.187951,35.7223062 412.662686,39.9469502 412.662686,69.3185034 C412.662686,87.4194652 395.838949,127.148332 390.393353,138.177861 C387.912156,143.247684 385.364727,147.768956 382.708369,151.782618 L249.807175,151.782618 L249.807175,151.785961 Z M115.765042,151.785961 C121.698005,148.401065 125.50988,144.427928 126.7787,142.964426 C126.7787,142.964426 146.751577,140.540018 159.517257,140.540018 C171.984684,140.540018 190.257609,142.642314 190.257609,150.176652 C190.257609,150.694288 190.195959,151.237826 190.139308,151.765907 L115.763792,151.765907 L115.765042,151.785961 Z M15.0717161,151.785961 C5.56847881,141.153745 0,128.877127 0,115.856015 C0,49.7707515 120.063035,0 155.103462,0 C186.62985,0 190.92451,53.3469928 190.92451,72.8492062 C190.92451,114.507822 166.841922,123.133833 140.03008,123.133833 L121.269372,123.133833 C102.44743,123.133833 64.6265121,121.961946 64.6265121,121.961946 C61.600797,121.8951 59.2996339,121.257978 59.2996339,123.133833 C59.2996339,132.357695 65.9573985,144.775525 77.1555894,151.786378 L15.0717161,151.785961 Z" id="path2285_1_"></path>
        </g>
    </g>
</svg>