<?xml version="1.0" encoding="UTF-8"?>
<svg width="90px" height="90px" viewBox="0 0 90 90" version="1.1" xmlns="http://www.w3.org/2000/svg" xmlns:xlink="http://www.w3.org/1999/xlink">
    <!-- Generator: Sketch 52.6 (67491) - http://www.bohemiancoding.com/sketch -->
    <title>HCD</title>
    <desc>Created with Sketch.</desc>
    <g id="HCD" stroke="none" stroke-width="1" fill="none" fill-rule="evenodd">
        <path d="M47,65.6850586 C35.7905273,65.6850586 27.9790039,61.3881836 27.9790039,57.5322266 C27.9790039,54.583252 32.5560303,51.383545 39.7180176,50.0377808 C39.7295532,50.1200562 39.743103,50.2084961 39.753418,50.2871094 C39.9174805,51.5322266 40.0791016,52.5253906 40.2421875,53.5258789 C40.3886719,54.425293 40.5361328,55.3305664 40.6874886,56.4414062 C40.8261719,58.390625 43.8793946,60.2626953 46.9892579,60.2626953 C50.0810548,60.2626953 53.1171876,58.4125976 53.288086,56.4750976 L54.3789063,50.0546264 C61.4857789,51.4108276 66.0205079,54.5963744 66.0205079,57.5322265 C66.0205078,61.3881836 58.2089844,65.6850586 47,65.6850586 Z" id="Path" fill="#FFFE2A"></path>
        <g id="noun_Service-Design_410837" transform="translate(6.000000, 4.000000)" fill="#000000">
            <path d="M11.5,55.5322266 C11.5,54.7036133 10.8286133,54.0322266 10,54.0322266 L1.6665039,54.0322266 C0.8378906,54.0322266 0.1665039,54.7036133 0.1665039,55.5322266 C0.1665039,56.3608399 0.8378906,57.0322266 1.6665039,57.0322266 L10,57.0322266 C10.8286133,57.0322266 11.5,56.3608398 11.5,55.5322266 Z" id="Path"></path>
            <path d="M16.4360352,64.4882812 L10.0029297,67.543457 C9.2548828,67.8989258 8.9360352,68.793457 9.2915039,69.5419922 C9.5483398,70.0825195 10.0864258,70.3989258 10.6474609,70.3989258 C10.8632812,70.3989258 11.0820312,70.3520508 11.290039,70.253418 L17.7231445,67.1982422 C18.4711914,66.8427734 18.790039,65.9482422 18.4345703,65.199707 C18.0791016,64.4511718 17.1855469,64.1333008 16.4360352,64.4882812 Z" id="Path"></path>
            <path d="M67.9970703,67.543457 L61.5634765,64.4882812 C60.8154296,64.1347656 59.9199218,64.4516601 59.5644531,65.199707 C59.2099609,65.9482422 59.5283203,66.8427734 60.2763672,67.1982422 L66.709961,70.253418 C66.9179688,70.3520508 67.1367188,70.3989258 67.3525391,70.3989258 C67.9140625,70.3989258 68.4521485,70.0825196 68.7089844,69.5419922 C69.0634766,68.793457 68.7451172,67.8989258 67.9970703,67.543457 Z" id="Path"></path>
            <path d="M39,70.6147461 C38.1713867,70.6147461 37.5,71.2861328 37.5,72.1147461 L37.5,78.5644531 C37.5,79.3930664 38.1713867,80.0644531 39,80.0644531 C39.8286133,80.0644531 40.5,79.3930664 40.5,78.5644531 L40.5,72.1147461 C40.5,71.2861328 39.8286133,70.6147461 39,70.6147461 Z" id="Path"></path>
            <path d="M76.3330078,54.0322266 L68,54.0322266 C67.171875,54.0322266 66.5,54.7036133 66.5,55.5322266 C66.5,56.3608399 67.171875,57.0322266 68,57.0322266 L76.3330078,57.0322266 C77.1611328,57.0322266 77.8330078,56.3608399 77.8330078,55.5322266 C77.8330078,54.7036133 77.1611328,54.0322266 76.3330078,54.0322266 Z" id="Path"></path>
            <path d="M60.9208984,46.7211914 C61.1347656,46.7211914 61.352539,46.675293 61.5585937,46.578125 L66.7441406,44.1386719 C67.493164,43.7861328 67.8154297,42.8925781 67.4628906,42.1425781 C67.1103515,41.3935547 66.2148437,41.0708008 65.4667968,41.4238281 L60.28125,43.8632812 C59.5322266,44.2158203 59.2099609,45.109375 59.5624847,45.859375 C59.8183594,46.4023438 60.3574219,46.7211914 60.9208984,46.7211914 Z" id="Path"></path>
            <path d="M11.2553711,44.1386719 L16.440918,46.578125 C16.647461,46.675293 16.8647461,46.7211914 17.0786133,46.7211914 C17.6416016,46.7211914 18.1811524,46.4023437 18.4370117,45.859375 C18.7895508,45.109375 18.4677734,44.2158203 17.7182617,43.8632812 L12.5327148,41.4238281 C11.7832031,41.071289 10.8896484,41.3935547 10.536621,42.1425781 C10.184082,42.8925781 10.5058594,43.7861328 11.2553711,44.1386719 Z" id="Path"></path>
            <path d="M39,16.1821289 C43.1904297,16.1821289 46.5996094,12.7729492 46.5996094,8.5830078 C46.5996094,4.3930664 43.1904297,0.9838867 39,0.9838867 C34.8100586,0.9838867 31.4008789,4.3930664 31.4008789,8.5830078 C31.4008789,12.7729492 34.8100586,16.1821289 39,16.1821289 Z M39,3.9838867 C41.5361328,3.9838867 43.5996094,6.046875 43.5996094,8.5830078 C43.5996094,11.1191406 41.5361328,13.1821289 39,13.1821289 C36.4638672,13.1821289 34.4008789,11.1191406 34.4008789,8.5830078 C34.4008789,6.046875 36.4638672,3.9838867 39,3.9838867 Z" id="Shape" fill-rule="nonzero"></path>
            <path d="M46.8804932,45.1020508 L48.7294922,34.21875 C49.1416016,30.6928711 49.4111328,26.6386719 47.3681641,23.1474609 C45.7089844,20.3125 42.6552735,18.6865234 38.9892579,18.6865234 C35.2661134,18.6865234 32.1850587,20.359375 30.5366212,23.2768554 C28.3706056,27.1088866 28.9458009,31.402832 29.4536134,35.1914062 L29.5434572,35.8671874 C29.7612306,37.5229491 30.220215,39.8867186 30.6640627,42.1723632 C30.8543703,43.1524047 31.0463259,44.1437987 31.2205813,45.0836181 C22.8274539,46.6453857 16.9790042,50.6739501 16.9790042,55.5322265 C16.9790042,61.7861327 26.6518558,66.6850585 39.0000003,66.6850585 C51.3476565,66.6850585 61.0205081,61.7861327 61.0205081,55.5322265 C61.0205078,50.6934814 55.2192383,46.6773071 46.8804932,45.1020508 Z M33.6088867,41.6005859 C33.1738281,39.3588867 32.7236328,37.0410156 32.5180664,35.4755859 L32.4272461,34.7929687 C31.9604492,31.3100585 31.4775391,27.708496 33.1479492,24.7529296 C34.65625,22.0849608 37.4550781,21.6865234 38.9892578,21.6865234 C40.5009766,21.6865234 43.2636719,22.0732422 44.7783203,24.6621093 C46.3535156,27.3544921 46.1220703,30.6870116 45.7607422,33.7929687 L43.9143677,44.6554565 L43.4110108,47.6168823 L42.3222657,54.0219726 C42.0009766,54.4179687 40.6874886,55.2626953 38.9892579,55.2626953 C37.294922,55.2626953 35.9833985,54.421875 35.6582032,54.0249023 C35.5039063,52.8896484 35.3530274,51.9633789 35.2031251,51.043457 C35.044922,50.071289 34.8872071,49.105957 34.7280274,47.8955078 C34.7158814,47.8033447 34.7004395,47.701355 34.6868287,47.6049194 C34.5659181,46.7469482 34.3908692,45.7305908 34.1898194,44.6422119 C34.0081787,43.6588135 33.8076172,42.6234741 33.6088867,41.6005859 Z M39,63.6850586 C27.7905273,63.6850586 19.9790039,59.3881836 19.9790039,55.5322266 C19.9790039,52.583252 24.5560303,49.383545 31.7180176,48.0377808 C31.7295532,48.1200562 31.743103,48.2084961 31.753418,48.2871094 C31.9174805,49.5322266 32.0791016,50.5253906 32.2421875,51.5258789 C32.3886719,52.425293 32.5361328,53.3305664 32.6874886,54.4414062 C32.8261719,56.390625 35.8793946,58.2626953 38.9892579,58.2626953 C42.0810548,58.2626953 45.1171876,56.4125976 45.288086,54.4750976 L46.3789063,48.0546264 C53.4857789,49.4108276 58.0205079,52.5963744 58.0205079,55.5322265 C58.0205078,59.3881836 50.2089844,63.6850586 39,63.6850586 Z" id="Shape" fill-rule="nonzero"></path>
        </g>
    </g>
</svg>