<?xml version="1.0" encoding="UTF-8"?>
<svg width="90px" height="90px" viewBox="0 0 90 90" version="1.1" xmlns="http://www.w3.org/2000/svg" xmlns:xlink="http://www.w3.org/1999/xlink">
    <!-- Generator: Sketch 52.6 (67491) - http://www.bohemiancoding.com/sketch -->
    <title>Impact Roadmap Analysis</title>
    <desc>Created with Sketch.</desc>
    <g id="Impact-Roadmap-Analysis" stroke="none" stroke-width="1" fill="none" fill-rule="evenodd">
        <g id="noun_Stakeholder-mapping_229098" transform="translate(5.000000, 6.000000)" fill="#000000">
            <g id="Group">
                <path d="M10.96125,50.9 C10.56625,50.4 9.77625,50.3 9.18375,50.7 C7.7025,51.9 6.9125,53.3 6.9125,54.9 C6.9125,55.6 7.505,56.1 8.0975,56.1 C8.78875,56.1 9.2825,55.5 9.2825,54.8 C9.2825,53.9 9.97375,53.1 10.665,52.6 C11.2575,52.2 11.35625,51.5 10.96125,50.9 Z" id="Path"></path>
                <path d="M15.405,59.1 C14.12125,58.8 13.035,58.4 12.14625,58 C11.55375,57.7 10.76375,58 10.4675,58.6 C10.17125,59.2 10.4675,60 11.06,60.3 C12.14625,60.9 13.52875,61.3 14.91125,61.6 C15.01,61.6 15.10875,61.6 15.2075,61.6 C15.8,61.6 16.29375,61.2 16.3925,60.6 C16.49125,59.9 16.09625,59.2 15.405,59.1 Z" id="Path"></path>
                <path d="M24.2925,59.1 C23.20625,59.3 22.02125,59.5 20.7375,59.5 C20.04625,59.5 19.5525,60.1 19.5525,60.8 C19.5525,61.5 20.145,62 20.7375,62 C20.7375,62 20.7375,62 20.83625,62 C22.21875,61.9 23.5025,61.8 24.78625,61.5 C25.4775,61.4 25.8725,60.7 25.77375,60 C25.675,59.3 24.98375,58.9 24.2925,59.1 Z" id="Path"></path>
                <path d="M30.415,66.7 C30.02,66.2 29.23,66.1 28.6375,66.5 C27.15625,67.7 26.36625,69.1 26.36625,70.7 L27.55125,70.7 L26.36625,70.7 C26.36625,71.4 26.95875,71.9 27.55125,71.9 C28.2425,71.9 28.73625,71.3 28.73625,70.6 C28.73625,69.7 29.4275,68.9 30.11875,68.4 C30.81,68 30.90875,67.2 30.415,66.7 Z" id="Path"></path>
                <path d="M43.845,74.8 C42.75875,75 41.57375,75.2 40.29,75.2 C39.59875,75.2 39.105,75.8 39.105,76.5 C39.105,77.2 39.6975,77.7 40.29,77.7 C40.29,77.7 40.29,77.7 40.38875,77.7 C41.77125,77.6 43.055,77.5 44.33875,77.2 C45.03,77.1 45.425,76.4 45.32625,75.7 C45.2275,75.1 44.53625,74.7 43.845,74.8 Z" id="Path"></path>
                <path d="M34.9575,74.8 C33.67375,74.5 32.5875,74.2 31.69875,73.7 C31.10625,73.4 30.31625,73.7 30.02,74.3 C29.72375,74.9 30.02,75.7 30.6125,76 C31.69875,76.6 33.08125,77 34.46375,77.3 C34.5625,77.3 34.66125,77.3 34.76,77.3 C35.3525,77.3 35.84625,76.9 35.945,76.3 C36.04375,75.6 35.64875,75 34.9575,74.8 Z" id="Path"></path>
                <path d="M51.1525,69.3 C50.46125,69.3 49.9675,69.9 49.9675,70.6 C49.9675,71.5 49.1775,72.3 48.585,72.8 C48.09125,73.2 47.9925,74 48.3875,74.6 C48.585,74.9 48.98,75.1 49.375,75.1 C49.67125,75.1 49.86875,75 50.165,74.8 C51.64625,73.6 52.535,72.2 52.535,70.6 L52.535,70.5 C52.43625,69.8 51.84375,69.3 51.1525,69.3 Z" id="Path"></path>
                <path d="M54.7075,59.1 C53.42375,58.8 52.3375,58.4 51.44875,58 C50.85625,57.7 50.06625,58 49.77,58.6 C49.47375,59.2 49.77,60 50.3625,60.3 C51.44875,60.9 52.83125,61.3 54.21375,61.6 C54.3125,61.6 54.41125,61.6 54.51,61.6 C55.1025,61.6 55.59625,61.2 55.695,60.6 C55.79375,59.9 55.39875,59.2 54.7075,59.1 Z" id="Path"></path>
                <path d="M63.595,59.1 C62.50875,59.3 61.32375,59.5 60.04,59.5 C59.34875,59.5 58.855,60.1 58.855,60.8 C58.855,61.5 59.4475,62 60.04,62 C60.04,62 60.04,62 60.13875,62 C61.52125,61.9 62.805,61.8 64.08875,61.5 C64.78,61.4 65.175,60.7 65.07625,60 C64.87875,59.3 64.28625,58.9 63.595,59.1 Z" id="Path"></path>
                <path d="M70.9025,53.6 C70.21125,53.6 69.7175,54.2 69.7175,54.9 C69.7175,55.8 68.9275,56.6 68.335,57.1 C67.84125,57.5 67.7425,58.3 68.1375,58.9 C68.335,59.2 68.73,59.4 69.125,59.4 C69.42125,59.4 69.61875,59.3 69.915,59.1 C71.39625,57.9 72.285,56.5 72.285,54.9 L72.285,54.8 C72.0875,54.1 71.495,53.6 70.9025,53.6 Z" id="Path"></path>
                <path d="M21.03375,18 L20.24375,18 L20.24375,15.6 C20.24375,14.9 19.65125,14.4 19.05875,14.4 C18.3675,14.4 17.87375,15 17.87375,15.6 L17.87375,19.2 C17.87375,19.9 18.46625,20.4 19.05875,20.4 L21.03375,20.4 C21.725,20.4 22.21875,19.8 22.21875,19.2 C22.21875,18.6 21.725,18 21.03375,18 Z" id="Path"></path>
                <path d="M60.2375,18 L59.4475,18 L59.4475,15.6 C59.4475,14.9 58.855,14.4 58.2625,14.4 C57.57125,14.4 57.0775,15 57.0775,15.6 L57.0775,19.2 C57.0775,19.9 57.67,20.4 58.2625,20.4 L60.2375,20.4 C60.92875,20.4 61.4225,19.8 61.4225,19.2 C61.52125,18.6 60.92875,18 60.2375,18 Z" id="Path"></path>
                <path d="M59.15125,0.2 C49.77,0.2 41.96875,7 40.19125,16 C39.895,16 39.6975,16 39.5,16 C39.3025,16 39.105,16 38.9075,16 C37.13,7 29.32875,0.2 19.9475,0.2 C9.2825,0.2 0.5925,9 0.5925,19.8 C0.5925,25.2 2.765,30.1 6.32,33.7 C7.11,34.6 7.99875,35.5 8.98625,36.8 C11.35625,39.8 13.2325,42.8 14.4175,45.8 C14.71375,46.6 15.01,47.3 15.30625,48.1 C15.2075,48.1 15.01,48.1 14.91125,48.2 C14.22,48.3 13.825,49 13.92375,49.7 C14.0225,50.3 14.51625,50.7 15.10875,50.7 C15.2075,50.7 15.30625,50.7 15.405,50.7 C15.6025,50.7 15.8,50.6 15.9975,50.6 C16.09625,50.9 16.09625,51.2 16.195,51.4 L16.195,51.6 C16.29375,52.3 16.49125,53.1 16.7875,53.9 C17.1825,54.8 17.775,55.4 18.46625,55.8 C18.96,56 19.45375,56.1 19.9475,56.1 C20.63875,56.1 21.33,55.9 21.82375,55.5 C23.20625,54.6 23.40375,52.9 23.60125,51.7 L23.60125,51.4 C23.79875,50.3 24.095,49.2 24.49,48 C24.885,48.5 25.37875,49 25.77375,49.4 C26.56375,50.3 27.4525,51.2 28.44,52.5 C29.13125,53.4 29.72375,54.2 30.31625,55.1 C30.2175,55.9 29.52625,56.6 28.93375,57 C28.44,57.4 28.34125,58.2 28.73625,58.8 C28.93375,59.1 29.32875,59.3 29.72375,59.3 C30.02,59.3 30.2175,59.2 30.51375,59 C31.10625,58.6 31.50125,58.1 31.89625,57.6 C32.68625,58.9 33.3775,60.3 33.97,61.6 C34.26625,62.4 34.5625,63.1 34.85875,63.9 C34.76,63.9 34.5625,63.9 34.46375,64 C33.7725,64.1 33.3775,64.8 33.47625,65.5 C33.575,66.1 34.06875,66.5 34.66125,66.5 C34.76,66.5 34.85875,66.5 34.9575,66.5 C35.155,66.5 35.3525,66.4 35.55,66.4 C35.64875,66.7 35.64875,67 35.7475,67.2 L35.7475,67.4 C35.84625,68.1 36.04375,68.9 36.34,69.7 C36.735,70.6 37.3275,71.2 38.01875,71.6 C38.5125,71.8 39.00625,71.9 39.5,71.9 C40.19125,71.9 40.8825,71.7 41.37625,71.3 C42.75875,70.4 42.95625,68.7 43.15375,67.5 L43.15375,67.2 C43.2525,66.9 43.2525,66.6 43.35125,66.2 C43.45,66.3 43.6475,66.4 43.845,66.4 C45.12875,66.7 46.215,67 47.10375,67.5 C47.30125,67.6 47.49875,67.6 47.5975,67.6 C48.09125,67.6 48.48625,67.3 48.68375,66.9 C48.98,66.3 48.68375,65.5 48.09125,65.2 C47.005,64.6 45.6225,64.2 44.24,63.9 C44.14125,63.9 44.0425,63.9 43.845,63.9 C44.14125,63.1 44.33875,62.3 44.73375,61.5 C46.0175,58.5 47.795,55.5 50.165,52.5 C51.1525,51.2 52.04125,50.2 52.83125,49.4 C53.325,48.9 53.81875,48.4 54.21375,47.8 C54.905,49.8 54.905,52 55.79375,53.9 C56.18875,54.8 56.78125,55.4 57.4725,55.8 C57.96625,56 58.46,56.1 58.95375,56.1 C59.645,56.1 60.33625,55.9 60.83,55.5 C62.2125,54.6 62.41,52.9 62.70625,51.4 C62.805,51.1 62.805,50.8 62.90375,50.4 C63.0025,50.5 63.2,50.6 63.3975,50.6 C64.68125,50.9 65.7675,51.2 66.65625,51.7 C66.85375,51.8 67.05125,51.8 67.15,51.8 C67.64375,51.8 68.03875,51.5 68.23625,51.1 C68.5325,50.5 68.23625,49.7 67.64375,49.4 C66.5575,48.8 65.175,48.4 63.7925,48.1 C63.69375,48.1 63.595,48.1 63.3975,48.1 C63.69375,47.3 63.89125,46.5 64.28625,45.7 C65.47125,43.1 66.9525,40.6 68.63125,38.3 C71.39625,34.4 75.14875,31.1 77.025,26.5 C79,21.7 78.4075,15.5 76.0375,10.9 C74.0625,6.9 70.80375,3.7 66.755,1.8 C64.5825,0.8 61.8175,0.2 59.15125,0.2 Z M5.3325,28.5 C3.85125,25.9 2.9625,23 2.9625,19.8 C2.9625,10.4 10.56625,2.7 19.84875,2.7 C27.94625,2.7 34.76,8.5 36.34,16.2 C32.9825,16.7 29.92125,18.1 27.35375,20.2 C27.74875,18.8 28.045,17.3 27.8475,15.5 C27.4525,11.6 23.79875,8.3 19.84875,8.3 L19.75,8.3 C15.70125,8.3 12.14625,11.5 11.75125,15.5 C11.55375,17.9 12.0475,19.8 12.73875,21.6 C13.33125,23.4 12.93625,23.9 12.245,24.2 C11.75125,24.5 11.15875,24.7 10.665,25 C8.78875,25.9 6.715,26.8 5.3325,28.5 Z M23.79875,24.1 C22.61375,25 21.33,25.7 19.84875,25.7 C17.775,25.7 16.195,24.4 15.405,23.7 C15.50375,22.9 15.405,21.9 15.01,20.8 C14.31875,18.9 14.0225,17.5 14.22,15.7 C14.51625,13 17.08375,10.8 19.84875,10.8 L19.9475,10.8 C22.7125,10.8 25.28,13 25.57625,15.7 C25.77375,17.5 25.37875,18.8 24.78625,20.8 C24.2925,21.8 24.19375,22.7 24.19375,23.5 C24.19375,23.5 24.19375,23.7 24.19375,23.7 C24.095,23.9 23.8975,24 23.79875,24.1 Z M21.23125,51 C21.1325,52 20.935,53.1 20.3425,53.5 C20.145,53.7 19.75,53.7 19.45375,53.6 C19.25625,53.5 19.05875,53.2 18.96,53 C18.565,52.2 18.565,51.3 18.3675,50.4 C18.17,49.5 17.9725,48.7 17.775,47.8 C17.47875,46.8 17.08375,45.8 16.68875,44.8 C14.8125,40.4 12.0475,36.4 8.8875,32.8 L6.9125,30.6 C6.9125,30.5 7.01125,30.5 7.01125,30.4 C7.9,28.9 9.77625,28.1 11.6525,27.2 C12.245,26.9 12.8375,26.6 13.43,26.3 C13.72625,26.1 14.0225,26 14.22,25.8 C15.405,26.7 17.38,28 19.84875,28 C19.9475,28 19.9475,28 20.04625,28 C20.63875,28 21.23125,27.9 21.725,27.8 C21.03375,29.4 20.63875,31 20.44125,32.8 C19.84875,37.1 20.7375,41.7 22.91,45.4 C22.3175,46.8 21.9225,48.2 21.62625,49.6 C21.42875,50.1 21.33,50.5 21.23125,51 Z M50.46125,48.6 C49.86875,49.3 49.1775,50.1 48.3875,51 C48.19,51.2 48.09125,51.5 47.89375,51.7 C47.4,52.4 46.90625,53.1 46.4125,53.7 C44.8325,56 43.54875,58.2 42.66,60.5 C42.0675,62 41.57375,63.5 41.17875,65.1 C40.98125,65.9 40.8825,66.7 40.685,67.5 C40.58625,68.1 40.4875,68.9 39.99375,69.2 C39.40125,69.6 38.9075,69.2 38.61125,68.7 C38.21625,67.9 38.21625,67 38.01875,66.1 C37.82125,65.2 37.62375,64.4 37.42625,63.5 C37.13,62.5 36.735,61.5 36.34,60.5 C34.9575,57.4 33.08125,54.4 31.10625,51.7 C30.90875,51.5 30.81,51.2 30.6125,51 C29.92125,50.1 29.23,49.3 28.53875,48.6 L26.56375,46.4 C26.56375,46.3 26.6625,46.3 26.6625,46.2 C27.55125,44.7 29.4275,43.9 31.30375,43 C31.89625,42.7 32.48875,42.4 33.08125,42.1 C33.3775,41.9 33.67375,41.8 33.87125,41.6 C35.05625,42.5 37.03125,43.8 39.5,43.8 C39.59875,43.8 39.59875,43.8 39.6975,43.8 C41.6725,43.8 43.54875,43 45.32625,41.6 C45.52375,41.8 45.82,42 46.11625,42.1 C46.61,42.4 47.2025,42.7 47.89375,43 C49.67125,43.9 51.5475,44.8 52.535,46.2 C52.63375,46.3 52.63375,46.4 52.63375,46.5 L50.46125,48.6 Z M43.845,39.4 C42.36375,40.7 40.8825,41.4 39.40125,41.4 C37.3275,41.4 35.7475,40.1 34.9575,39.4 C35.05625,38.6 34.9575,37.6 34.5625,36.5 C33.87125,34.6 33.27875,32.3 33.97,30.3 C34.1675,29.8 34.365,29.4 34.66125,29 C36.83375,25.9 41.475,25.8 43.845,28.7 C45.72125,31 45.12875,33.9 44.24,36.5 C43.845,37.6 43.6475,38.6 43.845,39.4 Z M25.57625,25.8 C28.14375,22 32.1925,19.4 36.735,18.7 C37.62375,18.5 38.5125,18.5 39.5,18.5 C48.09125,18.5 55.59625,25.5 56.2875,34.5 C56.38625,37.2 55.8925,40 54.80625,42.5 C54.60875,43 54.3125,43.5 54.115,43.9 C54.01625,44 53.9175,44.2 53.81875,44.3 C53.325,43.7 52.7325,43.1 52.04125,42.6 C50.955,41.8 49.67125,41.2 48.585,40.7 C47.9925,40.4 47.49875,40.2 47.005,39.9 C46.4125,39.6 45.91875,39.1 46.51125,37.3 C47.69625,34 48.19,30.2 45.82,27.2 C45.03,26.2 44.14125,25.4 42.95625,24.9 C41.2775,24 39.20375,23.8 37.3275,24.3 C36.83375,24.4 36.34,24.6 35.945,24.8 C33.97,25.7 32.39,27.4 31.6,29.4 C30.6125,32 31.205,34.8 32.09375,37.4 C32.68625,39.2 32.29125,39.7 31.6,40 C30.11875,40.8 28.44,41.5 26.95875,42.4 C26.16875,42.9 25.37875,43.5 24.78625,44.3 C24.78625,44.2 24.6875,44.2 24.6875,44.1 C24.39125,43.6 24.19375,43.2 23.99625,42.7 C22.61375,39.7 22.12,36.2 22.7125,32.9 C23.1075,30.3 24.095,28 25.57625,25.8 Z M63.49625,23.6 C62.015,24.9 60.53375,25.6 59.0525,25.6 C57.275,25.6 55.79375,24.6 55.00375,23.9 C54.905,23.8 54.80625,23.6 54.7075,23.5 C54.80625,22.7 54.7075,21.8 54.3125,20.8 C53.62125,18.9 53.325,17.5 53.5225,15.7 C53.81875,13 56.38625,10.8 59.15125,10.8 L59.25,10.8 C62.015,10.8 64.5825,13 64.87875,15.7 C65.07625,17.5 64.68125,18.8 64.08875,20.8 C63.49625,21.9 63.3975,22.8 63.49625,23.6 Z M70.1125,32.8 C68.63125,34.4 67.24875,36.2 66.06375,38 C63.49625,41.9 61.225,46.3 60.435,51 C60.33625,51.7 60.33625,52.4 60.04,53 C59.645,53.8 58.6575,53.8 58.2625,52.9 C57.76875,51.8 57.76875,50.4 57.4725,49.2 C57.17625,47.9 56.6825,46.6 56.18875,45.3 C56.09,45.1 57.0775,43.6 57.17625,43.4 C57.4725,42.6 57.76875,41.8 58.065,41 C58.55875,39.3 58.855,37.3 58.855,35.6 C58.855,34.7 58.75625,33.8 58.6575,32.9 C58.46,31.1 57.96625,29.5 57.275,27.9 C57.8675,28 58.46,28.1 59.0525,28.2 C59.15125,28.2 59.15125,28.2 59.25,28.2 C61.225,28.2 63.10125,27.4 64.87875,26 C65.07625,26.2 65.3725,26.4 65.66875,26.5 C66.1625,26.8 66.755,27.1 67.44625,27.4 C69.22375,28.3 70.9025,29 71.89,30.5 C71.98875,30.6 71.98875,30.8 71.98875,30.8 C71.98875,30.8 71.495,31.4 71.39625,31.5 L70.1125,32.8 Z M73.56875,28.6 C72.18625,26.9 70.21125,25.9 68.335,25 C67.7425,24.7 67.24875,24.5 66.755,24.2 C66.1625,23.9 65.66875,23.4 66.26125,21.6 C66.85375,19.8 67.44625,17.9 67.24875,15.5 C66.85375,11.4 63.2,8.7 59.34875,8.4 C55.3,8.1 51.44875,11.5 51.05375,15.5 C50.85625,17.3 51.1525,18.9 51.5475,20.3 C49.07875,18.3 46.0175,16.9 42.66,16.3 C44.24,8.6 51.05375,2.8 59.15125,2.8 C68.43375,2.8 76.0375,10.5 76.0375,19.9 C76.0375,23 75.14875,26 73.56875,28.6 Z" id="Shape" fill-rule="nonzero"></path>
                <path d="M40.58625,33.7 L39.79625,33.7 L39.79625,31.3 C39.79625,30.6 39.20375,30.1 38.61125,30.1 C37.92,30.1 37.42625,30.7 37.42625,31.3 L37.42625,35 C37.42625,35.7 38.01875,36.2 38.61125,36.2 L40.58625,36.2 C41.2775,36.2 41.77125,35.6 41.77125,35 C41.77125,34.3 41.2775,33.7 40.58625,33.7 Z" id="Path"></path>
            </g>
        </g>
    </g>
</svg>