<?xml version="1.0" encoding="UTF-8"?>
<svg width="90px" height="90px" viewBox="0 0 90 90" version="1.1" xmlns="http://www.w3.org/2000/svg" xmlns:xlink="http://www.w3.org/1999/xlink">
    <!-- Generator: Sketch 52.6 (67491) - http://www.bohemiancoding.com/sketch -->
    <title>Interaction Design</title>
    <desc>Created with Sketch.</desc>
    <g id="Interaction-Design" stroke="none" stroke-width="1" fill="none" fill-rule="evenodd">
        <g id="noun_Interactive-Prototype_229086" transform="translate(17.000000, 7.000000)" fill="#000000">
            <g id="Group">
                <path d="M21.9,61.1 C19.2,61.1 17.1,63.3 17.1,65.9 C17.1,68.6 19.3,70.7 21.9,70.7 C24.6,70.7 26.7,68.5 26.7,65.9 C26.7,63.2 24.5,61.1 21.9,61.1 Z M21.9,68.2 C20.6,68.2 19.6,67.2 19.6,65.9 C19.6,64.6 20.6,63.6 21.9,63.6 C23.2,63.6 24.2,64.6 24.2,65.9 C24.2,67.2 23.2,68.2 21.9,68.2 Z" id="Shape" fill-rule="nonzero"></path>
                <path d="M23.9,5.7 L19.9,5.7 C19.2,5.7 18.7,6.3 18.7,6.9 C18.7,7.6 19.3,8.1 19.9,8.1 L23.9,8.1 C24.6,8.1 25.1,7.5 25.1,6.9 C25.1,6.2 24.6,5.7 23.9,5.7 Z" id="Path"></path>
                <path d="M7.3,31.2 L19,31.2 C19.7,31.2 20.2,30.6 20.2,30 L20.2,18.3 C20.2,17.6 19.6,17.1 19,17.1 L7.3,17.1 C6.6,17.1 6.1,17.7 6.1,18.3 L6.1,30 C6,30.7 6.6,31.2 7.3,31.2 Z M8.5,19.6 L17.7,19.6 L17.7,28.8 L8.5,28.8 L8.5,19.6 Z" id="Shape" fill-rule="nonzero"></path>
                <polygon id="Path" points="37.6 18.5 37.6 17.2 24.6 17.2 24.6 18.5 24.6 19.7 37.6 19.7"></polygon>
                <polygon id="Path" points="37.6 24.1 37.6 22.9 24.6 22.9 24.6 24.1 24.6 25.4 37.6 25.4"></polygon>
                <polygon id="Path" points="37.6 30 37.6 28.7 24.6 28.7 24.6 30 24.6 31.2 37.6 31.2"></polygon>
                <rect id="Rectangle" x="13.6" y="50.4" width="6.7" height="2.5"></rect>
                <rect id="Rectangle" x="23.4" y="50.4" width="6.7" height="2.5"></rect>
                <path d="M8.5,48.4 L6,48.4 L6,51.6 C6,52.3 6.6,52.8 7.2,52.8 L10.4,52.8 L10.4,50.3 L8.4,50.3 L8.4,48.4 L8.5,48.4 Z" id="Path"></path>
                <rect id="Rectangle" x="6" y="41.7" width="2.5" height="4.6"></rect>
                <path d="M6,36.3 L6,39.5 L8.5,39.5 L8.5,37.5 L10.5,37.5 L10.5,35 L7.3,35 C6.6,35.1 6,35.6 6,36.3 Z" id="Path"></path>
                <rect id="Rectangle" x="23.4" y="35.1" width="6.7" height="2.5"></rect>
                <rect id="Rectangle" x="13.6" y="35.1" width="6.7" height="2.5"></rect>
                <path d="M36.4,35.1 L33.2,35.1 L33.2,37.6 L35.2,37.6 L35.2,39.6 L37.7,39.6 L37.7,36.4 C37.6,35.6 37.1,35.1 36.4,35.1 Z" id="Path"></path>
                <path d="M59.7,62.6 C59.7,62.2 59.5,61.8 59.2,61.5 L55,58.4 L55,44.8 C55,44.1 54.4,43.6 53.8,43.6 L43.4,43.6 L43.4,1.4 C43.4,0.7 42.8,0.2 42.2,0.2 L1.5,0.2 C0.8,0.2 0.3,0.8 0.3,1.4 L0.3,74.6 C0.3,75.3 0.9,75.8 1.5,75.8 L42.2,75.8 C42.9,75.8 43.4,75.2 43.4,74.6 L43.4,63 L47,63 L47.4,68.7 C47.4,69.1 47.7,69.5 48.1,69.7 C48.3,69.8 48.5,69.8 48.7,69.8 C48.9,69.8 49.2,69.7 49.4,69.6 L53.3,67.2 L57,73.8 C57.2,74.2 57.7,74.4 58.1,74.4 C58.3,74.4 58.5,74.3 58.7,74.2 C59.3,73.9 59.5,73.1 59.2,72.5 L55.4,65.8 L59.1,63.5 C59.5,63.4 59.7,63.1 59.7,62.6 Z M53.2,64.3 C53.2,64.4 53.1,64.4 53.2,64.3 C53.1,64.4 53,64.4 53,64.4 L49.8,66.3 L49.6,63 L49.5,61.8 L49.4,60.6 L49.2,57.4 L52.5,59.9 L53.7,60.8 L54.9,61.7 L56.2,62.6 L53.2,64.3 Z M43.4,60.5 L42.2,60.5 L41,60.5 L35.3,60.5 L35.3,58.5 L35.3,57.3 L35.3,56.1 L35.3,53 L35.3,48.5 L35.3,46.4 L35.3,46 L37.7,46 L41,46 L42.2,46 L43.4,46 L52.4,46 L52.4,56.5 L48.4,53.5 C48,53.2 47.5,53.2 47.1,53.4 C46.7,53.6 46.4,54.1 46.5,54.6 L46.9,60.4 L43.4,60.4 L43.4,60.5 Z M40.9,73.4 L2.8,73.4 L2.8,58.4 L32.7,58.4 L32.7,61.7 C32.7,62.4 33.3,62.9 33.9,62.9 L40.9,62.9 L40.9,73.4 Z M2.8,13.7 L41,13.7 L41,43.6 L37.7,43.6 L37.7,41.8 L35.2,41.8 L35.2,43.6 L34,43.6 C33.3,43.6 32.8,44.2 32.8,44.8 L32.8,55.9 L2.8,55.9 L2.8,13.7 Z M2.8,2.6 L41,2.6 L41,11.1 L2.8,11.1 L2.8,2.6 Z" id="Shape" fill-rule="nonzero"></path>
            </g>
        </g>
    </g>
</svg>