<?xml version="1.0" encoding="UTF-8"?>
<svg width="90px" height="90px" viewBox="0 0 90 90" version="1.1" xmlns="http://www.w3.org/2000/svg" xmlns:xlink="http://www.w3.org/1999/xlink">
    <!-- Generator: Sketch 52.6 (67491) - http://www.bohemiancoding.com/sketch -->
    <title>Personas Development</title>
    <desc>Created with Sketch.</desc>
    <g id="Personas-Development" stroke="none" stroke-width="1" fill="none" fill-rule="evenodd">
        <g id="noun_Cognitive-walkthrough_229115" transform="translate(18.000000, 3.000000)" fill="#000000">
            <g id="Group">
                <path d="M16.7,47.8 L16.7,46.6 C16.7,46.4 16.7,46.3 16.7,46.1 C16.6,43.5 15.3,40.2 12.8,38.7 C11.6,38 9.7,37.4 7.2,38.6 C3.6,40.3 1.6,45.5 1.3,49.6 C1.1,51.4 1.2,53.4 1.5,55.8 C1.6,56.3 2.2,58.3 2.5,59.2 C3.4,62.2 3.6,62.9 4.5,62.9 C4.6,62.9 4.7,62.9 4.8,62.9 L5,62.9 C5,63.3 5.1,63.8 5.2,64.2 L5.4,71.7 L0.4,80.5 C0.2,80.8 0.2,81.2 0.3,81.5 C0.4,81.8 0.6,82.1 1,82.3 L4.7,84 C4.9,84.1 5.1,84.1 5.2,84.1 C5.6,84.1 5.9,83.9 6.2,83.6 L12.1,76.3 L14.2,83.1 C14.4,83.6 14.8,84 15.4,84 L19.1,84 C19.4,84 19.8,83.9 20,83.6 C20.2,83.4 20.4,83 20.4,82.7 L20,69.9 C20,69.8 20,69.7 20,69.6 L16.8,58.5 L16.8,57.6 C17.3,57.9 17.8,58.2 18.3,58.5 C19,58.9 19.7,59.3 20.4,59.7 C20.6,59.8 20.8,59.9 21.1,59.9 C21.5,59.9 21.9,59.7 22.1,59.3 L23.8,56.7 C24.1,56.2 24.1,55.6 23.7,55.2 L16.7,47.8 Z M19.6,56.4 C18.6,55.8 17.7,55.2 16.8,54.7 L16.8,51.5 L21.2,56.3 L20.7,57.1 C20.3,56.8 19.9,56.6 19.6,56.4 Z M14.2,56 L14.2,57.4 L9.3,57.4 L9.1,54.9 L8.8,51.6 C9.2,51 9.6,50.2 10,49.4 C10.6,48.2 11.3,46.9 11.9,45.5 C12.2,44.9 11.9,44.1 11.3,43.8 C10.7,43.5 9.9,43.8 9.6,44.4 C8.8,46.1 7.4,49 6.4,50.5 C6.2,50.7 6.2,51 6.2,51.3 L6.7,57.6 L7,60 L5.5,60.2 C5.3,59.7 5.1,59.1 4.9,58.4 C4.5,57.1 4.1,55.7 4,55.4 C3.7,53.2 3.6,51.3 3.8,49.7 C4.1,46.3 5.8,42 8.3,40.8 C8.9,40.5 9.4,40.4 10,40.4 C10.5,40.4 11,40.5 11.5,40.8 C13,41.7 14.1,43.9 14.2,46.2 C14.2,46.3 14.2,46.5 14.2,46.6 L14.2,48.3 L14.2,51.5 L14.2,53 L14.2,54.5 L14.2,56 Z M4.9,81.1 L3.3,80.3 L7.8,72.4 C7.9,72.2 8,72 8,71.7 L7.9,68 L11,72.1 L11.3,73.2 L4.9,81.1 Z M17.5,70.2 L17.9,81.4 L16.4,81.4 L13.2,71.3 C13.2,71.2 13.1,71 13,70.9 L7.7,63.8 C7.7,63.8 7.7,63.7 7.7,63.7 C7.7,63.6 7.7,63.6 7.6,63.5 C7.5,63.3 7.5,62.9 7.5,62.5 L8.5,62.4 C9.2,62.3 9.6,61.7 9.6,61.1 L9.5,60 L14.5,60 L17.5,70.2 Z" id="Shape" fill-rule="nonzero"></path>
                <path d="M48.8,25.6 C46.3,25.6 44.3,27.3 43.7,29.6 L34.9,29.6 C34.3,27.3 32.3,25.6 29.8,25.6 C27.3,25.6 25.3,27.3 24.7,29.6 L16,29.6 C15.4,27.3 13.4,25.6 10.9,25.6 C8,25.6 5.6,28 5.6,30.8 C5.6,33.6 8,36 10.9,36 C13.4,36 15.4,34.3 16,32 L24.8,32 C25.4,34.3 27.4,36 29.9,36 C32.4,36 34.4,34.3 35,32 L43.8,32 C44.4,34.3 46.4,36 48.9,36 C51.8,36 54.1,33.6 54.1,30.8 C54.1,28 51.7,25.6 48.8,25.6 Z M48.8,33.6 C47.7,33.6 46.8,33 46.4,32.1 C46.2,31.7 46.1,31.3 46.1,30.9 C46.1,30.5 46.2,30 46.4,29.7 C46.9,28.8 47.8,28.2 48.8,28.2 C50.3,28.2 51.6,29.4 51.6,31 C51.6,32.6 50.4,33.6 48.8,33.6 Z M32.6,30.8 C32.6,31.3 32.5,31.7 32.3,32 C31.8,32.9 30.9,33.5 29.9,33.5 C28.8,33.5 27.9,32.9 27.5,32 C27.3,31.6 27.2,31.2 27.2,30.8 C27.2,30.4 27.3,29.9 27.5,29.6 C28,28.7 28.9,28.1 29.9,28.1 C31,28.1 31.9,28.7 32.3,29.6 C32.5,29.9 32.6,30.4 32.6,30.8 Z M13.6,30.8 C13.6,31.3 13.5,31.7 13.3,32 C12.8,32.9 11.9,33.5 10.9,33.5 C9.4,33.5 8.1,32.3 8.1,30.7 C8.1,29.1 9.3,27.9 10.9,27.9 C12,27.9 12.9,28.5 13.3,29.4 C13.5,29.9 13.6,30.4 13.6,30.8 Z" id="Shape" fill-rule="nonzero"></path>
                <path d="M13.2,9 L20.5,9 C21.2,9 21.7,8.4 21.7,7.8 C21.7,7.2 21.1,6.6 20.5,6.6 L13.2,6.6 C12.5,6.6 12,7.2 12,7.8 C12,8.4 12.5,9 13.2,9 Z" id="Path"></path>
                <path d="M13.2,14.1 L27.1,14.1 C27.8,14.1 28.3,13.5 28.3,12.9 C28.3,12.3 27.7,11.7 27.1,11.7 L13.2,11.7 C12.5,11.7 12,12.3 12,12.9 C12,13.5 12.5,14.1 13.2,14.1 Z" id="Path"></path>
                <path d="M14.4,20.3 L16.3,20.3 C16,21.5 15.6,22.6 15.3,23.3 C15.1,23.7 15.2,24.2 15.5,24.5 C15.7,24.8 16.1,25 16.5,25 C16.5,25 16.6,25 16.6,25 C16.9,25 23.3,24.2 25,20.3 L25.9,20.3 C30.7,20.3 34.6,16.4 34.6,11.6 L34.6,9 C34.6,4.2 30.7,0.3 25.9,0.3 L14.4,0.3 C9.6,0.3 5.7,4.2 5.7,9 L5.7,11.7 C5.7,16.4 9.6,20.3 14.4,20.3 Z M8.2,9 C8.2,5.6 11,2.8 14.4,2.8 L25.9,2.8 C29.3,2.8 32.1,5.6 32.1,9 L32.1,11.7 C32.1,15.1 29.3,17.9 25.9,17.9 L24,17.9 C23.4,17.9 22.9,18.3 22.8,18.9 C22.5,20.7 20.2,21.7 18.3,22.2 C18.6,21.2 18.8,20.2 19,19.3 C19,18.9 18.9,18.6 18.7,18.3 C18.5,18 18.1,17.9 17.8,17.9 L14.4,17.9 C11,17.9 8.2,15.1 8.2,11.7 L8.2,9 Z" id="Shape" fill-rule="nonzero"></path>
            </g>
        </g>
    </g>
</svg>