<?xml version="1.0" encoding="UTF-8"?>
<svg width="370px" height="134px" viewBox="0 0 370 134" version="1.1" xmlns="http://www.w3.org/2000/svg" xmlns:xlink="http://www.w3.org/1999/xlink">
    <!-- Generator: Sketch 52.6 (67491) - http://www.bohemiancoding.com/sketch -->
    <title>Polar logo</title>
    <desc>Created with Sketch.</desc>
    <g id="Polar-logo" stroke="none" stroke-width="1" fill="none" fill-rule="evenodd">
        <path d="M175.308128,61 L152.369038,61 C151.455393,57.9884303 149.816128,55.3210146 147.48674,52.9977528 C143.71277,49.0831461 139.033048,47.1258427 133.447572,47.1258427 C127.862097,47.1258427 123.182375,49.0831461 119.408405,52.9977528 C117.079017,55.3210146 115.439752,57.9884303 114.526107,61 L91.5861,61 C92.8019829,52.3069726 96.7422071,44.8215793 103.406773,38.5438202 C111.709506,30.7146067 121.672787,26.8 133.447572,26.8 C145.071399,26.8 155.03468,30.7146067 163.337413,38.5438202 C170.125397,44.8215793 174.088137,52.3069726 175.308128,61 Z M175.308256,73 C174.088415,81.6975126 170.125635,89.2056649 163.337413,95.6067416 C155.03468,103.285393 145.071399,107.2 133.447572,107.2 C121.672787,107.2 111.709506,103.285393 103.406773,95.6067416 C96.7419736,89.2056649 92.8017067,81.6975126 91.5859722,73 L114.511439,73 C115.422152,76.0754735 117.066498,78.8170614 119.408405,81.152809 C123.182375,84.9168539 127.862097,86.8741573 133.447572,86.8741573 C139.033048,86.8741573 143.71277,84.9168539 147.48674,81.152809 C149.818295,78.7343689 151.458442,76.0286 152.371586,73 L175.308256,73 Z M22.4928601,134 L0,134 L0,29.058427 L22.4928601,29.058427 L22.4928601,38.9955056 C24.7572419,32.3707865 33.6638107,27.7033708 45.1366789,27.7033708 C55.8547532,27.7033708 64.9122807,31.4674157 72.0073439,39.1460674 C79.253366,46.6741573 82.876377,56.0089888 82.876377,67 C82.876377,77.9910112 79.253366,87.3258427 72.0073439,95.0044944 C64.9122807,102.532584 55.8547532,106.296629 45.1366789,106.296629 C33.6638107,106.296629 24.7572419,101.629213 22.4928601,95.0044944 L22.4928601,134 Z M41.0607915,85.9707865 C46.495308,85.9707865 51.0240718,84.1640449 54.7980416,80.5505618 C58.5720114,76.7865169 60.3835169,72.2696629 60.3835169,67 C60.3835169,61.7303371 58.5720114,57.2134831 54.7980416,53.6 C51.0240718,49.8359551 46.495308,48.0292135 41.0607915,48.0292135 C35.4753162,48.0292135 30.7955936,49.8359551 26.870665,53.6 C23.0966952,57.2134831 21.1342309,61.7303371 21.1342309,67 C21.1342309,72.2696629 23.0966952,76.7865169 26.870665,80.5505618 C30.7955936,84.1640449 35.4753162,85.9707865 41.0607915,85.9707865 Z M209.98368,104.941573 L187.49082,104.941573 L187.49082,0 L209.98368,0 L209.98368,104.941573 Z M259.498164,27.7033708 C270.971032,27.7033708 279.877601,32.3707865 282.141983,38.9955056 L282.141983,29.058427 L304.634843,29.058427 L304.634843,104.941573 L282.141983,104.941573 L282.141983,95.0044944 C279.877601,101.629213 270.971032,106.296629 259.498164,106.296629 C248.78009,106.296629 239.722562,102.532584 232.47654,95.0044944 C225.381477,87.3258427 221.758466,77.9910112 221.758466,67 C221.758466,56.0089888 225.381477,46.6741573 232.47654,39.1460674 C239.722562,31.4674157 248.78009,27.7033708 259.498164,27.7033708 Z M263.574051,85.9707865 C269.159527,85.9707865 273.839249,84.1640449 277.613219,80.5505618 C281.538148,76.7865169 283.500612,72.2696629 283.500612,67 C283.500612,61.7303371 281.538148,57.2134831 277.613219,53.6 C273.839249,49.8359551 269.159527,48.0292135 263.574051,48.0292135 C258.139535,48.0292135 253.610771,49.8359551 249.836801,53.6 C246.062831,57.2134831 244.251326,61.7303371 244.251326,67 C244.251326,72.2696629 246.062831,76.7865169 249.836801,80.5505618 C253.610771,84.1640449 258.139535,85.9707865 263.574051,85.9707865 Z M342.072623,104.941573 L319.579763,104.941573 L319.579763,29.058427 L342.072623,29.058427 L342.072623,39.447191 C345.544676,31.7685393 353.69645,27.4022472 364.112607,27.4022472 C365.622195,27.4022472 367.584659,27.552809 370,27.8539326 L370,48.9325843 C367.735618,48.4808989 365.169319,48.1797753 362.45206,48.1797753 C349.620563,48.1797753 342.072623,55.4067416 342.072623,67.9033708 L342.072623,104.941573 Z" fill="#141424"></path>
    </g>
</svg>