<?xml version="1.0" encoding="UTF-8"?>
<svg width="90px" height="90px" viewBox="0 0 90 90" version="1.1" xmlns="http://www.w3.org/2000/svg" xmlns:xlink="http://www.w3.org/1999/xlink">
    <!-- Generator: Sketch 52.6 (67491) - http://www.bohemiancoding.com/sketch -->
    <title>Product Development Roadmap</title>
    <desc>Created with Sketch.</desc>
    <g id="Product-Development-Roadmap" stroke="none" stroke-width="1" fill="none" fill-rule="evenodd">
        <g id="noun_timeline_354427" transform="translate(8.000000, 8.000000)" fill="#000000">
            <g id="Group">
                <path d="M57.2727273,0 C50.449302,0 44.524342,3.88067073 41.5621115,9.54545455 L1.36363636,9.54545455 C0.6105735,9.54545455 0,10.156028 0,10.9090909 L0,20.4545455 L0,30 L0,38.1818182 L0,47.7272727 L0,73.6363636 C0,74.3894265 0.6105735,75 1.36363636,75 L45,75 L66.8181818,75 C67.5712447,75 68.1818182,74.3894265 68.1818182,73.6363636 L68.1818182,65.4545455 L68.1818182,55.9090909 L68.1818182,31.67142 C72.32408,28.4236283 75,23.3872293 75,17.7272727 C75,7.95210409 67.0478959,0 57.2727273,0 Z M43.8645796,29.2898005 C43.7326605,29.499706 43.6363636,29.733748 43.6363636,30 L43.6363636,36.8181818 L24.5454545,36.8181818 L24.5454545,31.3636364 L30,31.3636364 C30.7530629,31.3636364 31.3636364,30.7530629 31.3636364,30 L31.3636364,20.4545455 C31.3636364,19.7014826 30.7530629,19.0909091 30,19.0909091 L24.5454545,19.0909091 L24.5454545,12.2727273 L40.4128751,12.2727273 C39.854986,13.9928367 39.5454545,15.8236417 39.5454545,17.7272727 C39.5454545,22.1458574 41.1810026,26.182251 43.8645796,29.2898005 Z M65.4545455,64.0909091 L46.3636364,64.0909091 L43.6363636,64.0909091 L35.4545455,64.0909091 L35.4545455,57.2727273 L43.6363636,57.2727273 L46.3636364,57.2727273 L65.4545455,57.2727273 L65.4545455,64.0909091 Z M2.72727273,31.3636364 L21.8181818,31.3636364 L21.8181818,36.8181818 L2.72727273,36.8181818 L2.72727273,31.3636364 Z M2.72727273,21.8181818 L21.8181818,21.8181818 L24.5454545,21.8181818 L28.6363636,21.8181818 L28.6363636,28.6363636 L24.5454545,28.6363636 L21.8181818,28.6363636 L2.72727273,28.6363636 L2.72727273,21.8181818 Z M2.72727273,39.5454545 L21.8181818,39.5454545 L24.5454545,39.5454545 L43.6363636,39.5454545 L43.6363636,46.3636364 L24.5454545,46.3636364 L21.8181818,46.3636364 L2.72727273,46.3636364 L2.72727273,39.5454545 Z M2.72727273,12.2727273 L21.8181818,12.2727273 L21.8181818,19.0909091 L2.72727273,19.0909091 L2.72727273,12.2727273 Z M2.72727273,49.0909091 L21.8181818,49.0909091 L21.8181818,72.2727273 L2.72727273,72.2727273 L2.72727273,49.0909091 Z M24.5454545,49.0909091 L43.6363636,49.0909091 L43.6363636,54.5454545 L34.0909091,54.5454545 C33.3378462,54.5454545 32.7272727,55.156028 32.7272727,55.9090909 L32.7272727,65.4545455 C32.7272727,66.2076083 33.3378462,66.8181818 34.0909091,66.8181818 L43.6363636,66.8181818 L43.6363636,72.2727273 L24.5454545,72.2727273 L24.5454545,49.0909091 Z M65.4545455,72.2727273 L46.3636364,72.2727273 L46.3636364,66.8181818 L65.4545455,66.8181818 L65.4545455,72.2727273 Z M65.4545455,54.5454545 L46.3636364,54.5454545 L46.3636364,47.7272727 L46.3636364,38.1818182 L46.3636364,31.67142 C49.3753051,34.0328148 53.157515,35.4545455 57.2727273,35.4545455 C60.2244706,35.4545455 63.0040117,34.7192937 65.4545455,33.4378885 L65.4545455,54.5454545 Z M68.1818182,27.9906672 C67.3661666,28.8571722 66.4543013,29.6292948 65.4545455,30.2830645 C63.0989768,31.8233144 60.2912209,32.7272727 57.2727273,32.7272727 C49.0016868,32.7272727 42.2727273,25.9983132 42.2727273,17.7272727 C42.2727273,15.8015858 42.6504239,13.965787 43.3145142,12.2727273 C43.6912954,11.3120062 44.1593795,10.3982266 44.7169357,9.54545455 C47.3972667,5.446389 52.0201804,2.72727273 57.2727273,2.72727273 C65.5437678,2.72727273 72.2727273,9.45623223 72.2727273,17.7272727 C72.2727273,21.6987472 70.7104215,25.3045099 68.1818182,27.9906672 Z" id="Shape" fill-rule="nonzero"></path>
                <path d="M65.4545455,22.7706631 L58.6363636,17.088734 L58.6363636,12.2727273 L58.6363636,9.54545455 L58.6363636,8.18181818 C58.6363636,7.42875532 58.0257901,6.81818182 57.2727273,6.81818182 C56.5196644,6.81818182 55.9090909,7.42875532 55.9090909,8.18181818 L55.9090909,9.54545455 L55.9090909,12.2727273 L55.9090909,17.7272727 C55.9090909,18.1321023 56.0888671,18.515625 56.3998136,18.774636 L64.5816318,25.5928178 C64.8366477,25.8052201 65.1462625,25.9090909 65.4538796,25.9090909 C65.4541293,25.9090909 65.4542958,25.9089244 65.4545455,25.9089244 C65.8451427,25.9087579 66.2324108,25.741799 66.5019087,25.4183682 C66.9839755,24.839755 66.9060724,23.980158 66.3274591,23.4980913 L65.4545455,22.7706631 Z" id="Path"></path>
            </g>
        </g>
    </g>
</svg>