<?xml version="1.0" encoding="UTF-8"?>
<svg width="90px" height="90px" viewBox="0 0 90 90" version="1.1" xmlns="http://www.w3.org/2000/svg" xmlns:xlink="http://www.w3.org/1999/xlink">
    <!-- Generator: Sketch 52.6 (67491) - http://www.bohemiancoding.com/sketch -->
    <title>Prototyping</title>
    <desc>Created with Sketch.</desc>
    <g id="Prototyping" stroke="none" stroke-width="1" fill="none" fill-rule="evenodd">
        <g id="noun_Cognitive-walkthrough_229118" transform="translate(6.000000, 8.000000)" fill="#000000">
            <g id="Group">
                <path d="M15.6,12.1 L17.6,12.1 C18.3,12.1 18.8,11.5 18.8,10.9 C18.8,10.2 18.2,9.7 17.6,9.7 L16.9,9.7 L16.9,7.4 C16.9,6.7 16.3,6.2 15.7,6.2 C15,6.2 14.5,6.8 14.5,7.4 L14.5,10.9 C14.3,11.6 14.9,12.1 15.6,12.1 Z" id="Path"></path>
                <path d="M34.2,12.1 L36.2,12.1 C36.9,12.1 37.4,11.5 37.4,10.9 C37.4,10.2 36.8,9.7 36.2,9.7 L35.5,9.7 L35.5,7.4 C35.5,6.7 34.9,6.2 34.3,6.2 C33.6,6.2 33.1,6.8 33.1,7.4 L33.1,10.9 C33,11.6 33.5,12.1 34.2,12.1 Z" id="Path"></path>
                <path d="M23.9,15.7 C23.8,15.9 23.7,16.1 23.7,16.4 L23.7,17.7 L23.7,18.5 L23.7,20 C23.7,20.2 23.8,20.4 23.9,20.6 C24.1,21 24.5,21.3 25,21.3 L27,21.3 C27.4,21.3 27.7,21.1 28,20.8 C28.2,20.6 28.3,20.3 28.3,20 C28.3,19.4 27.8,18.9 27.3,18.8 C27.2,18.8 27.2,18.8 27.1,18.8 L26.4,18.8 L26.4,16.9 L26.4,16.5 C26.4,15.8 25.8,15.3 25.2,15.3 C24.5,15.1 24.1,15.3 23.9,15.7 Z" id="Path"></path>
                <path d="M76.1,29.4 L64.3,29.4 C63.1,19.6 54.3,12.1 44.2,12.8 C43.5,12.8 42.8,12.9 42.1,13.1 C42.7,11.4 43.2,9.6 43,7.3 C42.6,3.4 39,0.3 35,0.3 C31,0.3 27.4,3.4 27.1,7.3 C27,8.1 27,8.7 27.1,9.4 C26.7,9.3 26.3,9.3 25.9,9.3 L25.8,9.3 C25.4,9.3 25,9.3 24.6,9.4 C24.7,8.7 24.7,8.1 24.6,7.3 C24.2,3.4 20.6,0.3 16.7,0.3 L16.6,0.3 C12.6,0.3 9,3.4 8.6,7.3 C8.4,9.7 8.9,11.5 9.5,13.3 C10.1,15 9.7,15.5 9,15.8 C8.5,16.1 8,16.3 7.4,16.6 C5.4,17.5 3.1,18.6 1.8,20.6 C0.8,22.1 0.8,23.9 0.8,25.3 L0.8,33.7 C0.8,34 0.9,34.3 1.2,34.6 C1.4,34.8 1.8,35 2.1,35 L8.7,35 C8.7,35 8.7,35 8.7,35.1 C8.2,41.1 9.6,45.9 12.7,49.3 C14.5,51.2 16.9,52.8 19.4,54.2 C18.9,55 18.6,56 18.8,57.1 C19,58.3 19.6,59.4 20.5,60.2 L21.1,60.7 C22.1,61.5 23.2,62 24.5,62 C25.8,62 26.9,61.5 27.7,60.6 L29.6,58.5 C30.1,58.7 30.8,58.8 31.5,58.8 C31.9,58.8 32.3,58.8 32.6,58.7 C33.9,58.4 34.9,57.4 35.3,56.1 C35.7,54.6 35.5,53.4 34.9,52.5 L37.7,49.3 C38.4,49.6 39.2,49.9 39.9,50.2 L39.9,70.9 C39.9,71.6 40.5,72.1 41.1,72.1 L76.3,72.1 C77,72.1 77.5,71.5 77.5,70.9 L77.5,30.6 C77.3,29.9 76.8,29.4 76.1,29.4 Z M74.8,69.3 L42.2,69.3 L42.2,50.4 L42.2,49.1 L42.2,47.8 L42.2,47.7 L42.2,46.4 L42.2,45.1 L42.2,43.7 L42.2,42.4 L42.2,41.1 L42.2,34.7 L42.2,32.2 L42.2,31.8 L48.2,31.8 L50.7,31.8 L55.5,31.8 L56.7,31.8 L58,31.8 L59.3,31.8 L60.5,31.8 L61.7,31.8 L62,31.8 L63.2,31.8 L64.4,31.8 L74.8,31.8 L74.8,69.3 Z M35.2,47.7 L32.9,50.4 C32.6,50.2 32.2,50 32,49.9 C31.3,49.5 30.3,48.9 29,48.2 C28.7,48 28.3,47.8 28,47.6 L31.1,44.1 C31.2,44.2 31.3,44.3 31.4,44.4 C31.6,44.6 31.7,44.7 31.9,44.9 C32.1,45.1 32.4,45.4 32.6,45.6 C32.9,45.9 33.3,46.2 33.6,46.5 C33.8,46.7 34.1,46.9 34.4,47.1 C34.6,47.2 34.8,47.4 35,47.5 C35,47.5 35.1,47.6 35.2,47.7 Z M32.6,55 C32.4,55.6 32.2,55.7 32,55.8 C31.8,56 31.5,56 31.2,56 C30.7,56 30.2,55.9 30,55.8 C30,55.8 30,55.8 30,55.8 L29.8,55.7 C29.4,55.6 29,55.4 28.6,55.2 C26.9,54.6 25,53.8 23.2,53 C22.8,52.8 22.4,52.6 22,52.4 C21.6,52.2 21.2,52 20.8,51.8 C18.3,50.5 16,49 14.3,47.2 C13.4,46.2 12.6,45 12.1,43.7 C11.9,43.3 11.8,42.9 11.7,42.5 C11.5,42 11.4,41.4 11.3,40.8 C11,39.1 10.9,37.1 11,35 C11,34.9 11,34.8 11,34.8 C11,34.4 11.1,34.1 11.2,33.7 C11.3,33.2 11.6,32.7 11.8,32.3 C12.2,31.6 12.7,30.9 13.4,30.3 C14.4,29.1 16,28.4 17.6,27.6 C18.2,27.3 18.8,27.1 19.3,26.8 C19.3,26.8 19.3,26.8 19.3,26.8 C19.6,26.6 19.8,26.5 20.1,26.3 C20.5,26.7 21.1,27.1 21.8,27.4 C22.8,28 24.1,28.4 25.6,28.4 C25.7,28.4 25.7,28.4 25.8,28.4 C26.1,28.4 26.5,28.4 26.8,28.3 C26.6,29.6 26.5,30.9 26.5,32.2 C26.5,32.4 26.5,32.7 26.5,32.9 C26.5,33.5 26.6,34.1 26.7,34.7 C27.1,37 27.9,39.2 29,41.2 L19.8,41.2 C19.8,41.2 19.8,41.2 19.8,41.2 C19.4,40.2 19.4,39.1 19.4,37.8 C19.4,37.5 19.4,37.2 19.4,36.9 C19.4,36.2 18.8,35.7 18.1,35.7 C17.8,35.7 17.6,35.8 17.4,35.9 C17.1,36.1 16.9,36.5 16.9,36.9 C16.9,37.2 16.9,37.5 16.9,37.7 C16.9,38.8 16.9,39.9 17.2,41.1 C17.3,41.4 17.4,41.7 17.5,42 C17.5,42.1 17.6,42.2 17.6,42.3 C17.8,42.8 18.1,43.2 18.4,43.5 C19.1,44.4 20.1,45.1 20.9,45.8 C21.2,46 21.4,46.2 21.7,46.4 C22.2,46.8 23.1,47.4 24,47.9 C24.4,48.1 24.7,48.3 25.1,48.5 C25.5,48.7 25.8,48.9 26.2,49.1 C26.7,49.4 27.2,49.7 27.7,49.9 C28.9,50.6 30,51.2 30.6,51.6 C30.7,51.6 30.7,51.7 30.8,51.7 C30.8,51.7 30.9,51.8 31.1,51.9 C31.4,52.1 31.8,52.3 32.1,52.7 C32.4,53 32.6,53.5 32.6,54 C32.7,54.5 32.7,54.8 32.6,55 Z M22.5,58.6 L21.9,58.1 C21.4,57.7 21.1,57.1 21,56.5 C20.9,56 21.1,55.5 21.4,55.1 L21.4,55 C23.2,55.9 25,56.6 26.8,57.3 L25.5,58.7 C24.9,59.5 23.5,59.4 22.5,58.6 Z M28,43.8 L25.8,46.3 C24.8,45.7 23.9,45.1 23.3,44.7 C23,44.5 22.7,44.3 22.5,44.1 C22.4,44 22.3,43.9 22.2,43.8 L28,43.8 Z M30.7,14.8 C30.8,15 30.9,15.2 31,15.5 C31.1,15.8 31.2,16.2 31.2,16.5 C31.3,17.2 31.2,17.9 31.1,18.6 C31.1,18.9 31,19.3 30.9,19.6 C30.8,19.7 30.7,19.9 30.6,20 C30,20.7 29.5,21.4 29.1,22.2 C28.4,23.3 27.9,24.5 27.5,25.8 C26.9,26 26.4,26.1 25.8,26.1 C25.8,26.1 25.7,26.1 25.7,26.1 C24.1,26.1 22.7,25.2 21.8,24.6 C21.6,24.5 21.5,24.3 21.3,24.2 C21.4,23.4 21.3,22.5 20.9,21.4 C20.7,21 20.6,20.6 20.5,20.2 C20.3,19.7 20.2,19.1 20.1,18.6 C20,17.9 20,17.2 20,16.5 C20,16.2 20.1,15.8 20.2,15.5 C20.3,15.3 20.4,15 20.5,14.8 C21.1,13.6 22.3,12.6 23.7,12.1 C24.3,11.9 24.9,11.8 25.5,11.8 L25.6,11.8 C26.2,11.8 26.8,11.9 27.4,12.1 C28.9,12.5 30.1,13.5 30.7,14.8 Z M37.6,46.2 C37.6,46.2 37.5,46.2 37.6,46.2 C36.4,45.5 35.3,44.7 34.3,43.8 C33.9,43.4 33.5,43 33.1,42.6 C32.8,42.3 32.5,41.9 32.3,41.6 C32.3,41.6 32.3,41.6 32.3,41.6 C32.2,41.5 32.2,41.4 32.1,41.4 C30.7,39.5 29.8,37.3 29.3,34.9 C29.2,34.2 29.1,33.6 29,32.9 C29,32.7 29,32.6 29,32.4 C28.9,30.7 29.1,29.1 29.5,27.6 C29.5,27.6 29.5,27.5 29.5,27.5 C29.7,26.7 30,26 30.3,25.2 C30.6,24.6 30.8,24 31.2,23.4 C31.2,23.4 31.3,23.3 31.3,23.3 C31.5,23 31.7,22.7 31.8,22.5 C32.2,21.9 32.7,21.3 33.2,20.7 C33.6,20.3 34,19.9 34.4,19.5 C35.9,18.1 37.7,17 39.7,16.3 C40.4,16 41.2,15.8 42,15.6 C42.1,15.6 42.2,15.5 42.3,15.5 C43,15.4 43.7,15.3 44.3,15.2 C44.7,15.2 45.1,15.2 45.4,15.2 C53.6,15.2 60.5,21.3 61.7,29.3 L61.5,29.3 L60.2,29.3 L59,29.3 L57.8,29.3 C56.9,24.7 53.5,21 49.2,19.7 C47.8,19.3 46.3,19.1 44.7,19.2 C44.6,19.2 44.4,19.2 44.3,19.3 C40.2,19.7 36.7,22.1 34.8,25.4 C34.6,25.8 34.4,26.1 34.2,26.5 C34,26.9 33.9,27.3 33.7,27.7 C33.2,29.2 33,30.7 33,32.4 C33,32.5 33,32.6 33,32.7 C33.1,33.5 33.2,34.2 33.4,34.9 C33.7,36.2 34.2,37.4 34.9,38.5 C35.6,39.6 36.4,40.6 37.4,41.4 C38,41.9 38.5,42.3 39.2,42.6 C39.4,42.7 39.5,42.8 39.7,42.9 L39.7,43.9 L39.7,44.4 L39.7,45.8 L39.7,47 L39.7,47.2 C39,46.9 38.2,46.6 37.6,46.2 Z M40.4,29.5 C40,29.7 39.7,30.1 39.7,30.6 L39.7,30.7 L39.7,32.3 L39.7,34.8 L39.7,39.9 C39.4,39.7 39.2,39.5 38.9,39.3 C38.2,38.7 37.5,37.9 37,37.1 C36.6,36.4 36.2,35.6 36,34.9 C35.7,34.1 35.6,33.3 35.5,32.5 C35.5,32.5 35.5,32.4 35.5,32.4 C35.4,31.2 35.6,30 35.9,28.9 C36,28.5 36.2,28.1 36.3,27.7 C36.5,27.3 36.7,27 36.9,26.6 C38.5,23.9 41.4,22 44.8,21.8 C45,21.8 45.3,21.8 45.5,21.8 C46.2,21.8 47,21.9 47.7,22 C48.8,22.2 49.8,22.6 50.7,23.2 C53,24.6 54.7,26.8 55.3,29.5 L50.8,29.5 L48.3,29.5 L41,29.5 C40.8,29.4 40.6,29.4 40.4,29.5 Z M29.5,7.5 C29.8,4.9 32.3,2.8 35,2.8 L35.1,2.8 C37.8,2.8 40.3,5 40.6,7.5 C40.8,9.2 40.4,10.5 39.8,12.4 C39.6,12.9 39.5,13.4 39.4,13.8 C37.3,14.5 35.4,15.5 33.8,16.8 C33.8,16.6 33.8,16.4 33.8,16.2 C33.5,13.7 31.9,11.5 29.8,10.3 C29.5,9.3 29.4,8.5 29.5,7.5 Z M10.9,7.5 C11.2,4.9 13.7,2.8 16.4,2.8 L16.5,2.8 C19.2,2.8 21.7,5 22,7.5 C22.1,8.5 22,9.4 21.8,10.3 C19.6,11.5 18,13.7 17.8,16.2 C17.8,16.4 17.8,16.7 17.8,16.9 C17.2,17 16.8,17 16.4,17 C14.4,17 12.8,15.8 12.1,15.1 C12.2,14.3 12.1,13.4 11.7,12.3 C11,10.5 10.7,9.2 10.9,7.5 Z M3.2,32.3 L3.2,25.2 C3.2,23.8 3.3,22.7 3.8,21.9 C4.7,20.5 6.6,19.6 8.3,18.8 C8.9,18.5 9.5,18.2 10,18 C10.3,17.8 10.5,17.7 10.8,17.5 C11.9,18.4 13.9,19.6 16.3,19.7 C16.4,19.7 16.4,19.7 16.5,19.7 C17,19.7 17.4,19.6 17.8,19.6 C18,20.6 18.3,21.5 18.6,22.4 C19.2,24.1 18.8,24.6 18.1,24.9 C17.6,25.2 17.1,25.4 16.5,25.7 C14.9,26.5 13.1,27.3 11.8,28.7 C11.8,28.7 11.8,28.7 11.8,28.7 C10.5,29.8 9.6,31.2 9,32.6 L3.2,32.6 L3.2,32.3 Z" id="Shape" fill-rule="nonzero"></path>
                <path d="M62.9,35.4 L61.6,35.4 L61.5,35.4 L60.2,35.4 L58.9,35.4 L57.5,35.4 L56.2,35.4 L54.9,35.4 L46.2,35.4 C45.5,35.4 45,36 45,36.6 L45,41.7 L45,43 L45,44.2 L45,45.6 L45,46.9 L45,48.1 L45,48.2 L45,49.5 L45,50.8 L45,51 C45,51.7 45.6,52.2 46.2,52.2 L70.9,52.2 C71.6,52.2 72.1,51.6 72.1,51 L72.1,36.6 C72.1,35.9 71.5,35.4 70.9,35.4 L64.2,35.4 L62.9,35.4 Z M69.6,49.6 L51.8,49.6 L47.4,49.6 L47.4,49.3 L47.4,48 L47.4,46.7 L47.4,45.4 L47.4,44 L47.4,42.7 L47.4,41.4 L47.4,37.7 L53.4,37.7 L55,37.7 L56.5,37.7 L58,37.7 L59.4,37.7 L60.7,37.7 L60.8,37.7 L62.2,37.7 L63.5,37.7 L69.6,37.7 L69.6,49.6 Z" id="Shape" fill-rule="nonzero"></path>
                <path d="M54.5,55.2 L46.2,55.2 C45.5,55.2 45,55.8 45,56.4 L45,64.7 C45,65.4 45.6,65.9 46.2,65.9 L54.5,65.9 C55.2,65.9 55.7,65.3 55.7,64.7 L55.7,56.4 C55.7,55.7 55.2,55.2 54.5,55.2 Z M53.2,63.5 L47.4,63.5 L47.4,57.7 L53.2,57.7 L53.2,63.5 Z" id="Shape" fill-rule="nonzero"></path>
                <polygon id="Path" points="58.9 56.4 58.9 57.7 72.2 57.7 72.2 56.4 72.2 55.2 58.9 55.2"></polygon>
                <polygon id="Path" points="58.9 60.6 58.9 61.8 72.2 61.8 72.2 60.6 72.2 59.3 58.9 59.3"></polygon>
                <polygon id="Path" points="58.9 64.8 58.9 66 72.2 66 72.2 64.8 72.2 63.5 58.9 63.5"></polygon>
            </g>
        </g>
    </g>
</svg>