<?xml version="1.0" encoding="UTF-8"?>
<svg width="90px" height="90px" viewBox="0 0 90 90" version="1.1" xmlns="http://www.w3.org/2000/svg" xmlns:xlink="http://www.w3.org/1999/xlink">
    <!-- Generator: Sketch 52.6 (67491) - http://www.bohemiancoding.com/sketch -->
    <title>Qualitative Users Research</title>
    <desc>Created with Sketch.</desc>
    <g id="Qualitative-Users-Research" stroke="none" stroke-width="1" fill="none" fill-rule="evenodd">
        <g id="noun_interview_250400" transform="translate(4.000000, 8.000000)" fill="#000000">
            <path d="M48.4623795,66.3612976 L44.5268784,59.0474014 C43.8031769,57.6361999 42.3642769,56.7598037 40.771,56.7598037 C40.1093789,56.7598037 39.4477769,56.9198989 38.85738,57.222702 L35.9599992,58.7099991 C34.9618798,59.2221985 34.2221795,60.0951996 33.8773805,61.1675034 C33.5321771,62.2406998 33.6240007,63.3813019 34.1478807,64.4003983 L38.0834772,71.714798 C38.8070795,73.125 40.2460787,74.0009995 41.8388788,74.0009995 C42.5009996,74.0009995 43.1625788,73.8407975 43.7528803,73.5381012 L46.6498795,72.0513 C47.6478768,71.5395965 48.3876801,70.6664962 48.7328797,69.5938034 C49.0785789,68.5205002 48.9862785,67.3798981 48.4623795,66.3612976 Z M36.4770775,63.4545975 L36.3603783,63.2372971 C36.1532784,62.8335038 36.1166802,62.3705979 36.2567788,61.9336014 C36.3978768,61.4961014 36.6977769,61.141098 37.1015778,60.9336014 L39.998478,59.4468003 C40.2401772,59.3227998 40.5000001,59.2598038 40.771,59.2598038 C41.4218789,59.2598038 42.0087777,59.6156998 42.3139993,60.2099991 L42.3734781,60.3202973 C41.226078,62.2445984 36.4770775,63.4545975 36.4770775,63.4545975 Z M38.8095779,67.7393036 C38.8017768,67.7412033 38.796379,67.7471008 38.788578,67.7494965 L37.6786804,65.6875 C39.1669998,65.2832031 42.2357788,64.2910004 43.6640777,62.7188034 L44.6698799,64.5884018 C43.6210785,66.6611023 38.8095779,67.7393036 38.8095779,67.7393036 Z M46.3534775,68.8275986 C46.2128792,69.2650986 45.9130783,69.6195984 45.5087776,69.8271027 L42.6117782,71.314003 C41.7904777,71.7372971 40.7294769,71.3930969 40.296379,70.5518036 L40.0038795,70.0083008 C41.5839996,69.5673981 44.6166801,68.5497971 45.9452781,66.9589997 L46.25,67.5249023 C46.4570007,67.9281998 46.493679,68.391098 46.3534775,68.8275986 Z" id="Shape" fill-rule="nonzero"></path>
            <g id="Group" transform="translate(0.000000, 30.000000)">
                <path d="M33.4550781,19.0625 C33.2904777,18.4501991 33.131279,17.8266983 32.9706802,17.1973 C32.3495788,14.7636986 31.70018,12.2528992 30.6596794,9.8964997 C30.6293793,9.8280984 30.6063804,9.7573014 30.5756798,9.689499 C30.5707779,9.6791993 30.5629997,9.6708985 30.5575791,9.6601983 C30.5331803,9.6068993 30.521,9.5463983 30.4877778,9.4980012 C29.5404778,7.4585 28.3950005,5.8193017 26.9906808,4.492199 C24.3110009,1.9603997 20.7304784,0.565899 16.9086801,0.565899 C12.6117803,0.565899 8.4594785,2.3139993 5.5165798,5.3613015 C3.8153793,7.1216012 2.5023796,9.4096986 1.7187797,11.9780007 C0.6693794,15.419899 0.4560796,19.2733994 1.0839998,23.4316025 C1.4398796,25.7855988 2.0430004,28.8423004 3.55468,31.6093979 C4.1142799,32.6337967 4.7611791,33.6929016 5.7011796,34.5009995 C5.7904798,34.5771027 6.016079,34.7300034 6.2958795,34.9072037 C6.44088,34.9990006 6.7152788,35.1728974 6.9213792,35.3169022 L6.9213792,41.643097 C6.9213792,42.3335038 7.481001,42.893097 8.1713792,42.893097 L22.2592775,42.893097 C22.9496805,42.893097 23.5092775,42.3335038 23.5092775,41.643097 C23.5092775,41.0249024 23.5121805,40.5766984 23.5150797,40.1816026 C23.5180781,39.7465974 23.5204775,39.3750001 23.5180781,38.9164964 C25.5175784,38.8974992 26.8056796,38.7852021 27.3524783,38.5820009 C29.3744777,37.8295976 30.4076808,34.7426988 30.3534778,32.2197038 C30.3407787,31.6195985 29.9027789,31.1132966 29.3110011,31.0137025 C27.7377777,30.75 26.6278801,30.2002029 26.102478,29.4243011 C25.9608803,29.2153015 25.8705787,29.0038986 25.8139991,28.8070983 C25.8290786,28.8070983 25.8441772,28.8070983 25.8593787,28.8070983 L29.6030005,28.8090972 L29.6034773,28.8090972 C30.2450789,28.8090972 30.7821768,28.3242034 30.847679,27.6865005 L31.1610793,24.6215972 L33.3090781,24.6215972 C33.6010779,24.6215972 33.8837775,24.5195006 34.1083792,24.3324966 C34.9160002,23.6605987 34.6898802,22.8486023 33.6015776,19.517601 C33.5272789,19.2900009 33.4721794,19.1235008 33.4550781,19.0625 Z M28.7890778,23.2441025 L28.4755783,26.3086014 L25.8593788,26.3070984 C24.3437805,26.3070984 24.3437805,26.3070984 24.1459999,26.373497 C23.7411804,26.5083008 23.4335785,26.8403015 23.3295784,27.2534027 C23.2826805,27.4380035 22.9062805,29.1039963 23.9892807,30.7611999 C24.7611771,31.942398 26.0429993,32.7753982 27.807579,33.2455978 C27.6254806,34.8070983 26.9691772,36.0576019 26.4990005,36.2329025 C26.1889991,36.3246994 24.7504806,36.419403 22.8793792,36.419403 C22.6127776,36.419403 22.403778,36.4169997 22.2860793,36.4141006 C21.9447783,36.3964996 21.615179,36.5355987 21.3725795,36.7759017 C21.1298789,37.0160979 20.9965781,37.3451995 21.0023784,37.6865005 C21.0243797,38.8593978 21.0204791,39.4145965 21.0150794,40.1645965 C21.0145797,40.2388 21.0141791,40.3144988 21.0136794,40.3930969 L9.4213791,40.3930969 L9.4213791,34.9775009 C9.4457798,34.9175033 9.4780007,34.8368988 9.504879,34.7710037 C9.5492802,34.6611023 9.5932789,34.5526962 9.6435795,34.4276962 C9.6952801,34.2968979 9.7520008,34.1503982 9.8080788,34.004898 C9.8515797,33.8936004 9.8930798,33.7891006 9.9379998,33.6704025 C9.9984799,33.5098037 10.0604802,33.3354034 10.1234799,33.1621017 C10.1669999,33.0414962 10.2103787,32.9272003 10.2543793,32.8013 C10.3178788,32.6195983 10.379879,32.4268035 10.442379,32.2358016 C10.4853802,32.1054992 10.52878,31.9804992 10.5702801,31.8467025 C10.6332798,31.6455001 10.6903801,31.4374999 10.7494793,31.2300033 C10.7870789,31.0980987 10.8275795,30.9697036 10.8627796,30.8358993 C10.9213791,30.6162033 10.9701786,30.3936004 11.0214786,30.1708984 C11.0497798,30.0454025 11.0834789,29.9208984 11.1093788,29.7954025 C11.1601791,29.5503006 11.1967792,29.3066025 11.2343788,29.0634994 C11.2504787,28.959999 11.2733784,28.8560028 11.2865791,28.7534027 C11.33148,28.4092026 11.3617801,28.0692978 11.3720798,27.7388 C11.3822784,27.4019012 11.2562789,27.0752029 11.02248,26.8324966 C10.8500786,26.6532974 10.6303787,26.5317001 10.3915787,26.4789962 C10.0400009,26.317398 6.391079,24.470703 7.35248,19.2798003 C7.7553788,17.1054992 9.2362786,16.648899 10.4071789,16.648899 C11.3120003,16.648899 12.2719994,16.9434013 12.8540001,17.398899 C13.1566792,17.6352996 13.5536785,17.7123985 13.9301796,17.6190986 C14.3036785,17.5264015 14.6171799,17.2583007 14.77388,16.9062995 C14.7831783,16.8852996 15.7523785,14.7788009 19.7362785,12.1206016 C19.8540001,12.0419998 19.9721794,11.9716987 20.0897789,11.9009017 L20.1879997,11.8418006 C21.6879997,10.9448012 23.256279,10.5273017 25.1220779,10.5273017 L25.2421798,10.5278014 C25.4901771,10.5303 25.75148,10.5371016 26.0145797,10.5498008 C26.046379,10.5513 26.0766792,10.5517997 26.1083793,10.5536994 C26.3622779,10.5674018 26.6166801,10.5898017 26.8666801,10.6206016 C26.9081802,10.6254997 26.9481773,10.6304016 26.9892807,10.6357002 C27.2338791,10.6693992 27.4706802,10.7148018 27.693779,10.7724991 C27.7313805,10.7821999 27.7670784,10.7929993 27.8041802,10.8031998 C28.0253792,10.8666993 28.2318802,10.9429016 28.4130784,11.038601 C28.4223786,11.0429993 28.434578,11.0453988 28.4437791,11.0503007 C28.4452783,11.0531999 28.4462777,11.0565988 28.4472772,11.0596009 C29.3661806,13.1865006 29.9672777,15.5381013 30.5482789,17.815899 C30.7118798,18.4551011 30.873478,19.0884019 31.0410005,19.7128984 C31.061001,19.7860986 31.1288797,19.9990007 31.2250787,20.2934991 C31.4677774,21.0355989 31.6596795,21.6455003 31.8007776,22.1215974 L30.0326807,22.1215974 C29.3915787,22.1215973 28.8544769,22.6063995 28.7890778,23.2441025 Z" id="Shape" fill-rule="nonzero"></path>
                <circle id="Oval" cx="24.5415039" cy="18.9966011" r="1.8965"></circle>
                <path d="M80.2812805,12.4355011 C79.4980011,9.8690987 78.1850738,7.5811005 76.4833755,5.8198013 C73.5404739,2.7724991 69.3881759,1.0248985 65.091278,1.0248985 C61.2694778,1.0248985 57.6890029,2.4193992 55.0092773,4.9511985 C53.5610008,6.3188018 52.3881797,8.0186004 51.4232788,10.147499 C50.3305778,12.559101 49.6703796,15.1445006 49.0312767,17.6450004 C48.8695793,18.2778015 48.7094765,18.9043006 48.5360794,19.5503005 C47.0487785,25.0927962 47.2445793,25.254898 47.894001,25.7925033 C48.0883789,25.9531021 48.3266792,26.0518035 48.5775795,26.0742034 C48.6361771,26.0795974 48.6435776,26.0805968 50.8183785,26.0805968 L51.2538796,31.2471007 C51.2626801,31.3486022 51.2831765,31.4468001 51.3139992,31.5395964 C51.3876801,33.9922026 52.7020798,37.0352019 54.6254807,37.7509993 C55.2704773,37.9912032 57.1518784,38.2041014 58.4823761,38.3066023 C58.477478,39.0634993 58.4810028,39.7695006 58.4848785,40.5111998 L58.4896774,42.101097 C58.4896774,42.7914962 59.0492782,43.351097 59.7396774,43.351097 L73.8285751,43.351097 C74.5189972,43.351097 75.0785751,42.7914962 75.0785751,42.101097 L75.0785751,35.7749022 C75.2841797,35.6313017 75.5570755,35.4585036 75.7016754,35.3666991 C75.9833755,35.1884993 76.2103805,35.0336989 76.2997742,34.9570006 C77.2382813,34.1503981 77.8852768,33.0923003 78.4452744,32.0683974 C79.9570008,29.3012999 80.5600739,26.2441024 80.9160004,23.8891982 C81.5438766,19.7313995 81.330574,15.8778992 80.2812805,12.4355011 Z M58.6015778,31.9224014 C59.2396775,31.658699 59.54348,30.9276962 59.2797776,30.2900009 C59.0160752,29.6513977 58.2836762,29.3471985 57.6474763,29.6118011 C56.0785752,30.2587966 54.5507814,30.2304992 53.6688768,30.1317977 L53.2128793,24.7256011 C53.1581765,24.078102 52.6166764,23.5805968 51.9672776,23.5805968 C51.9672776,23.5805968 50.9936791,23.5805968 50.1088792,23.5805968 C50.2777787,22.8080977 50.5575792,21.663597 50.9584771,20.1684989 C51.1264802,19.5434989 51.2890778,18.9067 51.453579,18.2636985 C52.0341797,15.9902 52.6347771,13.6431007 53.5507775,11.5195007 C53.5521775,11.5161018 53.5531769,11.5126991 53.5546799,11.5097999 C53.5644799,11.5043983 53.5780793,11.5023994 53.5878792,11.4971008 C53.77388,11.4003982 53.9867783,11.3232002 54.2147751,11.2593002 C54.2528763,11.2485008 54.2895813,11.2383003 54.3280792,11.2280006 C54.557579,11.1703987 54.7997818,11.125 55.0478744,11.0918006 C55.0907745,11.0858993 55.1322784,11.0811004 55.1757812,11.0761985 C55.4267807,11.0458984 55.6801757,11.0233993 55.9276809,11.0107001 C55.9628753,11.0088004 55.9940795,11.0078009 56.028778,11.0063018 C56.2826766,10.9945983 56.5316772,10.9878005 56.7582778,10.9858016 C56.9525756,10.9828986 57.1278762,11.0049018 57.3144759,11.0111999 C59.0023803,11.0663986 60.4228743,11.4692001 61.8754805,12.3389015 C62.004875,12.4160003 62.1347807,12.4926986 62.2645796,12.5796013 C66.2475813,15.2363014 67.2157744,17.3437996 67.2182768,17.3485985 C67.3671797,17.7103996 67.6767805,17.9818993 68.0551756,18.0820008 C68.4325789,18.1831017 68.8363798,18.0996018 69.1449965,17.8578988 C69.2710036,17.7593003 69.4232787,17.6698991 69.5858763,17.5853997 C69.6366804,17.5596009 69.6894758,17.5346986 69.7431792,17.5102998 C69.8651808,17.4546014 69.9936751,17.4043008 70.1288756,17.3588983 C70.1864775,17.3394014 70.2411803,17.317402 70.3007811,17.299801 C70.4800032,17.247101 70.6664809,17.2041017 70.8588789,17.1724016 C70.9281767,17.1610987 70.999481,17.1567003 71.0697783,17.1483995 C71.2011794,17.1328012 71.3324812,17.1216013 71.4657744,17.1171991 C71.5717772,17.1142999 71.6771773,17.1128008 71.7831801,17.1176988 C71.8241805,17.1190988 71.8651808,17.1211015 71.9062804,17.1240007 C72.0312804,17.1333009 72.1552809,17.1509019 72.2777785,17.1724016 C72.3197783,17.1796991 72.3617781,17.1855013 72.4032744,17.1943018 C72.5210036,17.2197001 72.6347807,17.2549021 72.748001,17.2929995 C72.7831801,17.3046992 72.8202743,17.3105013 72.8550033,17.3237002 C72.8637771,17.3270991 72.8705749,17.3335002 72.8793792,17.3368991 C73.0941772,17.4208987 73.2890777,17.5288013 73.467781,17.6581996 C73.5077743,17.6875003 73.5429992,17.723099 73.5814742,17.7543986 C73.7118758,17.8613017 73.8305739,17.982899 73.9394759,18.1161997 C73.9857787,18.1733019 74.0321807,18.2309992 74.0741805,18.2924997 C74.1693801,18.4306986 74.2509993,18.5849992 74.3261794,18.747101 C74.3563765,18.8129999 74.392578,18.8726007 74.419876,18.9429018 C74.5145797,19.1855013 74.592781,19.4477999 74.6464766,19.7378008 C75.6078795,24.929703 71.9594801,26.7753985 71.6078795,26.9369967 C71.3690795,26.9893038 71.1488799,27.1112978 70.9760741,27.2904971 C70.9032744,27.3657 70.8617781,27.4604037 70.8104781,27.5497973 C70.8080748,27.5541995 70.8056792,27.5576022 70.8031768,27.5619967 C70.7558746,27.6474993 70.716278,27.7313998 70.6898803,27.8256991 C70.6142806,28.0474017 70.6020812,28.2822039 70.6532745,28.5117037 C70.6679992,28.7436983 70.6815796,28.9750979 70.7123794,29.2128985 C70.727478,29.3266985 70.7523803,29.4419024 70.7704772,29.5561984 C70.8070754,29.7881015 70.8417739,30.0199969 70.8895797,30.2528994 C70.9193801,30.3974993 70.9574813,30.5404971 70.9911803,30.6846011 C71.0385741,30.8881991 71.0830001,31.0927966 71.1361769,31.2938998 C71.1767805,31.445801 71.2216795,31.5917971 71.2645796,31.7412036 C71.3187788,31.9297031 71.3710783,32.1201022 71.4281767,32.3037036 C71.4770811,32.4599994 71.5282744,32.6073993 71.578079,32.758797 C71.6337812,32.9257968 71.6880033,33.0957034 71.743675,33.2554019 C71.7982786,33.4115985 71.8515775,33.555199 71.9057767,33.7031024 C71.9574811,33.8438037 72.0087812,33.9882968 72.0585782,34.1211017 C72.118179,34.2782977 72.174278,34.4198993 72.2304761,34.5634998 C72.2714765,34.6679996 72.3124768,34.7763981 72.3510739,34.8725971 C72.4223782,35.0513004 72.4882809,35.2138981 72.5487744,35.361298 C72.5575787,35.3837971 72.5697781,35.414101 72.5785748,35.4355015 L72.5785748,40.8510975 L60.9857788,40.8510975 L60.9848785,40.4990009 C60.9789962,39.3983997 60.9740753,38.3774036 60.9975814,37.144997 C61.0038757,36.8037037 60.870079,36.4746021 60.6278762,36.2339023 C60.3856811,35.9936984 60.0590743,35.8612979 59.7138747,35.8721012 C59.0946807,35.8877033 56.0243758,35.5888981 55.498001,35.4082035 C55.0033797,35.2240986 54.2870788,34.0361027 53.9706763,32.6670002 C55.1679993,32.7372971 56.852478,32.6449966 58.6015778,31.9224014 Z" id="Shape" fill-rule="nonzero"></path>
                <circle id="Oval" cx="57.4584961" cy="19.4546013" r="1.8965"></circle>
                <path d="M70.0019989,24.6625977 C70.1190796,24.6962967 70.2367783,24.7128983 70.352478,24.7128983 C70.8939972,24.7128983 71.393074,24.3583985 71.5521774,23.8125 C71.8627777,22.7471008 72.1195755,21.2406998 72.1303787,21.1772003 C72.2455749,20.4966011 71.7875747,19.8516006 71.1068802,19.7358017 C70.427681,19.6269989 69.7812805,20.0786018 69.6654816,20.7593002 C69.6630783,20.7733993 69.421875,22.1875 69.1518784,23.112297 C68.9589996,23.7749023 69.3393784,24.4692001 70.0019989,24.6625977 Z" id="Path"></path>
                <path d="M11.7479992,24.1757965 C11.6308785,24.2095032 11.5131798,24.2260971 11.39748,24.2260971 C10.8560009,24.2260971 10.3568802,23.8715973 10.1977787,23.3256988 C9.8871784,22.2602996 9.6303787,20.7538986 9.6195793,20.6903991 C9.5043793,20.0097999 9.9623794,19.3647002 10.6430797,19.2490005 C11.3222789,19.1400985 11.9687786,19.5918006 12.0844783,20.272499 C12.0868797,20.2865981 12.3280791,21.7006988 12.5980796,22.6255035 C12.7910004,23.2881012 12.4105797,23.982399 11.7479992,24.1757965 Z" id="Path"></path>
            </g>
            <path d="M43.5839996,26.2666016 L50.6981773,26.2666016 C55.7987747,26.2666016 59.9481811,22.117199 59.9481811,17.0165997 L59.9481811,9.5312996 C59.9481811,4.4307003 55.7987747,0.2812996 50.6981773,0.2812996 L27.2020798,0.2812996 C22.1015778,0.2812996 17.9520798,4.4307003 17.9520798,9.5312996 L17.9520798,17.0165997 C17.9520798,22.117199 22.1015778,26.2666016 27.2020798,26.2666016 L32.5712776,26.2666016 C32.3734779,28.1299019 32.0116806,31.4131012 31.7470779,33.0825005 C31.6884803,33.4520989 31.7982788,33.8280983 32.046379,34.1078988 C32.2841796,34.3759995 32.6244773,34.5283013 32.9813804,34.5283013 C32.9970779,34.5283013 33.0131797,34.5278016 33.028778,34.5273018 C33.1068802,34.5243988 40.5888786,34.1474991 43.5839996,26.2666016 Z M34.4570007,31.7583008 C34.8070793,29.0391007 35.182579,25.3349991 35.2020797,25.142601 C35.2377776,24.7905006 35.1225776,24.4403992 34.8856773,24.1781998 C34.64888,23.9160004 34.3120002,23.7666016 33.958477,23.7666016 L27.2020798,23.7666016 C23.4799996,23.7666016 20.4520798,20.7388001 20.4520798,17.0165997 L20.4520798,9.5312996 C20.4520798,5.8090992 23.4799996,2.7812996 27.2020798,2.7812996 L50.6981774,2.7812996 C54.4203797,2.7812996 57.4481812,5.8090992 57.4481812,9.5312996 L57.4481812,17.0165997 C57.4481812,20.7388001 54.4203797,23.7666016 50.6981774,23.7666016 L42.6952782,23.7666016 C42.1498795,23.7666016 41.6674767,24.1200982 41.5033799,24.6400986 C39.9496803,29.5629997 36.4765778,31.2094994 34.4570007,31.7583008 Z" id="Shape" fill-rule="nonzero"></path>
            <path d="M51.8607788,17.1665001 C51.8607788,16.4761009 51.3012772,15.9165001 50.6107788,15.9165001 L27.4994774,15.9165001 C26.8090782,15.9165001 26.2494774,16.4761009 26.2494774,17.1665001 C26.2494774,17.8568993 26.8090782,18.4165001 27.4994774,18.4165001 L50.6107788,18.4165001 C51.3012772,18.4165001 51.8607788,17.8568993 51.8607788,17.1665001 Z" id="Path"></path>
            <path d="M27.4994774,11.3983994 L43.8412781,11.3983994 C44.5316773,11.3983994 45.0912781,10.8388997 45.0912781,10.1483994 C45.0912781,9.4580002 44.5316773,8.8983994 43.8412781,8.8983994 L27.4994774,8.8983994 C26.8090782,8.8983994 26.2494774,9.4580002 26.2494774,10.1483994 C26.2494774,10.8388996 26.8090782,11.3983994 27.4994774,11.3983994 Z" id="Path"></path>
        </g>
    </g>
</svg>