<?xml version="1.0" encoding="UTF-8"?>
<svg width="90px" height="90px" viewBox="0 0 90 90" version="1.1" xmlns="http://www.w3.org/2000/svg" xmlns:xlink="http://www.w3.org/1999/xlink">
    <!-- Generator: Sketch 52.6 (67491) - http://www.bohemiancoding.com/sketch -->
    <title>Scenario Planning</title>
    <desc>Created with Sketch.</desc>
    <g id="Scenario-Planning" stroke="none" stroke-width="1" fill="none" fill-rule="evenodd">
        <g id="noun_process_339025" transform="translate(13.000000, 11.000000)" fill="#000000" fill-rule="nonzero">
            <g id="Group">
                <path d="M62.6666667,6.76470588 L54.6666667,6.76470588 L54.6666667,1.35294118 C54.6666667,0.605846653 54.0695903,0 53.3333333,0 L45.3333333,0 C44.5970561,0 44,0.605846653 44,1.35294118 L44,6.76470588 L20,6.76470588 L20,1.35294118 C20,0.605846653 19.4029236,0 18.6666667,0 L10.6666667,0 C9.93038947,0 9.33333333,0.605846653 9.33333333,1.35294118 L9.33333333,6.76470588 L1.33333333,6.76470588 C0.597056133,6.76470588 0,7.37055254 0,8.11764706 L0,67.6470588 C0,68.3941533 0.597056133,69 1.33333333,69 L62.6666667,69 C63.4029236,69 64,68.3941533 64,67.6470588 L64,8.11764706 C64,7.37055254 63.4029236,6.76470588 62.6666667,6.76470588 Z M46.6666667,2.70588235 L52,2.70588235 L52,6.76470588 L46.6666667,6.76470588 L46.6666667,2.70588235 Z M12,2.70588235 L17.3333333,2.70588235 L17.3333333,6.76470588 L12,6.76470588 L12,2.70588235 Z M61.3333333,66.2941176 L2.66666667,66.2941176 L2.66666667,9.47058824 L61.3333333,9.47058824 L61.3333333,66.2941176 Z" id="Shape"></path>
                <path d="M52,17.5882353 L46.6666667,17.5882353 C45.9303895,17.5882353 45.3333333,18.1940819 45.3333333,18.9411765 L45.3333333,20.2941176 L36,20.2941176 L36,18.9411765 C36,18.1940819 35.4029236,17.5882353 34.6666667,17.5882353 L29.3333333,17.5882353 C28.5970561,17.5882353 28,18.1940819 28,18.9411765 L28,20.2941176 L18.6666667,20.2941176 L18.6666667,18.9411765 C18.6666667,18.1940819 18.0695903,17.5882353 17.3333333,17.5882353 L12,17.5882353 C11.2637228,17.5882353 10.6666667,18.1940819 10.6666667,18.9411765 L10.6666667,24.3529412 C10.6666667,25.1000357 11.2637228,25.7058824 12,25.7058824 L17.3333333,25.7058824 C18.0695903,25.7058824 18.6666667,25.1000357 18.6666667,24.3529412 L18.6666667,23 L28,23 L28,24.3529412 C28,25.1000357 28.5970561,25.7058824 29.3333333,25.7058824 L34.6666667,25.7058824 C35.4029236,25.7058824 36,25.1000357 36,24.3529412 L36,23 L45.3333333,23 L45.3333333,24.3529412 C45.3333333,25.1000357 45.9303895,25.7058824 46.6666667,25.7058824 L48,25.7058824 L48,33.8235294 L46.6666667,33.8235294 C45.9303895,33.8235294 45.3333333,34.4293761 45.3333333,35.1764706 L45.3333333,36.5294118 L36,36.5294118 L36,35.1764706 C36,34.4293761 35.4029236,33.8235294 34.6666667,33.8235294 L29.3333333,33.8235294 C28.5970561,33.8235294 28,34.4293761 28,35.1764706 L28,36.5294118 L18.6666667,36.5294118 L18.6666667,35.1764706 C18.6666667,34.4293761 18.0695903,33.8235294 17.3333333,33.8235294 L12,33.8235294 C11.2637228,33.8235294 10.6666667,34.4293761 10.6666667,35.1764706 L10.6666667,40.5882353 C10.6666667,41.3353298 11.2637228,41.9411765 12,41.9411765 L13.3333333,41.9411765 L13.3333333,50.0588235 L12,50.0588235 C11.2637228,50.0588235 10.6666667,50.6646702 10.6666667,51.4117647 L10.6666667,56.8235294 C10.6666667,57.5706239 11.2637228,58.1764706 12,58.1764706 L17.3333333,58.1764706 C18.0695903,58.1764706 18.6666667,57.5706239 18.6666667,56.8235294 L18.6666667,55.4705882 L28,55.4705882 L28,56.8235294 C28,57.5706239 28.5970561,58.1764706 29.3333333,58.1764706 L34.6666667,58.1764706 C35.4029236,58.1764706 36,57.5706239 36,56.8235294 L36,55.4705882 L45.3333333,55.4705882 L45.3333333,56.8235294 C45.3333333,57.5706239 45.9303895,58.1764706 46.6666667,58.1764706 L52,58.1764706 C52.7362569,58.1764706 53.3333333,57.5706239 53.3333333,56.8235294 L53.3333333,51.4117647 C53.3333333,50.6646702 52.7362569,50.0588235 52,50.0588235 L46.6666667,50.0588235 C45.9303895,50.0588235 45.3333333,50.6646702 45.3333333,51.4117647 L45.3333333,52.7647059 L36,52.7647059 L36,51.4117647 C36,50.6646702 35.4029236,50.0588235 34.6666667,50.0588235 L29.3333333,50.0588235 C28.5970561,50.0588235 28,50.6646702 28,51.4117647 L28,52.7647059 L18.6666667,52.7647059 L18.6666667,51.4117647 C18.6666667,50.6646702 18.0695903,50.0588235 17.3333333,50.0588235 L16,50.0588235 L16,41.9411765 L17.3333333,41.9411765 C18.0695903,41.9411765 18.6666667,41.3353298 18.6666667,40.5882353 L18.6666667,39.2352941 L28,39.2352941 L28,40.5882353 C28,41.3353298 28.5970561,41.9411765 29.3333333,41.9411765 L34.6666667,41.9411765 C35.4029236,41.9411765 36,41.3353298 36,40.5882353 L36,39.2352941 L45.3333333,39.2352941 L45.3333333,40.5882353 C45.3333333,41.3353298 45.9303895,41.9411765 46.6666667,41.9411765 L52,41.9411765 C52.7362569,41.9411765 53.3333333,41.3353298 53.3333333,40.5882353 L53.3333333,35.1764706 C53.3333333,34.4293761 52.7362569,33.8235294 52,33.8235294 L50.6666667,33.8235294 L50.6666667,25.7058824 L52,25.7058824 C52.7362569,25.7058824 53.3333333,25.1000357 53.3333333,24.3529412 L53.3333333,18.9411765 C53.3333333,18.1940819 52.7362569,17.5882353 52,17.5882353 Z M16,23 L13.3333333,23 L13.3333333,20.2941176 L16,20.2941176 L16,23 Z M33.3333333,23 L30.6666667,23 L30.6666667,20.2941176 L33.3333333,20.2941176 L33.3333333,23 Z M48,52.7647059 L50.6666667,52.7647059 L50.6666667,55.4705882 L48,55.4705882 L48,52.7647059 Z M30.6666667,52.7647059 L33.3333333,52.7647059 L33.3333333,55.4705882 L30.6666667,55.4705882 L30.6666667,52.7647059 Z M16,55.4705882 L13.3333333,55.4705882 L13.3333333,52.7647059 L16,52.7647059 L16,55.4705882 Z M16,39.2352941 L13.3333333,39.2352941 L13.3333333,36.5294118 L16,36.5294118 L16,39.2352941 Z M33.3333333,39.2352941 L30.6666667,39.2352941 L30.6666667,36.5294118 L33.3333333,36.5294118 L33.3333333,39.2352941 Z M50.6666667,39.2352941 L48,39.2352941 L48,36.5294118 L50.6666667,36.5294118 L50.6666667,39.2352941 Z M50.6666667,23 L48,23 L48,20.2941176 L50.6666667,20.2941176 L50.6666667,23 Z" id="Shape"></path>
            </g>
        </g>
    </g>
</svg>