<?xml version="1.0" encoding="UTF-8"?>
<svg width="90px" height="90px" viewBox="0 0 90 90" version="1.1" xmlns="http://www.w3.org/2000/svg" xmlns:xlink="http://www.w3.org/1999/xlink">
    <!-- Generator: Sketch 52.6 (67491) - http://www.bohemiancoding.com/sketch -->
    <title>Service Blueprinting</title>
    <desc>Created with Sketch.</desc>
    <g id="Service-Blueprinting" stroke="none" stroke-width="1" fill="none" fill-rule="evenodd">
        <g id="noun_Card-sorting_229075" transform="translate(14.000000, 9.000000)" fill="#000000" fill-rule="nonzero">
            <g id="Group">
                <path d="M16.2,0 L1.2,0 C0.5,0 3.55271368e-15,0.6 3.55271368e-15,1.2 L3.55271368e-15,13.4 C3.55271368e-15,14.1 0.6,14.6 1.2,14.6 L7.4,14.6 L7.4,18.4 L1.2,18.4 C0.5,18.4 3.55271368e-15,19 3.55271368e-15,19.6 L3.55271368e-15,28 C3.55271368e-15,28.7 0.6,29.2 1.2,29.2 L7.4,29.2 L7.4,32.5 L1.2,32.5 C0.5,32.5 3.55271368e-15,33.1 3.55271368e-15,33.7 L3.55271368e-15,42.1 C3.55271368e-15,42.8 0.6,43.3 1.2,43.3 L7.4,43.3 L7.4,46.6 L1.2,46.6 C0.5,46.6 3.55271368e-15,47.2 3.55271368e-15,47.8 L3.55271368e-15,56.2 C3.55271368e-15,56.9 0.6,57.4 1.2,57.4 L16.2,57.4 C16.9,57.4 17.4,56.8 17.4,56.2 L17.4,47.8 C17.4,47.1 16.8,46.6 16.2,46.6 L10,46.6 L10,43.3 L16.2,43.3 C16.9,43.3 17.4,42.7 17.4,42.1 L17.4,34 C17.4,33.3 16.8,32.8 16.2,32.8 L10,32.8 L10,29.5 L16.2,29.5 C16.9,29.5 17.4,28.9 17.4,28.3 L17.4,19.9 C17.4,19.2 16.8,18.7 16.2,18.7 L10,18.7 L10,14.9 L16.2,14.9 C16.9,14.9 17.4,14.3 17.4,13.7 L17.4,1.2 C17.4,0.5 16.9,0 16.2,0 Z M14.9,55.3 L2.5,55.3 L2.5,49.4 L8.7,49.4 L14.9,49.4 L14.9,55.3 Z M14.9,41.1 L9.9,41.1 L7.4,41.1 L2.4,41.1 L2.4,35.2 L7.4,35.2 L9.9,35.2 L14.9,35.2 L14.9,41.1 Z M14.9,26.9 L9.9,26.9 L7.4,26.9 L2.4,26.9 L2.4,21 L7.4,21 L9.9,21 L14.9,21 L14.9,26.9 Z M14.9,12.2 L8.7,12.2 L2.5,12.2 L2.5,2.5 L15,2.5 L15,12.2 L14.9,12.2 Z" id="Shape"></path>
                <path d="M38.5,0 L23.5,0 C22.8,0 22.3,0.6 22.3,1.2 L22.3,13.4 C22.3,14.1 22.9,14.6 23.5,14.6 L29.7,14.6 L29.7,18.4 L23.5,18.4 C22.8,18.4 22.3,19 22.3,19.6 L22.3,28 C22.3,28.7 22.9,29.2 23.5,29.2 L29.7,29.2 L29.7,32.5 L23.5,32.5 C22.8,32.5 22.3,33.1 22.3,33.7 L22.3,42.1 C22.3,42.8 22.9,43.3 23.5,43.3 L31,43.3 L38.5,43.3 C39.2,43.3 39.7,42.7 39.7,42.1 L39.7,34 C39.7,33.3 39.1,32.8 38.5,32.8 L32.3,32.8 L32.3,29.5 L38.5,29.5 C39.2,29.5 39.7,28.9 39.7,28.3 L39.7,19.9 C39.7,19.2 39.1,18.7 38.5,18.7 L32.3,18.7 L32.3,14.9 L38.5,14.9 C39.2,14.9 39.7,14.3 39.7,13.7 L39.7,1.2 C39.7,0.5 39.2,0 38.5,0 Z M37.2,41.1 L32.2,41.1 L29.7,41.1 L24.7,41.1 L24.7,35.2 L29.7,35.2 L32.2,35.2 L37.2,35.2 L37.2,41.1 Z M37.2,26.9 L32.2,26.9 L29.7,26.9 L24.7,26.9 L24.7,21 L29.7,21 L32.2,21 L37.2,21 L37.2,26.9 Z M37.2,12.2 L31,12.2 L24.8,12.2 L24.8,2.5 L37.3,2.5 L37.3,12.2 L37.2,12.2 Z" id="Shape"></path>
                <path d="M60.8,14.7 C61.5,14.7 62,14.1 62,13.5 L62,1.2 C62,0.5 61.4,0 60.8,0 L45.8,0 C45.1,0 44.6,0.6 44.6,1.2 L44.6,13.4 C44.6,14.1 45.2,14.6 45.8,14.6 L52,14.6 L52,18.4 L45.8,18.4 C45.1,18.4 44.6,19 44.6,19.6 L44.6,28 C44.6,28.7 45.2,29.2 45.8,29.2 L52,29.2 L52,32.5 L45.8,32.5 C45.1,32.5 44.6,33.1 44.6,33.7 L44.6,42.1 C44.6,42.8 45.2,43.3 45.8,43.3 L52,43.3 L52,46.6 L45.8,46.6 C45.1,46.6 44.6,47.2 44.6,47.8 L44.6,56.2 C44.6,56.9 45.2,57.4 45.8,57.4 L52,57.4 L52,60.7 L45.8,60.7 C45.1,60.7 44.6,61.3 44.6,61.9 L44.6,70.3 C44.6,71 45.2,71.5 45.8,71.5 L60.8,71.5 C61.5,71.5 62,70.9 62,70.3 L62,61.9 C62,61.2 61.4,60.7 60.8,60.7 L54.6,60.7 L54.6,57.4 L60.8,57.4 C61.5,57.4 62,56.8 62,56.2 L62,47.8 C62,47.1 61.4,46.6 60.8,46.6 L54.6,46.6 L54.6,43.3 L60.8,43.3 C61.5,43.3 62,42.7 62,42.1 L62,34 C62,33.3 61.4,32.8 60.8,32.8 L54.6,32.8 L54.6,29.5 L60.8,29.5 C61.5,29.5 62,28.9 62,28.3 L62,19.9 C62,19.2 61.4,18.7 60.8,18.7 L54.6,18.7 L54.6,14.9 L60.8,14.9 L60.8,14.7 Z M59.5,69.5 L47.1,69.5 L47.1,63.6 L52.4,63.6 L54.3,63.6 L59.6,63.6 L59.6,69.5 L59.5,69.5 Z M59.5,55.3 L54.5,55.3 L52,55.3 L47,55.3 L47,49.4 L52,49.4 L54.5,49.4 L59.5,49.4 L59.5,55.3 Z M59.5,41.1 L54.5,41.1 L52,41.1 L47,41.1 L47,35.2 L52,35.2 L54.5,35.2 L59.5,35.2 L59.5,41.1 Z M59.5,26.9 L54.5,26.9 L52,26.9 L47,26.9 L47,21 L52,21 L54.5,21 L59.5,21 L59.5,26.9 Z M47.1,2.5 L59.6,2.5 L59.6,12.2 L53.4,12.2 L47.2,12.2 L47.2,2.5 L47.1,2.5 Z" id="Shape"></path>
            </g>
        </g>
    </g>
</svg>