<?xml version="1.0" encoding="UTF-8"?>
<svg width="90px" height="90px" viewBox="0 0 90 90" version="1.1" xmlns="http://www.w3.org/2000/svg" xmlns:xlink="http://www.w3.org/1999/xlink">
    <!-- Generator: Sketch 52.6 (67491) - http://www.bohemiancoding.com/sketch -->
    <title>Service Innovation</title>
    <desc>Created with Sketch.</desc>
    <g id="Service-Innovation" stroke="none" stroke-width="1" fill="none" fill-rule="evenodd">
        <g id="noun_Market-entry-strategy_229103" transform="translate(10.000000, 12.000000)" fill="#000000">
            <g id="Group">
                <path d="M66.075,51.375 C65.575,50.875 64.775,50.875 64.275,51.375 L60.675,54.975 L57.175,51.375 C56.675,50.875 55.875,50.875 55.375,51.375 C54.875,51.875 54.875,52.675 55.375,53.175 L58.975,56.775 L55.375,60.375 C54.875,60.875 54.875,61.675 55.375,62.175 C55.575,62.375 55.975,62.575 56.275,62.575 C56.575,62.575 56.875,62.475 57.175,62.175 L60.775,58.575 L64.375,62.175 C64.575,62.375 64.975,62.575 65.275,62.575 C65.575,62.575 65.875,62.475 66.175,62.175 C66.675,61.675 66.675,60.875 66.175,60.375 L62.575,56.675 L66.175,53.075 C66.575,52.675 66.575,51.875 66.075,51.375 Z" id="Path"></path>
                <path d="M30.175,41.375 C29.675,40.875 28.875,40.875 28.375,41.375 L24.775,44.975 L21.175,41.375 C20.675,40.875 19.875,40.875 19.375,41.375 C18.875,41.875 18.875,42.675 19.375,43.175 L22.975,46.775 L19.575,50.275 C19.075,50.775 19.075,51.575 19.575,52.075 C19.775,52.275 20.175,52.475 20.475,52.475 C20.775,52.475 21.075,52.375 21.375,52.075 L24.975,48.475 L28.575,52.075 C28.775,52.275 29.175,52.475 29.475,52.475 C29.775,52.475 30.075,52.375 30.375,52.075 C30.875,51.575 30.875,50.775 30.375,50.275 L26.775,46.675 L30.375,43.075 C30.675,42.575 30.675,41.875 30.175,41.375 Z" id="Path"></path>
                <path d="M2.375,28.175 C2.575,28.375 2.975,28.575 3.275,28.575 C3.575,28.575 3.875,28.475 4.175,28.175 L7.775,24.575 L11.375,28.175 C11.575,28.375 11.975,28.575 12.275,28.575 C12.575,28.575 12.875,28.475 13.175,28.175 C13.675,27.675 13.675,26.875 13.175,26.375 L9.575,22.775 L13.175,19.175 C13.675,18.675 13.675,17.875 13.175,17.375 C12.675,16.875 11.875,16.875 11.375,17.375 L7.775,20.975 L4.175,17.475 C3.675,16.975 2.875,16.975 2.375,17.475 C1.875,17.975 1.875,18.775 2.375,19.275 L5.975,22.875 L2.375,26.475 C1.875,26.875 1.875,27.675 2.375,28.175 Z" id="Path"></path>
                <path d="M15.475,11.175 C15.675,11.375 16.075,11.575 16.375,11.575 C16.675,11.575 16.975,11.475 17.275,11.175 L20.875,7.575 L24.475,11.175 C24.675,11.375 25.075,11.575 25.375,11.575 C25.675,11.575 25.975,11.475 26.275,11.175 C26.775,10.675 26.775,9.875 26.275,9.375 L22.675,5.775 L26.275,2.175 C26.775,1.675 26.775,0.875 26.275,0.375 C25.775,-0.125 24.975,-0.125 24.475,0.375 L20.775,4.075 L17.175,0.475 C16.675,-0.025 15.875,-0.025 15.375,0.475 C14.875,0.975 14.875,1.775 15.375,2.275 L18.975,5.875 L15.375,9.475 C14.975,9.975 14.975,10.775 15.475,11.175 Z" id="Path"></path>
                <path d="M47.075,53.375 C46.575,52.875 45.775,52.875 45.275,53.375 L41.675,56.975 L38.175,53.375 C37.675,52.875 36.875,52.875 36.375,53.375 C35.875,53.875 35.875,54.675 36.375,55.175 L39.975,58.775 L36.375,62.375 C35.875,62.875 35.875,63.675 36.375,64.175 C36.575,64.375 36.975,64.575 37.275,64.575 C37.575,64.575 37.875,64.475 38.175,64.175 L41.775,60.575 L45.375,64.175 C45.575,64.375 45.975,64.575 46.275,64.575 C46.575,64.575 46.875,64.475 47.175,64.175 C47.675,63.675 47.675,62.875 47.175,62.375 L43.475,58.675 L47.075,55.075 C47.575,54.675 47.575,53.875 47.075,53.375 Z" id="Path"></path>
                <path d="M34.5,26.4787754 L52.4,26.4787754 L45.6,32.1787754 C45.1,32.5787754 45,33.3787754 45.4,33.9787754 C45.6,34.2787754 46,34.3787754 46.4,34.3787754 C46.7,34.3787754 47,34.2787754 47.2,34.0787754 L56.6,26.1787754 C56.9,25.9787754 57,25.5787754 57,25.1787754 C57,25.1787754 57,25.1787754 57,25.1787754 C57,25.1787754 57,25.1787754 57,25.1787754 C57,25.1787754 57,25.1787754 57,25.1787754 C57,25.0787754 57,24.8787754 56.9,24.7787754 C56.9,24.6787754 56.8,24.6787754 56.8,24.5787754 C56.8,24.4787754 56.7,24.4787754 56.7,24.3787754 C56.7,24.2787754 56.6,24.2787754 56.5,24.1787754 L47.1,16.2787754 C46.6,15.8787754 45.8,15.8787754 45.3,16.4787754 C44.9,16.9787754 44.9,17.7787754 45.5,18.2787754 L52.3,23.9787754 L34.5,23.9787754 C18.9,23.9787754 6.2,36.5787754 6,52.1787754 C2.6,52.5787754 0,55.4787754 0,59.0787754 C0,62.8787754 3.1,65.9787754 6.9,65.9787754 C10.7,65.9787754 13.8,62.8787754 13.8,59.0787754 C13.8,55.7787754 11.5,53.0787754 8.5,52.3787754 C8.6,37.9787754 20.3,26.4787754 34.5,26.4787754 Z M6.9,63.3787754 C4.5,63.3787754 2.5,61.3787754 2.5,58.9787754 C2.5,56.8787754 4,55.0787754 6,54.6787754 C6.3,54.5787754 6.6,54.5787754 6.9,54.5787754 C7.5,54.5787754 8,54.6787754 8.5,54.8787754 C10.1,55.4787754 11.3,57.0787754 11.3,58.9787754 C11.4,61.3787754 9.4,63.3787754 6.9,63.3787754 Z" id="Shape" fill-rule="nonzero"></path>
                <path d="M69.6158384,25.5 C69.6158384,14.2 60.4158384,5 49.1158384,5 C40.8158384,5 33.3158384,10 30.1158384,17.7 C29.8158384,18.3 30.1158384,19.1 30.8158384,19.3 C31.4158384,19.6 32.2158384,19.3 32.4158384,18.6 C35.2158384,11.8 41.7158384,7.5 49.0158384,7.5 C58.9158384,7.5 67.0158384,15.6 67.0158384,25.5 C67.0158384,35.4 58.9158384,43.5 49.0158384,43.5 C41.7158384,43.5 35.1158384,39.1 32.4158384,32.4 C32.1158384,31.8 31.4158384,31.5 30.8158384,31.7 C30.2158384,32 29.9158384,32.7 30.1158384,33.3 C33.3158384,41 40.7158384,46 49.1158384,46 C60.4158384,46 69.6158384,36.8 69.6158384,25.5 Z" id="Path"></path>
            </g>
        </g>
    </g>
</svg>