<?xml version="1.0" encoding="UTF-8"?>
<svg width="90px" height="90px" viewBox="0 0 90 90" version="1.1" xmlns="http://www.w3.org/2000/svg" xmlns:xlink="http://www.w3.org/1999/xlink">
    <!-- Generator: Sketch 52.6 (67491) - http://www.bohemiancoding.com/sketch -->
    <title>Strategy &amp; Envisioning Workshops</title>
    <desc>Created with Sketch.</desc>
    <g id="Strategy-&amp;-Envisioning-Workshops" stroke="none" stroke-width="1" fill="none" fill-rule="evenodd">
        <g id="noun_cloud-data_410861" transform="translate(9.000000, 5.000000)" fill="#000000">
            <g id="Group">
                <path d="M19.8554688,30.4033203 C19.9384766,30.4179687 20.022461,30.4248047 20.1074219,30.4248047 L51.6088867,30.4248047 C56.4750976,30.4248047 60.434082,26.4658203 60.434082,21.5996094 C60.434082,17.4091797 57.4511718,13.8574219 53.4960937,12.984375 C53.5419921,12.5917969 53.5644531,12.2021484 53.5644531,11.8125 C53.5644531,5.78125 48.6577148,0.875 42.6269531,0.875 C39.2944336,0.875 36.1884765,2.3867188 34.1328125,4.9199219 C32.4208984,3.4169922 30.2329102,2.5830078 27.8974609,2.5830078 C22.6591797,2.5830078 18.3974609,6.8447266 18.3974609,12.0830078 C18.3974609,12.4160156 18.4160156,12.75 18.4536132,13.0849609 C14.5253905,13.9550781 11.5659179,17.4814453 11.5659179,21.649414 C11.565918,26.34375 15.1904297,30.1503906 19.8554688,30.4033203 Z M20.2666016,15.8798828 C20.7382813,15.8740234 21.1796875,15.6464844 21.4580078,15.265625 C21.7368164,14.8847656 21.8198242,14.3955078 21.6826172,13.9443359 C21.4936524,13.3203125 21.397461,12.6943359 21.397461,12.0830078 C21.397461,8.4990234 24.3134766,5.5830078 27.897461,5.5830078 C29.9619141,5.5830078 31.8593751,6.5390625 33.1035157,8.2060547 C33.2641602,8.4208985 33.5000001,8.5976563 33.7475587,8.7011719 C34.4555665,8.9990235 35.2778321,8.7109375 35.6450196,8.0332031 C37.0371094,5.4677734 39.7124023,3.875 42.6269531,3.875 C47.0039062,3.875 50.5644531,7.4355469 50.5644531,11.8125 C50.5644531,12.4804688 50.4682617,13.1591797 50.2705078,13.8867188 C50.149414,14.3339844 50.2412109,14.8125 50.5200195,15.1826172 C50.7983398,15.5527344 51.2324218,15.7734375 51.6958007,15.7802734 C54.8598632,15.8271484 57.4340819,18.4375 57.4340819,21.5996093 C57.4340819,24.8115234 54.8208007,27.4248046 51.6088866,27.4248046 L20.2949219,27.4248046 C20.2490235,27.4189452 20.2021485,27.415039 20.1552735,27.4140624 C17.0209962,27.314453 14.565918,24.7822265 14.565918,21.649414 C14.565918,18.5078125 17.1230469,15.9189453 20.2666016,15.8798828 Z" id="Shape" fill-rule="nonzero"></path>
                <circle id="Oval" cx="6.7398682" cy="25.284668" r="2"></circle>
                <circle id="Oval" cx="2.53125" cy="31.7436523" r="2"></circle>
                <circle id="Oval" cx="4.7398682" cy="39.0198975" r="2"></circle>
                <circle id="Oval" cx="65.2601318" cy="25.284668" r="2"></circle>
                <circle id="Oval" cx="69.46875" cy="31.7436523" r="2"></circle>
                <circle id="Oval" cx="67.2601318" cy="39.0198975" r="2"></circle>
                <path d="M16.0024414,53.0473633 C19.8623047,53.0473633 23.0024414,49.9072266 23.0024414,46.0473633 C23.0024414,42.1875 19.8623047,39.0473633 16.0024414,39.0473633 C12.1425781,39.0473633 9.0024414,42.1875 9.0024414,46.0473633 C9.0024414,49.9072266 12.1425781,53.0473633 16.0024414,53.0473633 Z M16.0024414,42.0473633 C18.2080078,42.0473633 20.0024414,43.8417969 20.0024414,46.0473633 C20.0024414,48.2529297 18.2080078,50.0473633 16.0024414,50.0473633 C13.796875,50.0473633 12.0024414,48.2529297 12.0024414,46.0473633 C12.0024414,43.8417969 13.796875,42.0473633 16.0024414,42.0473633 Z" id="Shape" fill-rule="nonzero"></path>
                <path d="M48.9970703,46.0473633 C48.9970703,49.9072266 52.1376953,53.0473633 55.9970703,53.0473633 C59.8564453,53.0473633 62.9970703,49.9072266 62.9970703,46.0473633 C62.9970703,42.1875 59.8564453,39.0473633 55.9970703,39.0473633 C52.1376953,39.0473633 48.9970703,42.1875 48.9970703,46.0473633 Z M59.9970703,46.0473633 C59.9970703,48.2529297 58.203125,50.0473633 55.9970703,50.0473633 C53.7910156,50.0473633 51.9970703,48.2529297 51.9970703,46.0473633 C51.9970703,43.8417969 53.7910156,42.0473633 55.9970703,42.0473633 C58.203125,42.0473633 59.9970703,43.8417969 59.9970703,46.0473633 Z" id="Shape" fill-rule="nonzero"></path>
                <path d="M27.7060547,49.1479492 C27.7060547,53.7216797 31.4267578,57.4423828 36,57.4423828 C40.5732422,57.4423828 44.2939453,53.7216797 44.2939453,49.1479492 C44.2939453,44.574707 40.5732422,40.8540039 36,40.8540039 C31.4267578,40.8540039 27.7060547,44.574707 27.7060547,49.1479492 Z M41.2939453,49.1479492 C41.2939453,52.0673828 38.9189453,54.4423828 36,54.4423828 C33.0810547,54.4423828 30.7060547,52.0673828 30.7060547,49.1479492 C30.7060547,46.2290039 33.0810547,43.8540039 36,43.8540039 C38.9189453,43.8540039 41.2939453,46.2290039 41.2939453,49.1479492 Z" id="Shape" fill-rule="nonzero"></path>
                <path d="M56.0761719,55.8808594 L55.9189453,55.8808594 C50.5422363,55.8808594 45.9163818,59.1384278 43.8986816,63.78125 C41.5820312,62.4013672 38.8867798,61.59375 36,61.59375 C33.1132202,61.59375 30.4179077,62.4013672 28.1012573,63.7813721 C26.0834961,59.1384278 21.4572754,55.8808594 16.0805664,55.8808594 L15.9243164,55.8808594 C8.6987305,55.8808594 2.8203125,61.7592774 2.8203125,68.9848633 L2.8203125,72.5473633 C2.8203125,73.3759766 3.4916992,74.0473633 4.3203125,74.0473633 C5.1489258,74.0473633 5.8203125,73.3759766 5.8203125,72.5473633 L5.8203125,68.9848633 C5.8203125,63.4135742 10.3530273,58.8808594 15.9243164,58.8808594 L16.0805664,58.8808594 C20.475708,58.8808594 24.2141113,61.7067871 25.6010132,65.6330567 C22.4766846,68.4707031 20.5,72.5505371 20.5,77.09375 C20.5,77.9223633 21.1713867,78.59375 22,78.59375 C22.8286133,78.59375 23.5,77.9223633 23.5,77.09375 C23.5,74.1569824 24.5245972,71.4589844 26.2261963,69.3232422 C27.0114746,68.3374024 27.9369507,67.46875 28.9806519,66.7578125 C30.9831543,65.3935547 33.3995361,64.59375 36,64.59375 C38.6004639,64.59375 41.0167847,65.3935547 43.0192871,66.7578125 C44.0821533,67.4819336 45.0211182,68.3703613 45.8154297,69.3787842 C47.4910889,71.5059814 48.5,74.1818848 48.5,77.09375 C48.5,77.9223633 49.171875,78.59375 50,78.59375 C50.828125,78.59375 51.5,77.9223633 51.5,77.09375 C51.5,72.5505371 49.5233154,68.4707031 46.3989258,65.6330566 C47.7857666,61.7067871 51.5238037,58.8808593 55.9189453,58.8808593 L56.0761719,58.8808593 C61.647461,58.8808593 66.1796875,63.4135741 66.1796875,68.9848632 L66.1796875,72.5473632 C66.1796875,73.3759765 66.8515625,74.0473632 67.6796875,74.0473632 C68.5078125,74.0473632 69.1796875,73.3759765 69.1796875,72.5473632 L69.1796875,68.9848632 C69.1796875,61.7592773 63.3017578,55.8808594 56.0761719,55.8808594 Z" id="Path"></path>
            </g>
        </g>
    </g>
</svg>