<?xml version="1.0" encoding="UTF-8"?>
<svg width="90px" height="90px" viewBox="0 0 90 90" version="1.1" xmlns="http://www.w3.org/2000/svg" xmlns:xlink="http://www.w3.org/1999/xlink">
    <!-- Generator: Sketch 52.6 (67491) - http://www.bohemiancoding.com/sketch -->
    <title>System</title>
    <desc>Created with Sketch.</desc>
    <g id="System" stroke="none" stroke-width="1" fill="none" fill-rule="evenodd">
        <g id="Colore" transform="translate(14.000000, 12.000000)" fill="#FFFE2A">
            <path d="M4.5195312,0.0014648 C6.4724731,0.0014648 8.1218872,1.2592773 8.743103,3.0014648 C8.9111938,3.4729614 9.0195312,3.9729614 9.0195312,4.5014648 C9.0195312,5.0299682 8.9111938,5.5299682 8.743103,6.0014648 C8.1218872,7.7436523 6.4724731,9.0014648 4.5195312,9.0014648 C2.0380859,9.0014648 0.0195312,6.9829101 0.0195312,4.5014648 C0.0195312,2.0200195 2.0380859,0.0014648 4.5195312,0.0014648 Z" id="Path"></path>
            <path d="M59.4804688,36.5 C57.5275269,36.5 55.8781128,35.2421875 55.256897,33.5 C55.0888062,33.0285034 54.9804688,32.5285034 54.9804688,32 C54.9804688,31.4714966 55.0888062,30.9714966 55.256897,30.5 C55.8781128,28.7578125 57.5275269,27.5 59.4804688,27.5 C61.9619141,27.5 63.9804688,29.5185547 63.9804688,32 C63.9804688,34.4814453 61.9619141,36.5 59.4804688,36.5 Z" id="Path"></path>
            <path d="M32,63.9985352 C30.0470581,63.9985352 28.397644,62.7407227 27.7764282,60.9985352 C27.6083374,60.5270386 27.5,60.0270386 27.5,59.4985352 C27.5,58.9700318 27.6083374,58.4700318 27.7764282,57.9985352 C28.397644,56.2563477 30.0470581,54.9985352 32,54.9985352 C33.9529419,54.9985352 35.602356,56.2563477 36.2235718,57.9985352 C36.3916626,58.4700318 36.5,58.9700318 36.5,59.4985352 C36.5,60.0270386 36.3916626,60.5270386 36.2235718,60.9985352 C35.602356,62.7407227 33.9529419,63.9985352 32,63.9985352 Z" id="Path"></path>
        </g>
        <g id="noun_touchpoints-matrix_410884" transform="translate(10.000000, 10.000000)" fill="#000000">
            <path d="M7.5195312,15.0014648 C11.1416625,15.0014648 14.1715698,12.4207763 14.8683471,9.0014648 L27.651184,9.0014648 C28.3479613,12.4207763 31.3778686,15.0014648 34.9999999,15.0014648 C38.6221312,15.0014648 41.6520385,12.4207763 42.3488158,9.0014648 L55.1316527,9.0014648 C55.82843,12.4207763 58.8583373,15.0014648 62.4804686,15.0014648 C66.6162108,15.0014648 69.9804686,11.637207 69.9804686,7.5014648 C69.9804686,3.3657226 66.6162108,0.0014648 62.4804686,0.0014648 C58.8583373,0.0014648 55.82843,2.5821533 55.1316527,6.0014648 L42.3488159,6.0014648 C41.6520386,2.5821533 38.6221313,0.0014648 35,0.0014648 C31.3778687,0.0014648 28.3479614,2.5821533 27.6511841,6.0014648 L14.8683472,6.0014648 C14.1715699,2.5821533 11.1416626,0.0014648 7.5195313,0.0014648 C3.3837891,0.0014648 0.0195313,3.3657226 0.0195313,7.5014648 C0.0195313,11.637207 3.3837891,15.0014648 7.5195312,15.0014648 Z M62.4804688,3.0014648 C64.9619141,3.0014648 66.9804688,5.0200195 66.9804688,7.5014648 C66.9804688,9.9829101 64.9619141,12.0014648 62.4804688,12.0014648 C60.5275269,12.0014648 58.8781128,10.7436523 58.256897,9.0014648 C58.0888062,8.5299682 57.9804688,8.0299682 57.9804688,7.5014648 C57.9804688,6.9729614 58.0888062,6.4729614 58.256897,6.0014648 C58.8781128,4.2592773 60.5275269,3.0014648 62.4804688,3.0014648 Z M35,3.0014648 C36.9529419,3.0014648 38.602356,4.2592773 39.2235718,6.0014648 C39.3916626,6.4729614 39.5,6.9729614 39.5,7.5014648 C39.5,8.0299682 39.3916626,8.5299682 39.2235718,9.0014648 C38.602356,10.7436523 36.9529419,12.0014648 35,12.0014648 C33.0470581,12.0014648 31.397644,10.7436523 30.7764282,9.0014648 C30.6083374,8.5299683 30.5,8.0299683 30.5,7.5014648 C30.5,6.9729613 30.6083374,6.4729614 30.7764282,6.0014648 C31.397644,4.2592773 33.0470581,3.0014648 35,3.0014648 Z M7.5195312,3.0014648 C9.4724731,3.0014648 11.1218872,4.2592773 11.743103,6.0014648 C11.9111938,6.4729614 12.0195312,6.9729614 12.0195312,7.5014648 C12.0195312,8.0299682 11.9111938,8.5299682 11.743103,9.0014648 C11.1218872,10.7436523 9.4724731,12.0014648 7.5195312,12.0014648 C5.0380859,12.0014648 3.0195312,9.9829101 3.0195312,7.5014648 C3.0195312,5.0200195 5.0380859,3.0014648 7.5195312,3.0014648 Z" id="Shape" fill-rule="nonzero"></path>
            <circle id="Oval" cx="16.0293579" cy="43.4619751" r="1.5"></circle>
            <circle id="Oval" cx="19.6916504" cy="47.1242065" r="1.5"></circle>
            <circle id="Oval" cx="23.3538818" cy="50.786499" r="1.5"></circle>
            <circle id="Oval" cx="27.0161743" cy="54.4487305" r="1.5"></circle>
            <circle id="Oval" cx="35" cy="51.286499" r="1.5"></circle>
            <circle id="Oval" cx="35" cy="46.4619751" r="1.5"></circle>
            <circle id="Oval" cx="54.5288086" cy="15.5200195" r="1.5"></circle>
            <circle id="Oval" cx="50.8665771" cy="19.182312" r="1.5"></circle>
            <circle id="Oval" cx="47.2042847" cy="22.8445435" r="1.5"></circle>
            <circle id="Oval" cx="43.5420532" cy="26.5068359" r="1.5"></circle>
            <path d="M62.4804688,27.5 C58.8583375,27.5 55.8284302,30.0806885 55.1316529,33.5 L42.3488159,33.5 C41.6520386,30.0806885 38.6221313,27.5 35,27.5 C31.3778687,27.5 28.3479614,30.0806885 27.6511841,33.5 L14.8683472,33.5 C14.1715699,30.0806885 11.1416626,27.5 7.5195313,27.5 C3.3837891,27.5 0.0195313,30.8642578 0.0195313,35 C0.0195313,39.1357422 3.3837891,42.5 7.5195313,42.5 C11.1416626,42.5 14.1715699,39.9193115 14.8683472,36.5 L27.6511841,36.5 C28.3479614,39.9193115 31.3778687,42.5 35,42.5 C38.6221313,42.5 41.6520386,39.9193115 42.3488159,36.5 L55.1316528,36.5 C55.8284301,39.9193115 58.8583374,42.5 62.4804687,42.5 C66.6162109,42.5 69.9804687,39.1357422 69.9804687,35 C69.9804687,30.8642578 66.6162109,27.5 62.4804688,27.5 Z M7.5195312,39.5 C5.0380859,39.5 3.0195312,37.4814453 3.0195312,35 C3.0195312,32.5185547 5.0380859,30.5 7.5195312,30.5 C9.4724731,30.5 11.1218872,31.7578125 11.743103,33.5 C11.9111938,33.9714966 12.0195312,34.4714966 12.0195312,35 C12.0195312,35.5285034 11.9111938,36.0285034 11.743103,36.5 C11.1218872,38.2421875 9.4724731,39.5 7.5195312,39.5 Z M35,39.5 C33.0470581,39.5 31.397644,38.2421875 30.7764282,36.5 C30.6083374,36.0285034 30.5,35.5285034 30.5,35 C30.5,34.4714966 30.6083374,33.9714966 30.7764282,33.5 C31.397644,31.7578125 33.0470581,30.5 35,30.5 C36.9529419,30.5 38.602356,31.7578125 39.2235718,33.5 C39.3916626,33.9714966 39.5,34.4714966 39.5,35 C39.5,35.5285034 39.3916626,36.0285034 39.2235718,36.5 C38.602356,38.2421875 36.9529419,39.5 35,39.5 Z M62.4804688,39.5 C60.5275269,39.5 58.8781128,38.2421875 58.256897,36.5 C58.0888062,36.0285034 57.9804688,35.5285034 57.9804688,35 C57.9804688,34.4714966 58.0888062,33.9714966 58.256897,33.5 C58.8781128,31.7578125 60.5275269,30.5 62.4804688,30.5 C64.9619141,30.5 66.9804688,32.5185547 66.9804688,35 C66.9804688,37.4814453 64.9619141,39.5 62.4804688,39.5 Z" id="Shape" fill-rule="nonzero"></path>
            <path d="M62.4804688,54.9985352 C58.8583375,54.9985352 55.8284302,57.5792237 55.1316529,60.9985352 L42.3488159,60.9985352 C41.6520386,57.5792237 38.6221313,54.9985352 35,54.9985352 C31.3778687,54.9985352 28.3479614,57.5792237 27.6511841,60.9985352 L14.8683472,60.9985352 C14.1715699,57.5792237 11.1416626,54.9985352 7.5195313,54.9985352 C3.3837891,54.9985352 0.0195313,58.362793 0.0195313,62.4985352 C0.0195313,66.6342774 3.3837891,69.9985352 7.5195313,69.9985352 C11.1416626,69.9985352 14.1715699,67.4178467 14.8683472,63.9985352 L27.6511841,63.9985352 C28.3479614,67.4178467 31.3778687,69.9985352 35,69.9985352 C38.6221313,69.9985352 41.6520386,67.4178467 42.3488159,63.9985352 L55.1316528,63.9985352 C55.8284301,67.4178467 58.8583374,69.9985352 62.4804687,69.9985352 C66.6162109,69.9985352 69.9804687,66.6342774 69.9804687,62.4985352 C69.9804687,58.362793 66.6162109,54.9985352 62.4804688,54.9985352 Z M7.5195312,66.9985352 C5.0380859,66.9985352 3.0195312,64.9799805 3.0195312,62.4985352 C3.0195312,60.0170899 5.0380859,57.9985352 7.5195312,57.9985352 C9.4724731,57.9985352 11.1218872,59.2563477 11.743103,60.9985352 C11.9111938,61.4700318 12.0195312,61.9700318 12.0195312,62.4985352 C12.0195312,63.0270386 11.9111938,63.5270386 11.743103,63.9985352 C11.1218872,65.7407227 9.4724731,66.9985352 7.5195312,66.9985352 Z M35,66.9985352 C33.0470581,66.9985352 31.397644,65.7407227 30.7764282,63.9985352 C30.6083374,63.5270386 30.5,63.0270386 30.5,62.4985352 C30.5,61.9700318 30.6083374,61.4700318 30.7764282,60.9985352 C31.397644,59.2563477 33.0470581,57.9985352 35,57.9985352 C36.9529419,57.9985352 38.602356,59.2563477 39.2235718,60.9985352 C39.3916626,61.4700318 39.5,61.9700318 39.5,62.4985352 C39.5,63.0270386 39.3916626,63.5270386 39.2235718,63.9985352 C38.602356,65.7407227 36.9529419,66.9985352 35,66.9985352 Z M62.4804688,66.9985352 C60.5275269,66.9985352 58.8781128,65.7407227 58.256897,63.9985352 C58.0888062,63.5270386 57.9804688,63.0270386 57.9804688,62.4985352 C57.9804688,61.9700318 58.0888062,61.4700318 58.256897,60.9985352 C58.8781128,59.2563477 60.5275269,57.9985352 62.4804688,57.9985352 C64.9619141,57.9985352 66.9804688,60.0170899 66.9804688,62.4985352 C66.9804688,64.9799805 64.9619141,66.9985352 62.4804688,66.9985352 Z" id="Shape" fill-rule="nonzero"></path>
        </g>
    </g>
</svg>