<?xml version="1.0" encoding="UTF-8"?>
<svg width="90px" height="90px" viewBox="0 0 90 90" version="1.1" xmlns="http://www.w3.org/2000/svg" xmlns:xlink="http://www.w3.org/1999/xlink">
    <!-- Generator: Sketch 52.6 (67491) - http://www.bohemiancoding.com/sketch -->
    <title>System Analysis</title>
    <desc>Created with Sketch.</desc>
    <g id="System-Analysis" stroke="none" stroke-width="1" fill="none" fill-rule="evenodd">
        <g id="noun_actors-map_410881" transform="translate(8.000000, 10.000000)" fill="#000000" fill-rule="nonzero">
            <g id="Group">
                <path d="M20.549408,43.710737 C19.6923264,43.1701193 18.6802689,42.8523109 17.5930665,42.8523109 C14.5326172,42.8523109 12.0430665,45.3339971 12.0430665,48.3847784 C12.0430665,51.4355597 14.5326172,53.9172459 17.5930665,53.9172459 C19.2665802,53.9172459 20.7658661,53.1719972 21.7842469,52.0006025 C22.4514619,51.2331797 22.9075257,50.2824557 23.0706315,49.2343687 C23.1138779,48.9566873 23.1430665,48.674391 23.1430665,48.3847784 C23.1430665,47.4657395 22.9137924,46.6003347 22.5144119,45.8369078 C22.0589691,44.966269 21.3782044,44.2335142 20.549408,43.710737 Z M14.8180664,48.3847783 C14.8180664,46.8593876 16.0628417,45.6185445 17.5930664,45.6185445 C18.1670699,45.6185445 18.7008758,45.7931226 19.143898,46.0918524 C19.8819671,46.5894728 20.3680664,47.431578 20.3680664,48.3847783 C20.3680664,49.9101689 19.123291,51.1510121 17.5930664,51.1510121 C17.3000518,51.1510121 17.0230148,51.0931571 16.7576645,51.0088509 C15.637265,50.6529977 14.8180664,49.61808 14.8180664,48.3847783 Z" id="Shape"></path>
                <path d="M56.3780274,35.9308734 C53.9994156,35.9308734 51.7330979,36.4174068 49.6716644,37.293392 L46.6197404,32.1229684 C51.168692,29.0434286 54.1639893,23.8463286 54.1639893,17.9638609 C54.1639893,8.53192219 46.4658936,0.85859507 37.0045167,0.85859507 C27.5431398,0.85859507 19.8450441,8.53192219 19.8450441,17.9638609 C19.8450441,23.8463285 22.8403413,29.0434285 27.389293,32.1229684 L24.3289567,37.3075744 C22.2594498,36.4234849 19.9833085,35.9308734 17.5930665,35.9308734 C8.13168952,35.9308734 0.433593842,43.6042005 0.433593842,53.0361391 C0.433593842,62.4680778 8.13168952,70.1414049 17.5930665,70.1414049 C27.0544434,70.1414049 34.7525391,62.4680778 34.7525391,53.0361391 C34.7525391,52.6865892 34.7207535,52.345031 34.6999206,52.0006024 L39.271173,52.0006024 C39.2503402,52.345031 39.2185546,52.6865892 39.2185546,53.0361391 C39.2185546,62.4680778 46.9166503,70.1414049 56.3780272,70.1414049 C65.8394041,70.1414049 73.5375,62.4680778 73.5375,53.0361391 C73.5375,43.6042005 65.8394043,35.9308734 56.3780274,35.9308734 Z M56.3780274,67.3751713 C52.739792,67.3751713 49.4227998,66.0110204 46.8870102,63.7829281 C47.5608307,61.8040399 49.2218674,60.1609695 51.3311768,59.5699257 C54.3031006,58.7378944 58.4547608,58.7378944 61.424878,59.5699257 C63.5341874,60.1609695 65.1952241,61.8040399 65.8690446,63.7829281 C63.333255,66.0110204 60.0162628,67.3751713 56.3780274,67.3751713 Z M62.1764404,56.9072456 C58.709497,55.935642 54.0501709,55.9347415 50.5796142,56.9072456 C48.0781509,57.6079775 46.0158141,59.3579221 44.8409896,61.5640093 C43.0607711,59.1772096 41.9935546,56.2321769 41.9935546,53.0361391 C41.9935546,52.6865892 42.0213881,52.3439616 42.046173,52.0006024 C42.1148819,51.0494845 42.2765197,50.1256055 42.5230132,49.2343686 C43.4757339,45.7897457 45.6805129,42.8645796 48.6257888,40.9766386 C49.4027571,40.4786242 50.2293517,40.054223 51.0985717,39.7107512 C52.7353316,39.063991 54.5130096,38.697107 56.3780272,38.697107 C64.310083,38.6971071 70.7625,45.1295911 70.7625,53.0361391 C70.7625,56.2321769 69.6952835,59.1772096 67.915065,61.5640093 C66.7402405,59.3579221 64.6779037,57.6079775 62.1764404,56.9072456 Z M37.0045166,3.62482874 C44.9365722,3.62482874 51.3889892,10.0573127 51.3889892,17.9638608 C51.3889892,21.1598423 50.3218292,24.1047624 48.5417236,26.4915057 C47.366899,24.2853623 45.3045059,22.5352489 42.8029296,21.834517 C42.0054671,21.6109198 41.1403685,21.4449525 40.2456862,21.32429 C38.1447891,21.0409244 35.8648085,21.0412621 33.763008,21.3248529 C32.8686645,21.4455154 32.0037352,21.6113138 31.2061034,21.834517 C28.7045272,22.535249 26.642134,24.2853624 25.4673094,26.4915058 C23.6872038,24.1047625 22.6200438,21.1598423 22.6200438,17.9638609 C22.620044,10.0573128 29.0724609,3.62482874 37.0045166,3.62482874 Z M31.8715683,24.5292763 C31.9012085,24.5204967 31.9278565,24.5055265 31.957666,24.4971972 C33.0065338,24.2035326 34.2049011,24.019162 35.4435791,23.9328297 C36.4760742,23.8607924 37.532959,23.8607924 38.5654541,23.9328297 C39.8041886,24.019162 41.0024994,24.2035326 42.0513672,24.4971972 C42.0811768,24.5055265 42.1078247,24.5204968 42.1374649,24.5292763 C44.2047134,25.1410872 45.8314239,26.7595073 46.4956467,28.7105936 C46.0842973,29.0720184 45.6570267,29.4145897 45.2061005,29.7279521 C44.4489487,30.2541061 43.6397431,30.7087292 42.7864442,31.0838861 C41.0150895,31.8626773 39.0616593,32.302893 37.0045167,32.302893 C34.947374,32.302893 32.9939439,31.8626773 31.2225892,31.0838861 C30.3692902,30.7087291 29.5600847,30.2541061 28.8029329,29.7279521 C28.3520066,29.4145896 27.9247361,29.0720184 27.5133867,28.7105936 C28.1776093,26.7595072 29.8043197,25.1410871 31.8715683,24.5292763 Z M31.9775391,53.0361391 C31.9775391,56.2322332 30.9102661,59.1773221 29.1300476,61.5641218 C27.9552231,59.3582597 25.8928864,57.6082589 23.3914795,56.9072456 C19.9236329,55.935642 15.2643067,55.9347415 11.7946534,56.9072456 C9.29341589,57.6079213 7.2308533,59.3577532 6.05569001,61.563559 C4.27569734,59.1768157 3.20859375,56.2319519 3.20859375,53.0361391 C3.20859375,45.1295911 9.66101071,38.6971071 17.5930664,38.6971071 C19.4697707,38.6971071 21.2585708,39.0677055 22.903743,39.7221759 C23.7720032,40.0675612 24.597525,40.4938196 25.3732513,40.9935786 C28.3048081,42.8821387 30.4982956,45.8004388 31.4480804,49.2343686 C31.694574,50.1256055 31.8562118,51.0494845 31.9249206,52.0006024 C31.9497055,52.3439616 31.9775391,52.6865893 31.9775391,53.0361391 Z M17.5930664,67.3751713 C13.9544921,67.3751713 10.6372741,66.0107953 8.10137172,63.782309 C8.77536159,61.803646 10.4363982,60.1609133 12.5462158,59.5699257 C15.5181396,58.736994 19.6697998,58.7378944 22.639917,59.5699257 C24.7492264,60.1613072 26.410263,61.8042087 27.0840835,63.7829843 C24.5482941,66.0110767 21.2313019,67.3751713 17.5930664,67.3751713 Z M34.3105332,49.2343686 C33.2917572,44.7833617 30.5307587,40.9956609 26.7785919,38.6126321 L29.8123932,33.4729932 C32.0033966,34.4869187 34.4343445,35.0691267 37.0045167,35.0691267 C39.5746888,35.0691267 42.0057496,34.4869187 44.1966966,33.4729932 L47.220392,38.595692 C43.4541673,40.9776517 40.6818208,44.7724435 39.6605608,49.2343686 L34.3105332,49.2343686 Z" id="Shape"></path>
                <path d="M56.3780274,42.8523108 C55.3025117,42.8523108 54.3008988,43.163816 53.4496323,43.693797 C52.6193681,44.2107211 51.9341996,44.9364973 51.4737885,45.8015645 C51.06306,46.573377 50.8280274,47.4518386 50.8280274,48.3847784 C50.8280274,48.674391 50.857216,48.9566874 50.9004624,49.2343687 C51.0635682,50.2824557 51.519632,51.2331797 52.1868469,52.0006025 C53.2052276,53.1719971 54.7045136,53.9172459 56.3780274,53.9172459 C59.4384767,53.9172459 61.9280274,51.4355597 61.9280274,48.3847784 C61.9280274,45.3339971 59.4384766,42.8523108 56.3780274,42.8523108 Z M57.2569015,50.9954002 C56.9791305,51.088711 56.6869629,51.1510121 56.3780273,51.1510121 C54.8478027,51.1510121 53.6030273,49.9101689 53.6030273,48.3847783 C53.6030273,47.4199282 54.1026199,46.5713509 54.8558762,46.0762067 C55.2934784,45.7885076 55.8157105,45.6185445 56.3780273,45.6185445 C57.9082519,45.6185445 59.1530273,46.8593876 59.1530273,48.3847783 C59.1530274,49.6022093 58.3550003,50.6266591 57.2569015,50.9954002 Z" id="Shape"></path>
                <path d="M35.3717087,18.5994215 C35.8882385,18.7582413 36.4363846,18.8445173 37.0045167,18.8445173 C37.5726487,18.8445173 38.1207948,18.7582413 38.6373246,18.5994215 C40.9031343,17.9027979 42.5545167,15.7964937 42.5545167,13.3120497 C42.5545167,10.2612685 40.0649659,7.77958222 37.0045167,7.77958222 C33.9440674,7.77958222 31.4545167,10.2612685 31.4545167,13.3120497 C31.4545166,15.7964937 33.105899,17.9027979 35.3717087,18.5994215 Z M37.0045166,10.545816 C38.5347412,10.545816 39.7795166,11.7866591 39.7795166,13.3120497 C39.7795166,14.8374404 38.5347412,16.0782835 37.0045166,16.0782835 C35.474292,16.0782835 34.2295166,14.8374404 34.2295166,13.3120497 C34.2295166,11.7866591 35.474292,10.545816 37.0045166,10.545816 Z" id="Shape"></path>
            </g>
        </g>
    </g>
</svg>