<?xml version="1.0" encoding="UTF-8"?>
<svg width="1587px" height="410px" viewBox="0 0 1587 410" version="1.1" xmlns="http://www.w3.org/2000/svg" xmlns:xlink="http://www.w3.org/1999/xlink">
    <!-- Generator: Sketch 52.6 (67491) - http://www.bohemiancoding.com/sketch -->
    <title>Team Digitale</title>
    <desc>Created with Sketch.</desc>
    <g id="Page-1" stroke="none" stroke-width="1" fill="none" fill-rule="evenodd">
        <g id="Team-Digitale" fill="#0166CC">
            <path d="M403.1,409.1 L6,409.1 C2.7,409.1 0,406.4 0,403.1 L0,6 C0,2.7 2.7,0 6,0 L403.1,0 C406.4,0 409.1,2.7 409.1,6 L409.1,403.1 C409.1,406.4 406.4,409.1 403.1,409.1 Z M99.1,201 C114.122145,201 126.3,188.822145 126.3,173.8 C126.3,158.777855 114.122145,146.6 99.1,146.6 C84.0778548,146.6 71.9,158.777855 71.9,173.8 C71.9,188.822145 84.0778548,201 99.1,201 Z M164.9,316 L164.9,316.1 L240.1,316.1 C320.3,316.1 335.1,276.3 335.1,200.1 C335.1,125.8 318,92.6 240.1,92.6 L164.9,92.6 L164.9,316 Z M240.1,132 C284.1,132 288.4,151.1 288.4,200 C288.4,249.7 284.1,276.6 240.1,276.6 L210.2,276.6 L210.2,132 L240.1,132 Z" id="Combined-Shape"></path>
            <path d="M483,24.4408759 L483,11 L550,11 L550,24.4408759 L524.138,24.4408759 L524.138,104 L509.13,104 L509.13,24.4408759 L483,24.4408759 Z M562,104 L562,11 L621,11 L621,24.1693431 L577.159722,24.1693431 L577.159722,50.5080292 L612.805556,50.5080292 L612.805556,63.5416058 L577.159722,63.5416058 L577.159722,90.6948905 L621,90.6948905 L621,104 L562,104 Z M629,104 L651.935714,11 L681.928571,11 L705,104 L689.8,104 L684.778571,84.0423358 L649.085714,84.0423358 L644.064286,104 L629,104 Z M664.255708,23 L653,69 L682,69 L670.876712,23 L664.255708,23 Z M718,104 L718,11 L744.178932,11 L764.932179,83.6350365 L785.685426,11 L812,11 L812,104 L796.808081,104 L796.808081,27.6992701 L794.773449,27.6992701 L772.799423,100.19854 L757.064935,100.19854 L735.090909,27.6992701 L733.056277,27.6992701 L733.056277,104 L718,104 Z M896.708678,75.0817518 L877.907025,75.0817518 L877.907025,104 L863,104 L863,11 L896.708678,11 C917.569664,11 928,21.408655 928,42.2262774 C928,52.9066227 925.381225,61.0525267 920.143595,66.6642336 C914.905966,72.2759405 907.094405,75.0817518 896.708678,75.0817518 Z M877,62 L895.783784,62 C906.594649,62 912,55.3953041 912,42.1857143 C912,35.8523493 910.693707,31.2381097 908.081081,28.3428571 C905.468455,25.4476046 901.369397,24 895.783784,24 L877,24 L877,62 Z M943,104 L943,11 L1002,11 L1002,24.1693431 L958.159722,24.1693431 L958.159722,50.5080292 L993.805556,50.5080292 L993.805556,63.5416058 L958.159722,63.5416058 L958.159722,90.6948905 L1002,90.6948905 L1002,104 L943,104 Z M1032.86004,70.8729927 L1032.86004,104 L1018,104 L1018,11 L1052.8073,11 C1073.51329,11 1083.86613,20.8655948 1083.86613,40.5970803 C1083.86613,53.8117449 1078.8682,62.7722392 1068.87221,67.4788321 L1084,104 L1067.66734,104 L1054.41379,70.8729927 L1032.86004,70.8729927 Z M1069,40.3012048 C1069,29.4336806 1063.69668,24 1053.08989,24 L1033,24 L1033,57 L1053.35955,57 C1058.75284,57 1062.70785,55.4759189 1065.22472,52.4277108 C1067.74159,49.3795028 1069,45.3373746 1069,40.3012048 Z M1182,104 L1130,104 L1130,11 L1145.03125,11 L1145.03125,90.5591241 L1182,90.5591241 L1182,104 Z M1187,104 L1209.93571,11 L1239.92857,11 L1263,104 L1247.8,104 L1242.77857,84.0423358 L1207.08571,84.0423358 L1202.06429,104 L1187,104 Z M1221.25571,23 L1210,69 L1239,69 L1227.87671,23 L1221.25571,23 Z M483,171.440876 L483,158 L550,158 L550,171.440876 L524.138,171.440876 L524.138,251 L509.13,251 L509.13,171.440876 L483,171.440876 Z M578.860041,217.872993 L578.860041,251 L564,251 L564,158 L598.807302,158 C619.513288,158 629.866126,167.865595 629.866126,187.59708 C629.866126,200.811745 624.868204,209.772239 614.872211,214.478832 L630,251 L613.667343,251 L600.413793,217.872993 L578.860041,217.872993 Z M614,187.301205 C614,176.433681 608.696682,171 598.089888,171 L578,171 L578,204 L598.359551,204 C603.752836,204 607.707853,202.475919 610.224719,199.427711 C612.741586,196.379503 614,192.337375 614,187.301205 Z M638,251 L660.935714,158 L690.928571,158 L714,251 L698.8,251 L693.778571,231.042336 L658.085714,231.042336 L653.064286,251 L638,251 Z M673.255708,171 L662,217 L691,217 L679.876712,171 L673.255708,171 Z M755.078261,169.288136 C743.66661,169.288136 737.96087,173.310694 737.96087,181.355932 C737.96087,185.514145 739.308682,188.474567 742.004348,190.237288 C744.700013,192.000009 750.652853,194.169479 759.863043,196.745763 C769.073234,199.322047 775.565199,202.395462 779.33913,205.966102 C783.113062,209.536741 785,215.163803 785,222.847458 C785,232.610218 782.236984,239.90958 776.71087,244.745763 C771.184755,249.581945 763.659468,252 754.134783,252 C746.497063,252 738.050771,251.096054 728.795652,249.288136 L723.943478,248.338983 L725.426087,236.271186 C737.556582,237.898313 746.811562,238.711864 753.191304,238.711864 C764.333389,238.711864 769.904348,233.740163 769.904348,223.79661 C769.904348,219.909585 768.646389,217.039557 766.130435,215.186441 C763.61448,213.333324 757.953667,211.299446 749.147826,209.084746 C740.341985,206.870045 733.78263,203.819228 729.469565,199.932203 C725.1565,196.045178 723,189.898347 723,181.491525 C723,173.084704 725.718089,166.734485 731.154348,162.440678 C736.590607,158.146871 744.115894,156 753.730435,156 C760.64931,156 768.82604,156.813551 778.26087,158.440678 L782.978261,159.254237 L781.765217,171.457627 C769.185444,170.011292 760.289881,169.288136 755.078261,169.288136 Z M800,251 L800,158 L858,158 L858,171.169343 L815.148235,171.169343 L815.148235,202.531387 L850.767059,202.531387 L850.767059,215.70073 L815.148235,215.70073 L815.148235,251 L800,251 Z M887.574924,231.064327 C890.624888,236.354802 896.455614,239 905.067278,239 C913.678942,239 919.487243,236.399636 922.492355,231.19883 C925.497467,225.998025 927,217.277839 927,205.038012 C927,192.798184 925.452615,183.898663 922.357798,178.339181 C919.262981,172.779699 913.499532,170 905.067278,170 C896.635024,170 890.849149,172.779699 887.70948,178.339181 C884.569811,183.898663 883,192.753351 883,204.903509 C883,217.053667 884.524959,225.773853 887.574924,231.064327 Z M934.651706,241.594059 C929.175915,249.198058 919.481219,253 905.567325,253 C891.653431,253 881.913852,249.175427 876.348294,241.526167 C870.782737,233.876907 868,221.860054 868,205.475248 C868,189.090441 870.805178,176.915174 876.415619,168.949081 C882.02606,160.982987 891.743198,157 905.567325,157 C919.391452,157 929.086148,160.960356 934.651706,168.881188 C940.217263,176.80202 943,188.999918 943,205.475248 C943,221.950577 940.217263,233.990061 934.651706,241.594059 Z M975.860041,217.872993 L975.860041,251 L961,251 L961,158 L995.807302,158 C1016.51329,158 1026.86613,167.865595 1026.86613,187.59708 C1026.86613,200.811745 1021.8682,209.772239 1011.87221,214.478832 L1027,251 L1010.66734,251 L997.413793,217.872993 L975.860041,217.872993 Z M1012,187.301205 C1012,176.433681 1006.69668,171 996.089888,171 L976,171 L976,204 L996.359551,204 C1001.75284,204 1005.70785,202.475919 1008.22472,199.427711 C1010.74159,196.379503 1012,192.337375 1012,187.301205 Z M1044,251 L1044,158 L1070.17893,158 L1090.93218,230.635036 L1111.68543,158 L1138,158 L1138,251 L1122.80808,251 L1122.80808,174.69927 L1120.77345,174.69927 L1098.79942,247.19854 L1083.06494,247.19854 L1061.09091,174.69927 L1059.05628,174.69927 L1059.05628,251 L1044,251 Z M1151,251 L1173.93571,158 L1203.92857,158 L1227,251 L1211.8,251 L1206.77857,231.042336 L1171.08571,231.042336 L1166.06429,251 L1151,251 Z M1185.25571,171 L1174,217 L1203,217 L1191.87671,171 L1185.25571,171 Z M1234,171.169343 L1234,158 L1295,158 L1295,172.527007 L1251.89333,235.251095 L1251.89333,237.830657 L1295,237.830657 L1295,251 L1234,251 L1234,236.608759 L1276.97111,173.884672 L1276.97111,171.169343 L1234,171.169343 Z M1312,251 L1312,158 L1327,158 L1327,251 L1312,251 Z M1363.57492,231.064327 C1366.62489,236.354802 1372.45561,239 1381.06728,239 C1389.67894,239 1395.48724,236.399636 1398.49235,231.19883 C1401.49747,225.998025 1403,217.277839 1403,205.038012 C1403,192.798184 1401.45261,183.898663 1398.3578,178.339181 C1395.26298,172.779699 1389.49953,170 1381.06728,170 C1372.63502,170 1366.84915,172.779699 1363.70948,178.339181 C1360.56981,183.898663 1359,192.753351 1359,204.903509 C1359,217.053667 1360.52496,225.773853 1363.57492,231.064327 Z M1410.65171,241.594059 C1405.17592,249.198058 1395.48122,253 1381.56732,253 C1367.65343,253 1357.91385,249.175427 1352.34829,241.526167 C1346.78274,233.876907 1344,221.860054 1344,205.475248 C1344,189.090441 1346.80518,176.915174 1352.41562,168.949081 C1358.02606,160.982987 1367.7432,157 1381.56732,157 C1395.39145,157 1405.08615,160.960356 1410.65171,168.881188 C1416.21726,176.80202 1419,188.999918 1419,205.475248 C1419,221.950577 1416.21726,233.990061 1410.65171,241.594059 Z M1437,251 L1437,158 L1463.08712,158 L1491.05682,237.694891 L1493.07386,237.694891 L1493.07386,158 L1508,158 L1508,251 L1482.45076,251 L1453.80871,171.169343 L1451.92614,171.169343 L1451.92614,251 L1437,251 Z M1528,251 L1528,158 L1587,158 L1587,171.169343 L1543.15972,171.169343 L1543.15972,197.508029 L1578.80556,197.508029 L1578.80556,210.541606 L1543.15972,210.541606 L1543.15972,237.694891 L1587,237.694891 L1587,251 L1528,251 Z M524.001957,397 L492,397 L492,304 L524.001957,304 C538.22512,304 547.947136,307.620402 553.168297,314.861314 C558.389459,322.102226 561,333.461236 561,348.938686 C561,356.813178 560.482393,363.488294 559.447162,368.964234 C558.411932,374.440173 556.589054,379.395598 553.978474,383.830657 C548.847332,392.610263 538.85526,397 524.001957,397 Z M546,349.518367 C546,338.383618 544.585979,330.346963 541.757895,325.408163 C538.92981,320.469363 533.091272,318 524.242105,318 L507,318 L507,384 L524.242105,384 C533.273729,384 539.294722,380.722482 542.305263,374.167347 C543.76492,370.844881 544.745612,367.297978 545.247368,363.526531 C545.749125,359.755083 546,355.085742 546,349.518367 Z M579,397 L579,304 L594,304 L594,397 L579,397 Z M652.638171,361.930693 L652.638171,348.623762 L679,348.623762 L679,395.876945 C676.566588,396.510611 671.632244,397.18953 664.196819,397.91372 C656.761394,398.63791 651.376425,399 648.04175,399 C633.982037,399 624.293598,395.107535 618.976143,387.322489 C613.658688,379.537443 611,367.339546 611,350.72843 C611,334.117314 613.726282,322.009939 619.178926,314.405941 C624.631571,306.801942 634.072166,303 647.500994,303 C655.432114,303 664.35449,303.905224 674.26839,305.7157 L679,306.666195 L678.459245,318.615276 C667.553955,317.166895 657.775391,316.442716 649.12326,316.442716 C640.47113,316.442716 634.54541,318.886821 631.345924,323.775106 C628.146439,328.663391 626.54672,337.715634 626.54672,350.932107 C626.54672,364.148581 628.056314,373.268716 631.075547,378.292786 C634.09478,383.316857 640.200749,385.828854 649.393638,385.828854 C655.972863,385.828854 660.884676,385.421503 664.129225,384.606789 L664.129225,361.930693 L652.638171,361.930693 Z M698,397 L698,304 L713,304 L713,397 L698,397 Z M725,317.440876 L725,304 L792,304 L792,317.440876 L766.138,317.440876 L766.138,397 L751.13,397 L751.13,317.440876 L725,317.440876 Z M797,397 L819.935714,304 L849.928571,304 L873,397 L857.8,397 L852.778571,377.042336 L817.085714,377.042336 L812.064286,397 L797,397 Z M831.255708,318 L820,364 L849,364 L837.876712,318 L831.255708,318 Z M938,397 L886,397 L886,304 L901.03125,304 L901.03125,383.559124 L938,383.559124 L938,397 Z M949,397 L949,304 L1008,304 L1008,317.169343 L964.159722,317.169343 L964.159722,343.508029 L999.805556,343.508029 L999.805556,356.541606 L964.159722,356.541606 L964.159722,383.694891 L1008,383.694891 L1008,397 L949,397 Z" id="TEAM-PER-LA-TRASFORM"></path>
        </g>
    </g>
</svg>