<?xml version="1.0" encoding="UTF-8"?>
<svg width="966px" height="256px" viewBox="0 0 966 256" version="1.1" xmlns="http://www.w3.org/2000/svg" xmlns:xlink="http://www.w3.org/1999/xlink">
    <!-- Generator: Sketch 52.6 (67491) - http://www.bohemiancoding.com/sketch -->
    <title>TIM</title>
    <desc>Created with Sketch.</desc>
    <g id="Page-1" stroke="none" stroke-width="1" fill="none" fill-rule="evenodd">
        <g id="TIM" fill-rule="nonzero">
            <path d="M941.797357,0 L924.811768,0 C903.014809,0 901.629718,2.40958357 899.953029,6.13348545 L866.200549,87.32915 C854.974022,114.272675 843.382997,143.260696 838.936126,158.302339 C834.853752,143.260696 827.345101,123.180833 811.671703,85.941814 L777.919222,6.13348545 C775.878036,1.31431831 767.348791,0 748.978111,0 L729.878435,0 C711.143256,0 707.352481,1.67940673 707.352481,5.4763263 L707.352481,250.450656 C707.352481,254.904735 711.143256,255.926982 730.53453,255.926982 L741.104962,255.926982 C760.204638,255.926982 765.672102,254.904735 765.672102,250.450656 L765.672102,105.145465 L767.057193,105.145465 C767.057193,105.145465 768.733882,111.93611 771.504064,118.142613 L810.359512,209.268682 C812.036201,213.357673 814.150287,215.037079 832.15647,215.037079 L843.747495,215.037079 C862.118175,215.037079 863.503266,213.649743 865.179955,209.268682 L900.609125,121.574444 C904.035403,113.396463 906.368188,105.145465 906.368188,105.145465 L907.753279,105.145465 L907.753279,250.523674 C907.753279,254.977752 911.471154,256 931.591424,256 L941.797357,256 C960.532536,256 966,254.977752 966,250.523674 L966,5.4763263 C966,1.67940673 960.532536,0 941.797357,0 Z M659.020095,5.4763263 C659.020095,1.67940673 653.62553,0 634.890352,0 L623.955423,0 C604.199652,0 600.773374,1.67940673 600.773374,5.4763263 L600.773374,250.450656 C600.773374,254.904735 604.199652,255.926982 623.955423,255.926982 L634.890352,255.926982 C653.62553,255.926982 659.092995,254.904735 659.092995,250.450656 L659.020095,5.4763263 Z M555.13827,0 C560.241237,0 561.261831,0.657159156 561.261831,18.7655448 L561.261831,35.4865944 C561.261831,52.8648032 559.87674,54.9092983 555.13827,54.9092983 L497.256047,54.9092983 L497.256047,250.450656 C497.256047,254.904735 491.788582,255.926982 472.397308,255.926982 L462.191375,255.926982 C442.435603,255.926982 439.009325,254.904735 439.009325,250.450656 L439.009325,54.9092983 L381.127101,54.9092983 C376.388632,54.9092983 375.003541,53.5219624 375.003541,35.4865944 L375.003541,18.7655448 C374.930642,0 375.951235,0 381.054202,0 L555.13827,0 Z" id="Shape" fill="#063B88"></path>
            <path d="M122.429185,200.476734 L14.7381974,200.476734 C10.6523605,200.476734 7.00429185,202.151013 4.30472103,204.771624 C1.67811159,207.46503 0,211.104767 0,215.181273 L0,240.368256 C0,244.444762 1.60515021,248.084499 4.30472103,250.70511 C6.93133047,253.398516 10.6523605,255 14.7381974,255 L122.429185,255 L122.429185,200.476734 Z M301.76824,204.844419 C299.141631,202.151013 295.420601,200.476734 291.334764,200.476734 L183.643777,200.476734 L183.643777,255 L291.334764,255 C295.420601,255 299.141631,253.325721 301.76824,250.632315 C304.39485,248.011704 306,244.299172 306,240.295461 L306,215.108478 C306,211.104767 304.39485,207.46503 301.76824,204.844419 Z M301.76824,104.606052 C299.141631,101.912646 295.420601,100.238367 291.334764,100.238367 L183.643777,100.238367 L183.643777,154.761633 L291.334764,154.761633 C295.420601,154.761633 299.141631,153.087354 301.76824,150.393948 C304.39485,147.773337 306,144.060805 306,140.057094 L306,114.797317 C306,110.8664 304.39485,107.226663 301.76824,104.606052 Z M122.429185,100.238367 L14.7381974,100.238367 C10.6523605,100.238367 7.00429185,101.839852 4.30472103,104.533257 C1.67811159,107.153868 0,110.8664 0,114.870111 L0,140.129889 C0,144.1336 1.60515021,147.773337 4.30472103,150.466743 C6.93133047,153.160148 10.6523605,154.834428 14.7381974,154.834428 L122.429185,154.834428 L122.429185,100.238367 Z M291.334764,54.5232658 L14.7381974,54.5232658 C10.6523605,54.5232658 7.00429185,52.8489866 4.30472103,50.2283757 C1.60515021,47.53497 0,43.8952327 0,39.8187268 L0,14.6317442 C0,10.6280331 1.67811159,6.915501 4.30472103,4.29489009 C6.93133047,1.60148444 10.6523605,0 14.7381974,0 L291.334764,0 C295.420601,0 299.141631,1.67427919 301.76824,4.36768484 C304.39485,6.98829575 306,10.7008279 306,14.704539 L306,39.8915216 C306,43.8952327 304.39485,47.53497 301.76824,50.2283757 C299.141631,52.8489866 295.420601,54.5232658 291.334764,54.5232658 Z" id="Shape" fill="#E40D2C"></path>
        </g>
    </g>
</svg>