<?xml version="1.0" encoding="UTF-8"?>
<svg width="90px" height="90px" viewBox="0 0 90 90" version="1.1" xmlns="http://www.w3.org/2000/svg" xmlns:xlink="http://www.w3.org/1999/xlink">
    <!-- Generator: Sketch 52.6 (67491) - http://www.bohemiancoding.com/sketch -->
    <title>Trend Monitoring</title>
    <desc>Created with Sketch.</desc>
    <g id="Trend-Monitoring" stroke="none" stroke-width="1" fill="none" fill-rule="evenodd">
        <g id="noun_user-centered_339000" transform="translate(8.000000, 8.000000)" fill="#000000">
            <g id="Group">
                <path d="M37,18.5 C26.7992068,18.5 18.5,26.7992156 18.5,37 C18.5,47.2007844 26.7992068,55.5 37,55.5 C47.2007755,55.5 55.5,47.2007844 55.5,37 C55.5,26.7992156 47.2007755,18.5 37,18.5 Z M37,53.1875 C31.9845257,53.1875 27.4950369,50.8943102 24.5235895,47.301958 C24.5605912,47.2331593 24.5845239,47.1479436 24.626148,47.0838865 C25.5266367,45.6983528 27.325413,44.8532499 29.0654557,44.0362434 C29.6504041,43.7614012 30.2166201,43.4948863 30.7292985,43.2193516 C31.0210295,43.0626821 31.2691515,42.8823046 31.496124,42.6903667 C32.580223,43.5665742 34.4764723,44.7597112 36.8548821,44.8165965 C36.9147756,44.8176375 36.9739721,44.8182153 37.0332879,44.8182153 C38.9116163,44.8182153 40.7061185,44.0983333 42.3868413,42.6930263 C42.6131213,42.8834646 42.8603258,43.0624481 43.1504293,43.2181958 C43.6642677,43.4948862 44.2304837,43.7618641 44.8154321,44.0368211 C46.5548926,44.8538275 48.3529764,45.6983527 49.2540428,47.0856198 C49.3118544,47.1741919 49.3613429,47.2737425 49.4107124,47.3741045 C46.4390357,50.923333 41.9804221,53.1875 37,53.1875 Z M41.2352182,40.6344396 C39.8465617,41.9078169 38.4086504,42.5656087 36.9277256,42.5045596 C34.9608294,42.4647836 33.3630066,41.2724581 32.6437026,40.6336324 C32.7584039,39.8517751 32.6504068,38.9532537 32.2908166,37.927081 C31.6472449,36.1040236 31.3305491,34.8004635 31.5015581,33.1348874 C31.7584795,30.6050127 34.2182851,28.4675707 36.8729177,28.4675707 L37.0078512,28.4675707 C39.6624882,28.4675707 42.123564,30.6050127 42.3809442,33.1338464 C42.5497566,34.8049758 42.2336387,36.1079536 41.5916902,37.9275441 C41.2296695,38.9534831 41.1204021,39.8521236 41.2352182,40.6344396 Z M50.8394935,45.353212 C49.5494656,43.7183919 47.570656,42.7759307 45.7989353,41.9434293 C45.2541115,41.6876679 44.7261675,41.4403487 44.2463227,41.1812307 C43.6478509,40.8606049 43.1611827,40.4286299 43.772031,38.6971439 C44.3846127,36.9616132 44.9147532,35.2125549 44.6816543,32.9006326 C44.3027493,29.1812068 40.8600139,26.1550706 37.0078512,26.1550706 L36.8729177,26.1550706 C33.0202919,26.1550706 29.5785974,29.1812068 29.2009671,32.9000549 C28.9644013,35.2057315 29.4962752,36.9576832 30.1093201,38.6942549 C30.7179675,40.4326745 30.2550071,40.8492736 29.6339831,41.1823862 C29.1551793,41.4397707 28.6273544,41.6870899 28.0825261,41.9434292 C26.341213,42.7608987 24.3970983,43.6826604 23.1063735,45.264181 C21.6596759,42.8414919 20.8125,40.0211654 20.8125,37 C20.8125,28.074097 28.0740882,20.8125 37,20.8125 C45.9258941,20.8125 53.1875,28.074097 53.1875,37 C53.1875,40.0583964 52.3193774,42.9108641 50.8394935,45.353212 Z" id="Shape" fill-rule="nonzero"></path>
                <path d="M38.0907946,35.3141873 L37.3088227,35.3141873 L37.3088227,33.0349884 C37.3088227,32.3965068 36.7910543,31.8787384 36.1525727,31.8787384 C35.5139764,31.8787384 34.9963227,32.3965068 34.9963227,33.0349884 L34.9963227,36.4704373 C34.9963227,37.1089189 35.5139764,37.6266873 36.1525727,37.6266873 L38.0907946,37.6266873 C38.7292762,37.6266873 39.2470446,37.1089189 39.2470446,36.4704373 C39.2470446,35.831841 38.7292762,35.3141873 38.0907946,35.3141873 Z" id="Path"></path>
                <path d="M73.0362524,37 C73.0362524,34.025315 70.7690772,31.596614 67.8767233,31.2816516 C67.0806457,26.9734622 65.3663838,22.8413715 62.8717729,19.2160666 C64.699691,16.9480797 64.5871905,13.6236317 62.4815456,11.5184477 C60.3750891,9.4119912 57.0492472,9.30052732 54.7836951,11.1279822 C51.1585005,8.63337141 47.0262953,6.91934757 42.7183395,6.12326783 C42.4033772,3.23090949 39.9746762,0.963734259 37,0.963734259 C34.0253063,0.963734259 31.5966008,3.23090949 31.2816384,6.12326782 C26.9734534,6.91934757 22.8413627,8.63360289 19.2160579,11.1282115 C16.9485343,9.30099028 13.6240949,9.41441921 11.5184368,11.5184476 C9.41198033,13.624441 9.30005545,16.9508541 11.1279713,19.2164105 C8.63347744,22.8416052 6.9193367,26.9736957 6.12325915,31.2816515 C3.23090059,31.596614 0.963725472,34.025315 0.963725472,37 C0.963725472,39.974685 3.2309007,42.403386 6.12325904,42.7183484 C6.91933658,47.0265378 8.63359411,51.1586285 11.1282027,54.7839334 C9.30028682,57.0519203 9.41278948,60.3763683 11.5184366,62.4815545 C12.6453176,63.6084377 14.1256647,64.1724572 15.6065895,64.1724572 C16.8915295,64.1724572 18.1622516,63.7209382 19.2160576,62.8717906 C22.8408994,65.3662779 26.9731048,67.080187 31.2816382,67.8767321 C31.5966006,70.7689714 34.025306,73.0362612 36.9999998,73.0362612 C39.9746759,73.0362612 42.403377,70.7690949 42.7183394,67.8767321 C47.0265288,67.0806545 51.1586195,65.3663926 54.7839244,62.8717906 C55.8378452,63.7210529 57.1084482,64.1724572 58.393386,64.1724572 C59.8743109,64.1724572 61.3546623,63.6084377 62.4815456,62.4815545 C64.5871905,60.3763683 64.699691,57.0519201 62.8717729,54.7839334 C65.3663837,51.1586285 67.0806457,47.026538 67.8767233,42.7183484 C70.7690773,42.403386 73.0362524,39.974685 73.0362524,37 Z M70.7237524,37 C70.7237524,38.9127852 69.2106821,40.4693278 67.203088,40.4603079 C67.1353478,40.4512924 67.0675722,40.4427354 66.9958889,40.4371823 C65.1959527,40.3016711 63.7862524,38.7913794 63.7862524,37 C63.7862524,36.552186 63.8743615,36.1218297 64.0346214,35.7262743 C64.515613,34.5393829 65.6466601,33.6644501 66.9986677,33.5628177 C67.066999,33.5572646 67.1341835,33.5487078 67.2673791,33.53125 C69.1746111,33.5380734 70.7237524,35.0911448 70.7237524,37 Z M60.8465006,13.1534994 C62.1987199,14.5061973 62.1987199,16.7063094 60.8002495,18.0934618 C60.7448506,18.1353198 60.6901662,18.1776365 60.6365139,18.2233097 C59.2685571,19.3977144 57.2067284,19.3254487 55.9408714,18.0591198 C55.4664694,17.5845987 55.1597022,16.9980316 55.023622,16.3780486 C54.7967598,15.3447085 55.0436203,14.2182905 55.7771447,13.3628973 C55.8223548,13.3098251 55.8646715,13.255134 55.9408715,13.1534995 C56.6172767,12.4770943 57.5053888,12.1394696 58.3933862,12.1394696 C59.282098,12.1394693 60.1702013,12.4770942 60.8465006,13.1534994 Z M37,3.27623426 C38.9127719,3.27623426 40.46875,4.83219907 40.460299,6.79690093 C40.4512789,6.8646566 40.4427221,6.93241215 40.4371734,7.0041 C40.3016622,8.80403414 38.7913662,10.2137343 37,10.2137343 C36.5521728,10.2137343 36.1218166,10.1256274 35.7262654,9.96537188 C34.539374,9.48437141 33.6644412,8.35332882 33.5628044,7.00132558 C33.5572558,6.93241215 33.5486989,6.8646566 33.53125,6.74498426 C33.53125,4.83219907 35.087206,3.27623426 37,3.27623426 Z M13.1534994,13.1534994 C13.8242302,12.4827598 14.703212,12.1451351 15.5878595,12.1451351 C16.487885,12.1451351 17.394037,12.4946689 18.093453,13.1997505 C18.135311,13.2551339 18.1776277,13.309825 18.2228377,13.3628972 C18.2233008,13.3628972 18.2233008,13.363475 18.2233008,13.363475 C19.3965454,14.731434 19.3242798,16.7938361 18.0591109,18.0591197 C17.9008226,18.2171831 17.730043,18.356739 17.5497846,18.4774522 C17.5127829,18.5023111 17.4713881,18.5171137 17.4336983,18.5402391 C16.1828753,19.308798 14.5239924,19.2188409 13.3628861,18.2228464 C13.3098161,18.1776363 13.255125,18.1353196 13.1534993,18.0591196 C11.8012558,16.7063094 11.8012558,14.5061972 13.1534994,13.1534994 Z M3.27622547,37 C3.27622547,35.0923049 4.82432813,33.5391143 6.78162871,33.5391143 C6.78671656,33.5391143 6.79181308,33.5396921 6.79688994,33.5396921 C6.8646566,33.5487076 6.93240348,33.5572646 7.00131471,33.5628177 C7.00247258,33.5628177 7.00351343,33.5628177 7.00409133,33.5628177 C8.80402524,33.6983289 10.2137255,35.2086206 10.2137255,37 C10.2137255,37.447814 10.1256186,37.8781703 9.96536309,38.2737257 C9.48424573,39.4606171 8.35331783,40.3355499 7.00131459,40.4371823 C6.93240337,40.4427354 6.8646566,40.4512922 6.74497547,40.46875 C4.83219029,40.46875 3.27622547,38.9127852 3.27622547,37 Z M13.1534994,60.8465006 C11.8012558,59.4938049 11.8012558,57.2936906 13.1997505,55.9065382 C13.2551251,55.8646802 13.3098162,55.8223635 13.3634662,55.7766947 C13.5310061,55.6331955 13.7092994,55.509483 13.8947624,55.4032193 C13.9508406,55.3710738 14.0110803,55.3509609 14.0685457,55.3221675 C14.2008218,55.2558035 14.3332124,55.1894306 14.4712686,55.1410976 C14.5443436,55.1154271 14.6200784,55.1026006 14.6944258,55.0818965 C14.8208134,55.0469811 14.9468439,55.0103278 15.0756398,54.9897472 C15.1586588,54.9765679 15.2424873,54.9752977 15.3261987,54.9681258 C15.4467973,54.9577164 15.5673936,54.9459221 15.6882215,54.9480041 C15.8091663,54.9502006 15.9288365,54.9676583 16.048855,54.9822315 C16.1433221,54.9936818 16.2384795,54.998763 16.3317888,55.0179585 C16.4569083,55.0436289 16.5778421,55.0866426 16.6997198,55.1260657 C16.7843487,55.1534741 16.8709493,55.1727844 16.9535052,55.2068882 C17.0864759,55.2616961 17.2119395,55.3358142 17.3380735,55.4078505 C17.4034011,55.4451918 17.472663,55.4729442 17.5357939,55.5148022 C17.7209083,55.6375973 17.8968882,55.7787676 18.059111,55.9408801 C18.5335306,56.4154056 18.8402758,57.0019727 18.9763737,57.6219469 C19.2032227,58.655287 18.9563622,59.7817117 18.2228379,60.6371049 C18.1776278,60.6901749 18.135311,60.7442859 18.059111,60.8465005 C16.7052596,62.1991963 14.5050307,62.1981554 13.1534994,60.8465006 Z M37,70.7237613 C35.087206,70.7237613 33.53125,69.1678009 33.5396789,67.2030969 C33.548699,67.1353478 33.5572558,67.06759 33.5628045,66.9958978 C33.6983201,65.1959615 35.2086117,63.7862613 37,63.7862613 C38.7913662,63.7862613 40.3016622,65.1959615 40.4371735,66.9958978 C40.4371735,66.99648 40.4371735,66.9975209 40.4371735,66.9986766 C40.4427222,67.06759 40.4512791,67.1353478 40.46875,67.2550113 C40.46875,69.1678009 38.9127719,70.7237613 37,70.7237613 Z M60.8465006,60.8465006 C59.4943695,62.1981553 57.2930996,62.1991963 55.9065294,60.7996762 C55.8646714,60.744286 55.8223548,60.690175 55.7766771,60.6365227 C54.6034369,59.2685659 54.6757026,57.2061638 55.9408714,55.9408802 C56.1034338,55.7784237 56.2796519,55.6367859 56.4652294,55.5138762 C56.5204961,55.4772229 56.5814261,55.4532902 56.6384305,55.4201037 C56.7727905,55.3419365 56.9071594,55.2637781 57.0493706,55.2052741 C57.1210628,55.1756692 57.1966718,55.1594817 57.2699784,55.1349757 C57.4031917,55.0904536 57.5359109,55.044326 57.6729263,55.0163443 C57.7544456,54.9996894 57.8374647,54.9959932 57.9197868,54.9851251 C58.0521798,54.9677821 58.1845726,54.9495127 58.3182358,54.9473162 C58.4242612,54.9456931 58.529828,54.9569052 58.6356241,54.9648887 C58.734363,54.9722899 58.8333401,54.9746012 58.9315056,54.9904446 C59.0415977,55.0081316 59.1491228,55.0409652 59.2575742,55.0692999 C59.3499528,55.0934619 59.4437252,55.1109197 59.5342602,55.1427212 C59.6544089,55.1851525 59.769097,55.2446976 59.8849497,55.3006611 C59.9588384,55.3363881 60.0358412,55.3633289 60.1076569,55.40449 C60.2838573,55.5058931 60.4525506,55.6248773 60.6125813,55.7598108 C60.6203265,55.7664005 60.629342,55.7705641 60.6370962,55.7771538 C60.689584,55.8223639 60.7442772,55.8641072 60.8527286,55.9476997 C62.1987199,57.300395 62.1969998,59.4961162 60.8465006,60.8465006 Z M61.0965898,53.3083279 C60.8312307,53.1673825 60.556503,53.0509478 60.2766855,52.9542863 C60.2678993,52.9512782 60.2598101,52.9461926 60.2511386,52.9431845 C59.9339796,52.8353065 59.6088373,52.7613075 59.2809337,52.7098517 C59.1801041,52.6941274 59.0791599,52.6922793 58.9777568,52.68187 C58.7483541,52.658052 58.5195335,52.6412868 58.2894426,52.6446389 C58.1697792,52.6463767 58.0518447,52.6579373 57.9325075,52.6669573 C57.7191776,52.6830301 57.5081675,52.7083521 57.2976074,52.7478944 C57.1759767,52.7706715 57.0567632,52.7972639 56.9366322,52.8279053 C56.7283921,52.8808608 56.5253479,52.9475777 56.3233536,53.0238924 C56.2107384,53.0663237 56.0986968,53.1062145 55.9885075,53.1559324 C55.7759891,53.2519058 55.5726008,53.367185 55.3715326,53.4898566 C55.2826208,53.5439676 55.1906921,53.5896453 55.1045591,53.648961 C54.8235948,53.8423986 54.5540631,54.0573429 54.3059323,54.3059413 C54.0581544,54.5536134 53.8435453,54.8224393 53.6505663,55.102601 C53.5895217,55.1912834 53.5425737,55.2858586 53.4870777,55.3772051 C53.3655617,55.577003 53.2511999,55.7787681 53.1560381,55.9896721 C53.1077184,56.0968531 53.0689744,56.2058868 53.0275796,56.3153878 C52.9474497,56.5267507 52.8783068,56.7398514 52.8237328,56.9579185 C52.7977182,57.0623208 52.7742442,57.1659292 52.7541269,57.2716106 C52.7070686,57.5162657 52.678046,57.7619707 52.6625642,58.0103308 C52.6578095,58.0901123 52.649138,58.1686236 52.6476383,58.2486345 C52.6405943,58.57308 52.6574654,58.8969433 52.7045237,59.2193068 C52.7052162,59.2242822 52.7051015,59.2292575 52.705794,59.2343387 C52.8013131,59.8772134 52.9960166,60.5085319 53.3083192,61.0965987 C50.0501205,63.3041053 46.3555536,64.8369535 42.5096366,65.5776409 C42.4193442,65.2811771 42.3055603,64.9950081 42.1709708,64.7209774 L42.1706224,64.7200512 C42.0228536,64.4188503 41.8453697,64.1367215 41.6500796,63.8682395 C41.5877602,63.7825652 41.5150315,63.7068328 41.4481999,63.6246252 C41.3056314,63.4494482 41.1592521,63.2792463 40.9977263,63.1220034 C40.9082323,63.0348206 40.8129558,62.95608 40.7180278,62.8749135 C40.5603129,62.7397419 40.3983239,62.6122096 40.2268517,62.4943898 C40.1199,62.4208539 40.0116736,62.3519404 39.8998745,62.2856823 C39.7213409,62.1798862 39.5369189,62.0868106 39.3471863,62.0004395 C39.2314352,61.9478281 39.1180085,61.8938318 38.9986846,61.8489657 C38.787088,61.7690696 38.5683284,61.7092951 38.3463267,61.6548313 C38.2392603,61.6284727 38.1362387,61.5939013 38.0269713,61.5737794 C37.6923544,61.5120377 37.3504513,61.4737613 37,61.4737613 C36.6492974,61.4737613 36.3072795,61.5121524 35.9724291,61.5738941 C35.8653626,61.5936719 35.7643037,61.6276611 35.6594339,61.6533316 C35.4330392,61.7087129 35.2102306,61.7702251 34.9947039,61.8517444 C34.8833592,61.8940611 34.7773293,61.9443612 34.6691073,61.9933823 C34.4654985,62.0853022 34.2683471,62.1857877 34.0775692,62.3001407 C33.9825265,62.3572598 33.8899097,62.4158787 33.7983427,62.4783171 C33.5957573,62.6157912 33.4052175,62.7664534 33.221713,62.9280983 C33.158582,62.9840618 33.0934838,63.0363203 33.0326641,63.0950626 C32.8048845,63.3138178 32.5945626,63.548884 32.4044728,63.8023341 C32.3960351,63.8135551 32.3860888,63.8232676 32.3777658,63.8345943 C31.991808,64.3568793 31.6843616,64.9411264 31.4903418,65.5776409 C27.6438469,64.8369535 23.94928,63.3041053 20.6916636,61.0965987 C20.8318017,60.8328539 20.9473103,60.5597494 21.0437512,60.2815551 C21.0473239,60.2709164 21.0534548,60.2609745 21.0571511,60.2502212 C21.1645703,59.9339885 21.238221,59.6100105 21.2896766,59.2831303 C21.3060934,59.1783751 21.3080607,59.0733906 21.318814,58.9681679 C21.3418205,58.7431671 21.358471,58.518969 21.3553482,58.2932712 C21.3536236,58.1695498 21.3418204,58.0479103 21.3322226,57.9245418 C21.3161543,57.7159488 21.2915247,57.509676 21.253138,57.3038619 C21.229664,57.1779529 21.2021586,57.0545755 21.1704674,56.9305101 C21.1184338,56.7271307 21.053221,56.5287178 20.9790014,56.3313458 C20.9350616,56.2145581 20.8937726,56.0984762 20.8420919,55.9844672 C20.7480858,55.7766948 20.6348884,55.5778144 20.5152205,55.3807863 C20.4590232,55.2881784 20.4113872,55.1924388 20.3495265,55.1026007 C20.1565477,54.8223244 19.9419517,54.5536131 19.6940504,54.305941 C19.446612,54.0583836 19.1780154,53.8439067 18.8982022,53.6510426 C18.8081305,53.5890629 18.7122762,53.5414267 18.61943,53.4851192 C18.4209024,53.3645206 18.2206414,53.2508646 18.0111266,53.1562807 C17.9032486,53.1077184 17.7935314,53.0685201 17.6832142,53.026896 C17.4724292,52.9468851 17.2597961,52.8779716 17.0423067,52.8233975 C16.9379044,52.7974976 16.8342961,52.7740236 16.7287293,52.7540208 C16.4831435,52.7066141 16.2365168,52.6774767 15.9871112,52.6619862 C15.9087191,52.6572447 15.8314803,52.6488025 15.7528566,52.6472985 C15.4255309,52.640131 15.0988801,52.6567816 14.7737442,52.7046514 C14.771777,52.7048808 14.7695804,52.7048808 14.7676243,52.7052292 C14.1240461,52.8006204 13.4920395,52.9954473 12.9033926,53.3083278 C10.6958815,50.0501291 9.16304006,46.3555666 8.42234607,42.5096451 C8.71279573,42.4210774 8.99272582,42.3088064 9.26166876,42.1778029 C9.26768057,42.1749139 9.27428125,42.1735244 9.28016957,42.1706354 C9.58021482,42.0232108 9.86187825,41.8464237 10.1297802,41.6517115 C10.2175407,41.5879983 10.2950089,41.5136552 10.3788373,41.4453196 C10.5521596,41.3041405 10.7206258,41.1593799 10.8763714,40.9997021 C10.9645929,40.9091671 11.0441428,40.8126204 11.1263526,40.7166514 C11.2605935,40.5599773 11.3873186,40.399144 11.504446,40.2288275 C11.5785619,40.1210642 11.6479384,40.0120307 11.7146531,39.8992965 C11.820103,39.7213495 11.9127176,39.537739 11.9988594,39.3486902 C12.0518148,39.2324891 12.1059368,39.1184802 12.1511381,38.9985786 C12.2305712,38.7876789 12.29035,38.5697264 12.3446926,38.3485365 C12.3710556,38.2406584 12.4060902,38.1368251 12.4263244,38.0267507 C12.4879536,37.6921296 12.5262256,37.3503455 12.5262256,37.0000001 C12.5262256,36.6496547 12.4879536,36.3078706 12.4263244,35.9732495 C12.4060902,35.863175 12.3710556,35.7593417 12.3446926,35.6514638 C12.29035,35.4302738 12.2305712,35.2123213 12.1511381,35.0014216 C12.1059368,34.88152 12.0518147,34.7675111 11.9988594,34.6513101 C11.9127176,34.4622612 11.820103,34.2786507 11.7146531,34.1007037 C11.6479384,33.9879696 11.5785618,33.8789359 11.504446,33.7711727 C11.3873186,33.6008563 11.2605935,33.4400229 11.1263526,33.2833488 C11.0441429,33.1873799 10.9645929,33.0908331 10.8763714,33.0002982 C10.7206258,32.8406204 10.5521597,32.6958598 10.3788373,32.5546807 C10.2950089,32.486345 10.2175407,32.412002 10.1297802,32.3482888 C9.86187825,32.1535765 9.58021482,31.9767895 9.28016957,31.8293648 C9.27428125,31.8264758 9.26768057,31.8250863 9.26166876,31.8221973 C8.99272582,31.6911939 8.71279584,31.5789228 8.42234607,31.4903551 C9.16304006,27.6444336 10.6958816,23.9498712 12.9033926,20.6916725 C13.0613369,20.7756177 13.2279528,20.8342365 13.3913311,20.9024575 C13.4940066,20.9452373 13.59275,20.9978487 13.6972758,21.034502 C13.9761627,21.1324337 14.2609468,21.2063181 14.5490941,21.2603144 C14.5760239,21.2654044 14.6019237,21.275924 14.6288756,21.2805508 C14.9456883,21.3352396 15.2656127,21.3607955 15.5857776,21.3628773 C15.5990737,21.362992 15.6123721,21.3663442 15.625783,21.3663442 C15.6870659,21.3663442 15.7473056,21.3508493 15.8087031,21.3488865 C16.0760273,21.340559 16.3417348,21.3180112 16.6055899,21.273035 C16.7209838,21.2533807 16.8329109,21.2240095 16.94703,21.1974171 C17.1700725,21.1456174 17.3889512,21.0822527 17.605285,21.0038604 C17.7218433,20.9616584 17.8360727,20.9176039 17.9501919,20.8677669 C18.1679151,20.7724948 18.3770814,20.6596459 18.5833542,20.5363877 C18.6789791,20.4793833 18.7765668,20.4292022 18.8692983,20.366186 C19.1595164,20.168814 19.4382887,19.9499397 19.69405,19.6940593 C19.941603,19.446621 20.1560887,19.178139 20.3489484,18.8982111 C20.4117353,18.8070984 20.4599492,18.7099738 20.5169536,18.615972 C20.6355937,18.4204482 20.7479707,18.2231953 20.8414079,18.0169181 C20.8936575,17.9015242 20.9354008,17.7839338 20.9797993,17.6658802 C21.0533352,17.470127 21.118085,17.2732182 21.1697788,17.0715678 C21.2019155,16.9459984 21.2297825,16.8211258 21.2533668,16.6939376 C21.2914095,16.4898613 21.3156906,16.2854366 21.331878,16.0786962 C21.3415905,15.9537067 21.353623,15.8303338 21.3552329,15.7048813 C21.3582499,15.4810316 21.3417051,15.2585691 21.3190427,15.0352972 C21.3082894,14.9286918 21.3063221,14.8223156 21.2895568,14.716288 C21.2382201,14.3896481 21.1644505,14.0657826 21.0571504,13.7497793 C21.0534542,13.7390259 21.0473233,13.7290818 21.0437505,13.7184432 C20.9473095,13.4402509 20.831801,13.1671443 20.6916629,12.9034039 C23.9498572,10.6958906 27.6444241,9.16305139 31.4903411,8.42235741 C31.5789132,8.71280706 31.6911843,8.99273495 31.8221879,9.26167778 C31.8250769,9.26769178 31.8264663,9.27428148 31.8293553,9.28017859 C31.9767756,9.58022604 32.153567,9.86188727 32.3482793,10.1297914 C32.4120013,10.2175498 32.4863355,10.2950179 32.5546712,10.3788463 C32.6958502,10.5521686 32.8406109,10.7206348 33.0002887,10.8763826 C33.0908236,10.9646042 33.1873704,11.0441541 33.2833394,11.1263638 C33.4400134,11.2606025 33.6008468,11.3873277 33.7711632,11.5044572 C33.8789221,11.5785731 33.9879689,11.6479475 34.1006942,11.7146622 C34.2786412,11.820112 34.4622517,11.9127288 34.6513006,11.9988684 C34.7675016,12.051826 34.8815061,12.105937 35.0014122,12.1511471 C35.2123118,12.2305824 35.4302644,12.290359 35.6514543,12.3447038 C35.7593411,12.3710668 35.8631656,12.4061014 35.973249,12.4263356 C36.3078573,12.4879623 36.6496546,12.5262343 37,12.5262343 C37.3506806,12.5262343 37.6926985,12.4878476 38.0275489,12.4261038 C38.1346197,12.4063304 38.2356742,12.3723368 38.340544,12.3466685 C38.5669387,12.2912851 38.7897474,12.2297728 39.005274,12.1482557 C39.1166188,12.1059368 39.2226486,12.0556411 39.3308751,12.0066156 C39.5345015,11.9146935 39.7316309,11.8142146 39.9224132,11.6998616 C40.0174559,11.6427447 40.1100727,11.5841214 40.2016574,11.5216852 C40.4042208,11.3842067 40.5947826,11.2335468 40.7782696,11.0719041 C40.8414006,11.0159405 40.9064943,10.9636777 40.967314,10.9049397 C41.195098,10.6861779 41.4054199,10.4511117 41.5955053,10.1976615 C41.6039475,10.1864471 41.6138894,10.1767347 41.6222168,10.1654035 C42.0081702,9.64312512 42.3156166,9.05887141 42.5096364,8.42235694 C46.3555535,9.16305093 50.0501203,10.6958903 53.308319,12.9034035 C53.1681808,13.1671439 53.0526722,13.4402506 52.956249,13.7184427 C52.9526542,13.7290814 52.9465277,13.7390255 52.9428271,13.7497788 C52.8354123,14.0660115 52.7617572,14.3899939 52.7103059,14.7168653 C52.6938847,14.8216227 52.6919219,14.9266094 52.6811685,15.0318277 C52.6581577,15.2568352 52.6415071,15.481031 52.6446299,15.706731 C52.6463765,15.8304502 52.6581577,15.9520875 52.6677555,16.0754582 C52.6838283,16.2840466 52.7084534,16.490324 52.7468445,16.6961337 C52.770314,16.8220516 52.7978414,16.9454201 52.8295151,17.0694855 C52.8815442,17.2728737 52.9467571,17.4712822 53.0209987,17.6686542 C53.0649385,17.7854374 53.1062055,17.9015238 53.1578905,18.0155328 C53.2518967,18.2233096 53.3650852,18.4221856 53.4847575,18.6192091 C53.5409593,18.7118259 53.5885953,18.8075611 53.6504515,18.8975183 C53.8434303,19.1776799 54.0580307,19.4463912 54.3059322,19.6940589 C54.5607673,19.9490131 54.8386265,20.1675434 55.1279096,20.3644523 C55.2187886,20.4264277 55.3147575,20.4754531 55.4084153,20.5315313 C55.6172287,20.6566376 55.8291737,20.7711052 56.0496668,20.867652 C56.1566273,20.9142515 56.263923,20.9552978 56.373186,20.9953034 C56.604556,21.0802896 56.8390399,21.1485061 57.0782787,21.2030802 C57.1716983,21.2241238 57.263283,21.2485241 57.3576199,21.2649409 C57.6809098,21.32206 58.0068549,21.3555905 58.3351289,21.3579017 C58.3428654,21.3579017 58.3506107,21.3600983 58.3584706,21.3600983 C58.360085,21.3600983 58.3618228,21.3597543 58.3635607,21.3597543 C59.3024316,21.3616024 60.2438519,21.1444615 61.0965898,20.6916721 C63.3040964,23.9498708 64.8369358,27.6444333 65.577632,31.4903547 C65.2871845,31.5789225 65.0072522,31.6911935 64.7383116,31.822197 C64.7322954,31.825086 64.7257145,31.8264755 64.719813,31.8293645 C64.4197677,31.9767891 64.1380976,32.1535762 63.8701979,32.3482884 C63.7824418,32.4120016 63.7049714,32.4863447 63.6211409,32.5546803 C63.4478163,32.6958594 63.2793523,32.84062 63.1236089,33.0002978 C63.0353852,33.0908328 62.955833,33.1873795 62.8736256,33.2833485 C62.739389,33.4400226 62.6126595,33.6008559 62.4955367,33.7711723 C62.4214185,33.8789356 62.3520464,33.9879692 62.2853295,34.1007034 C62.1798774,34.2786503 62.0872607,34.4622609 62.0011189,34.6513097 C61.9481634,34.7675108 61.8940613,34.8815197 61.8488424,35.0014213 C61.7694049,35.2123209 61.7096304,35.4302735 61.6552902,35.6514634 C61.6289227,35.7593414 61.5938926,35.8631748 61.5736561,35.9732492 C61.5120289,36.3078705 61.4737524,36.6496546 61.4737524,37 C61.4737524,37.3506895 61.5121435,37.6927073 61.5738852,38.0275578 C61.5936542,38.1346286 61.6276522,38.2356831 61.6533227,38.3405574 C61.7087039,38.5669521 61.7702162,38.7897608 61.8517355,39.005283 C61.894061,39.1166322 61.9443523,39.2226576 61.9933734,39.3308841 C62.0852933,39.5345017 62.18577,39.7316399 62.3001229,39.9224222 C62.357242,40.0174649 62.4158697,40.1100817 62.4783081,40.2016576 C62.6157822,40.4042299 62.7664443,40.5947829 62.9280892,40.7782786 C62.9840528,40.8414096 63.0363112,40.9065078 63.0950447,40.967323 C63.3138088,41.1951071 63.5488749,41.4054289 63.8023251,41.5955144 C63.8135461,41.6039565 63.8232586,41.6138984 63.8345853,41.6222258 C64.3568792,42.0081836 64.9411174,42.31563 65.5776318,42.5096454 C64.8369358,46.3555668 63.3040964,50.0501292 61.0965898,53.3083279 Z" id="Shape" fill-rule="nonzero"></path>
            </g>
        </g>
    </g>
</svg>