<?xml version="1.0" encoding="UTF-8"?>
<svg width="90px" height="90px" viewBox="0 0 90 90" version="1.1" xmlns="http://www.w3.org/2000/svg" xmlns:xlink="http://www.w3.org/1999/xlink">
    <!-- Generator: Sketch 52.6 (67491) - http://www.bohemiancoding.com/sketch -->
    <title>Unique Value Proposition Definition</title>
    <desc>Created with Sketch.</desc>
    <g id="Unique-Value-Proposition-Definition" stroke="none" stroke-width="1" fill="none" fill-rule="evenodd">
        <g id="noun_Market-landscape-research_229102" transform="translate(14.000000, 10.000000)" fill="#000000">
            <g id="Group">
                <path d="M59.6,61.5 L53.4,57.1 C52.8,56.7 52.1,56.8 51.7,57.4 C51.3,58 51.4,58.7 52,59.1 L55,61.2 L5.1,61.2 L8.1,59.1 C8.7,58.7 8.8,57.9 8.4,57.4 C8,56.8 7.2,56.7 6.7,57.1 L0.5,61.5 C0.5,61.5 0.4,61.6 0.4,61.6 C0.4,61.6 0.4,61.6 0.3,61.7 C0.2,61.8 0.1,61.9 0.1,62 C0.1,62 0.1,62.1 0.1,62.1 C0,62.2 0,62.4 0,62.5 C0,62.7 0,62.8 0.1,62.9 C0.1,62.9 0.1,63 0.1,63 C0.2,63.1 0.2,63.2 0.3,63.3 C0.3,63.3 0.3,63.3 0.4,63.4 C0.4,63.4 0.5,63.5 0.5,63.5 L6.7,67.9 C6.9,68.1 7.2,68.1 7.4,68.1 C7.8,68.1 8.2,67.9 8.4,67.6 C8.8,67 8.7,66.3 8.1,65.9 L5.1,63.8 L55,63.8 L52,65.9 C51.4,66.3 51.3,67.1 51.7,67.6 C51.9,67.9 52.3,68.1 52.7,68.1 C52.9,68.1 53.2,68 53.4,67.9 L59.6,63.5 C59.9,63.3 60.1,62.9 60.1,62.5 C60.1,62.1 59.9,61.8 59.6,61.5 Z" id="Path"></path>
                <path d="M5.1,48.5 C7,49.9 9.4,50.8 12.3,51.4 C13.7,51.7 14.9,51.8 16.1,51.8 C16.1,51.8 16.1,51.8 16.1,51.8 C17.1,51.8 18.1,51.7 19.1,51.5 C23.1,50.6 26,47.6 26.9,43.3 C28.1,38.2 26.3,32.6 22.6,29.7 C22,29.2 21.4,28.8 20.7,28.5 C18.7,27.5 16.3,26.9 13.8,26.9 C8.4,26.9 3.8,29.4 1.7,33.4 C-1.2,38.8 0.2,45 5.1,48.5 Z M3.9,34.4 C5.9,30.6 10.3,29.3 13.8,29.3 C15.9,29.3 17.9,29.8 19.5,30.6 C20.1,30.9 20.6,31.2 21,31.6 C24,34 25.4,38.5 24.5,42.7 C24.1,44.7 22.7,48.1 18.5,49 C16.9,49.4 15,49.3 12.8,48.9 C10.2,48.4 8.2,47.6 6.5,46.5 C2.7,43.7 1.6,38.8 3.9,34.4 Z" id="Shape" fill-rule="nonzero"></path>
                <circle id="Oval" cx="13.7" cy="39.2" r="1.9"></circle>
                <circle id="Oval" cx="12.2" cy="13.7" r="1.9"></circle>
                <circle id="Oval" cx="28.3" cy="14.8" r="1.9"></circle>
                <circle id="Oval" cx="41.9" cy="21.6" r="1.9"></circle>
                <circle id="Oval" cx="46.4" cy="38.8" r="1.9"></circle>
                <circle id="Oval" cx="39.9" cy="44.3" r="1.9"></circle>
                <path d="M12.9,23.2 C18.4,23.8 23.4,24.4 28.4,26.3 C29.1,26.6 29.9,26.9 30.6,27.2 C30,30.6 30,34.1 30,37.5 C30,39 30,40.5 30,42 C29.9,45.9 29.7,52.5 35.5,54.9 C36.6,55.3 37.7,55.5 38.9,55.5 C38.9,55.5 38.9,55.5 38.9,55.5 C42.3,55.5 45.9,53.8 48.4,50.9 C53.5,44.9 69.2,26.8 55.2,13.6 C53.2,11.7 50.8,10.7 48.2,10.5 C44.7,6.7 39.8,4 35.3,2.9 C32.3,2.2 26.3,0.9 20,0.9 C18.7,0.9 17.4,1 16.2,1.1 C11.5,1.5 5.4,3.8 2.5,7.9 C0.8,10.2 0.3,12.8 1,15.6 C2.6,22.1 9.8,22.9 12.9,23.2 Z M47.2,13 C49,15.3 50.3,18 50.6,21 C50.9,23.9 50.4,26 49.3,27.3 C48.4,28.3 46.9,28.8 44.9,28.8 C43.5,28.8 41.9,28.6 40,28.1 C37.8,27.5 35.7,26.6 33.6,25.7 C33.8,25 34,24.2 34.2,23.5 C35.5,19.8 38.7,16.2 42.4,14.4 C44,13.5 45.6,13.1 47.2,13 Z M53.6,15.5 C62,23.4 59.7,34.2 46.6,49.4 C44.7,51.6 41.7,53 39,53 C38.1,53 37.3,52.8 36.5,52.5 C32.6,50.9 32.4,46.6 32.5,42 C32.5,40.5 32.5,38.9 32.5,37.4 C32.5,34.3 32.5,31.2 32.9,28.2 C34.9,29.1 37,29.9 39.2,30.5 C41.3,31 43.1,31.3 44.7,31.3 C47.4,31.3 49.6,30.5 51,28.9 C52.6,27.1 53.3,24.4 52.9,20.7 C52.6,18 51.7,15.6 50.4,13.4 C51.6,13.9 52.7,14.6 53.6,15.5 Z M4.6,9.5 C7.1,6 12.5,4.1 16.5,3.7 C17.6,3.6 18.9,3.5 20.1,3.5 C26.1,3.5 31.9,4.7 34.8,5.4 C38.3,6.3 42.1,8.1 45,10.8 C43.7,11.1 42.4,11.5 41.2,12.2 C36.9,14.4 33.2,18.5 31.8,22.7 C31.6,23.4 31.4,24 31.2,24.7 C30.6,24.4 30,24.2 29.3,24 C24.1,22 18.7,21.3 13.2,20.7 C8.7,20.2 4.4,19.2 3.5,15.2 C3,13.1 3.3,11.2 4.6,9.5 Z" id="Shape" fill-rule="nonzero"></path>
            </g>
        </g>
    </g>
</svg>