<?xml version="1.0" encoding="UTF-8"?>
<svg width="1567px" height="469px" viewBox="0 0 1567 469" version="1.1" xmlns="http://www.w3.org/2000/svg" xmlns:xlink="http://www.w3.org/1999/xlink">
    <!-- Generator: Sketch 52.6 (67491) - http://www.bohemiancoding.com/sketch -->
    <title>WPP</title>
    <desc>Created with Sketch.</desc>
    <g id="Page-1" stroke="none" stroke-width="1" fill="none" fill-rule="evenodd">
        <g id="WPP" fill="#191D63">
            <path d="M1033.49625,222 C1025.21268,222 1019,228.473214 1019,236.5 C1019,244.785714 1025.47154,251 1033.49625,251 C1041.77982,251 1047.9925,244.526786 1047.9925,236.5 C1048.25136,229.25 1041.77982,222 1033.49625,222" id="Path"></path>
            <path d="M1033.5,133 C1025.21429,133 1019,139.473214 1019,147.5 C1019,155.526786 1025.47321,162 1033.5,162 C1041.78571,162 1048,155.526786 1048,147.5 C1048,139.473214 1041.78571,133 1033.5,133" id="Path"></path>
            <path d="M1033.5,177 C1025.21429,177 1019,183.473214 1019,191.5 C1019,199.526786 1025.47321,206 1033.5,206 C1041.78571,206 1048,199.526786 1048,191.5 C1048,183.473214 1041.78571,177 1033.5,177" id="Path"></path>
            <path d="M1072.49625,66 C1064.21268,66 1058,72.4732143 1058,80.5 C1058,88.7857143 1064.47154,95 1072.49625,95 C1080.77982,95 1086.9925,88.5267857 1086.9925,80.5 C1087.25136,72.4732143 1080.77982,66 1072.49625,66" id="Path"></path>
            <path d="M1072,27 C1066.6,27 1063,31.6285714 1063,36 C1063,41.4 1067.62857,45 1072,45 C1077.4,45 1081,40.3714286 1081,36 C1081,31.6285714 1076.62857,27 1072,27" id="Path"></path>
            <path d="M1033.5,296 C1041.78571,296 1048,289.526786 1048,281.5 C1048,273.214286 1041.52679,267 1033.5,267 C1025.21429,267 1019,273.473214 1019,281.5 C1019,289.785714 1025.21429,296 1033.5,296" id="Path"></path>
            <path d="M1033.49625,88 C1025.21268,88 1019,94.4732143 1019,102.5 C1019,110.785714 1025.47154,117 1033.49625,117 C1041.77982,117 1047.9925,110.526786 1047.9925,102.5 C1048.25136,94.4732143 1041.77982,88 1033.49625,88" id="Path"></path>
            <path d="M995.5,245 C987.214286,245 981,251.473214 981,259.5 C981,267.785714 987.473214,274 995.5,274 C1003.78571,274 1010,267.526786 1010,259.5 C1010,251.214286 1003.78571,245 995.5,245" id="Path"></path>
            <path d="M995,224 C1000.4,224 1004,219.371429 1004,215 C1004,209.6 999.371429,206 995,206 C989.6,206 986,210.628571 986,215 C986,219.628571 989.6,224 995,224" id="Path"></path>
            <path d="M918.005118,224 C923.402047,224 927,219.371429 927,215 C927,209.6 922.374061,206 918.005118,206 C912.608188,206 909.010235,210.628571 909.010235,215 C908.753239,219.628571 913.379178,224 918.005118,224" id="Path"></path>
            <path d="M956,336 C961.4,336 965,331.371429 965,327 C965,322.628571 960.371429,318 956,318 C950.6,318 947,322.628571 947,327 C947,331.371429 951.371429,336 956,336" id="Path"></path>
            <path d="M995,117 C989.6,117 986,121.628571 986,126 C986,131.4 990.628571,135 995,135 C1000.4,135 1004,130.371429 1004,126 C1004,120.6 1000.4,117 995,117" id="Path"></path>
            <path d="M918,117 C912.6,117 909,121.628571 909,126 C909,131.4 913.628571,135 918,135 C923.4,135 927,130.371429 927,126 C927,120.6 923.4,117 918,117" id="Path"></path>
            <path d="M1033.5,44 C1025.21429,44 1019,50.4732143 1019,58.5 C1019,66.5267857 1025.47321,73 1033.5,73 C1041.78571,73 1048,66.5267857 1048,58.5 C1048,50.4732143 1041.78571,44 1033.5,44" id="Path"></path>
            <path d="M1034,5 C1028.6,5 1025,9.62857143 1025,14 C1025,19.4 1029.62857,23 1034,23 C1039.4,23 1043,18.3714286 1043,14 C1043,8.6 1038.62857,5 1034,5" id="Path"></path>
            <path d="M995.5,319 C1003.78571,319 1010,312.526786 1010,304.5 C1010,296.214286 1003.52679,290 995.5,290 C987.214286,290 981,296.473214 981,304.5 C981,312.526786 987.214286,319 995.5,319" id="Path"></path>
            <path d="M1072.5,155 C1064.21429,155 1058,161.473214 1058,169.5 C1058,177.526786 1064.47321,184 1072.5,184 C1080.78571,184 1087,177.526786 1087,169.5 C1087,161.473214 1080.78571,155 1072.5,155" id="Path"></path>
            <path d="M1243.49625,111 C1235.21268,111 1229,117.473214 1229,125.5 C1229,133.526786 1235.47154,140 1243.49625,140 C1251.77982,140 1257.9925,133.526786 1257.9925,125.5 C1258.25136,117.473214 1251.77982,111 1243.49625,111" id="Path"></path>
            <path d="M1243.49625,66 C1235.21268,66 1229,72.4732143 1229,80.5 C1229,88.7857143 1235.47154,95 1243.49625,95 C1251.77982,95 1257.9925,88.5267857 1257.9925,80.5 C1258.25136,72.4732143 1251.77982,66 1243.49625,66" id="Path"></path>
            <path d="M1111.5,177 C1103.21429,177 1097,183.473214 1097,191.5 C1097,199.526786 1103.47321,206 1111.5,206 C1119.52679,206 1126,199.526786 1126,191.5 C1126,183.473214 1119.78571,177 1111.5,177" id="Path"></path>
            <path d="M1243.5,22 C1235.21429,22 1229,28.4732143 1229,36.5 C1229,44.5267857 1235.47321,51 1243.5,51 C1251.78571,51 1258,44.5267857 1258,36.5 C1258,28.4732143 1251.78571,22 1243.5,22" id="Path"></path>
            <path d="M1243.49625,245 C1235.21268,245 1229,251.473214 1229,259.5 C1229,267.785714 1235.47154,274 1243.49625,274 C1251.77982,274 1257.9925,267.526786 1257.9925,259.5 C1258.25136,251.214286 1251.77982,245 1243.49625,245" id="Path"></path>
            <path d="M1243.49625,200 C1235.21268,200 1229,206.473214 1229,214.5 C1229,222.785714 1235.47154,229 1243.49625,229 C1251.77982,229 1257.9925,222.526786 1257.9925,214.5 C1258.25136,207.25 1251.77982,200 1243.49625,200" id="Path"></path>
            <path d="M1243.5,155 C1235.21429,155 1229,161.473214 1229,169.5 C1229,177.526786 1235.47321,184 1243.5,184 C1251.78571,184 1258,177.526786 1258,169.5 C1258,161.473214 1251.78571,155 1243.5,155" id="Path"></path>
            <path d="M840.450696,200 C832.193155,200 826,206.473214 826,214.5 C826,222.785714 832.451203,229 840.450696,229 C848.450188,229 854.901391,222.526786 854.901391,214.5 C855.933584,207.25 848.708236,200 840.450696,200" id="Path"></path>
            <path d="M1072.54785,274 C1080.80622,274 1087,267.526786 1087,259.5 C1087,251.214286 1080.54815,245 1072.54785,245 C1064.28948,245 1058.09571,251.473214 1058.09571,259.5 C1057.06341,267.526786 1064.54756,274 1072.54785,274" id="Path"></path>
            <path d="M1111.5,133 C1103.21429,133 1097,139.473214 1097,147.5 C1097,155.526786 1103.47321,162 1111.5,162 C1119.52679,162 1126,155.526786 1126,147.5 C1126,139.473214 1119.78571,133 1111.5,133" id="Path"></path>
            <path d="M995.5,66 C987.214286,66 981,72.4732143 981,80.5 C981,88.7857143 987.473214,95 995.5,95 C1003.78571,95 1010,88.5267857 1010,80.5 C1010,72.4732143 1003.78571,66 995.5,66" id="Path"></path>
            <path d="M1072.49625,200 C1064.21268,200 1058,206.473214 1058,214.5 C1058,222.785714 1064.47154,229 1072.49625,229 C1080.77982,229 1086.9925,222.526786 1086.9925,214.5 C1087.25136,207.25 1080.77982,200 1072.49625,200" id="Path"></path>
            <path d="M1111,246 C1116.4,246 1120,241.371429 1120,237 C1120,231.6 1115.37143,228 1111,228 C1106.62857,228 1102,232.628571 1102,237 C1102,241.371429 1105.6,246 1111,246" id="Path"></path>
            <path d="M1111.49625,88 C1103.21268,88 1097,94.4732143 1097,102.5 C1097,110.785714 1103.47154,117 1111.49625,117 C1119.52096,117 1125.9925,110.526786 1125.9925,102.5 C1126.25136,94.4732143 1119.77982,88 1111.49625,88" id="Path"></path>
            <path d="M879.452147,311 C871.193777,311 865,317.473214 865,325.5 C865,333.785714 871.451851,340 879.452147,340 C887.710516,340 893.904293,333.526786 893.904293,325.5 C894.936589,317.214286 887.452442,311 879.452147,311" id="Path"></path>
            <path d="M879.452147,133 C871.193777,133 865,139.473214 865,147.5 C865,155.526786 871.451851,162 879.452147,162 C887.710516,162 893.904293,155.526786 893.904293,147.5 C894.936589,139.473214 887.452442,133 879.452147,133" id="Path"></path>
            <path d="M995.5,22 C987.214286,22 981,28.4732143 981,36.5 C981,44.5267857 987.473214,51 995.5,51 C1003.78571,51 1010,44.5267857 1010,36.5 C1010,28.4732143 1003.78571,22 995.5,22" id="Path"></path>
            <path d="M879.452147,44 C871.193777,44 865,50.4732143 865,58.5 C865,66.5267857 871.451851,73 879.452147,73 C887.710516,73 893.904293,66.5267857 893.904293,58.5 C894.936589,50.4732143 887.452442,44 879.452147,44" id="Path"></path>
            <path d="M879.5,0 C871.214286,0 865,6.47321429 865,14.5 C865,22.5267857 871.473214,29 879.5,29 C887.785714,29 894,22.5267857 894,14.5 C894,6.47321429 887.526786,0 879.5,0" id="Path"></path>
            <path d="M879.452147,267 C871.193777,267 865,273.473214 865,281.5 C865,289.785714 871.451851,296 879.452147,296 C887.710516,296 893.904293,289.526786 893.904293,281.5 C894.936589,273.473214 887.452442,267 879.452147,267" id="Path"></path>
            <path d="M879.452147,222 C871.193777,222 865,228.473214 865,236.5 C865,244.785714 871.451851,251 879.452147,251 C887.710516,251 893.904293,244.526786 893.904293,236.5 C894.936589,229.25 887.452442,222 879.452147,222" id="Path"></path>
            <path d="M879.452147,177 C871.193777,177 865,183.473214 865,191.5 C865,199.526786 871.451851,206 879.452147,206 C887.710516,206 893.904293,199.526786 893.904293,191.5 C894.936589,183.473214 887.452442,177 879.452147,177" id="Path"></path>
            <path d="M840.5,289 C832.214286,289 826,295.473214 826,303.5 C826,311.785714 832.473214,318 840.5,318 C848.526786,318 855,311.526786 855,303.5 C855,295.473214 848.785714,289 840.5,289" id="Path"></path>
            <path d="M840.450696,333 C832.193155,333 826,339.473214 826,347.5 C826,355.526786 832.451203,362 840.450696,362 C848.450188,362 854.901391,355.526786 854.901391,347.5 C855.933584,340.508929 848.708236,333 840.450696,333" id="Path"></path>
            <path d="M879,469 C884.4,469 888,464.371429 888,460 C888,454.6 883.371429,451 879,451 C873.6,451 870,455.628571 870,460 C870,464.371429 874.371429,469 879,469" id="Path"></path>
            <path d="M840.450696,245 C832.193155,245 826,251.473214 826,259.5 C826,267.785714 832.451203,274 840.450696,274 C848.450188,274 854.901391,267.526786 854.901391,259.5 C855.933584,251.214286 848.708236,245 840.450696,245" id="Path"></path>
            <path d="M1243.5,289 C1235.21429,289 1229,295.473214 1229,303.5 C1229,311.785714 1235.47321,318 1243.5,318 C1251.78571,318 1258,311.526786 1258,303.5 C1258,295.473214 1251.78571,289 1243.5,289" id="Path"></path>
            <path d="M840.450696,378 C832.193155,378 826,384.473214 826,392.5 C826,400.526786 832.451203,407 840.450696,407 C848.450188,407 854.901391,400.526786 854.901391,392.5 C855.933584,384.473214 848.708236,378 840.450696,378" id="Path"></path>
            <path d="M840.5,453 C848.785714,453 855,446.526786 855,438.5 C855,430.473214 848.526786,424 840.5,424 C832.473214,424 826,430.473214 826,438.5 C826,445.75 832.473214,453 840.5,453" id="Path"></path>
            <path d="M879.5,88 C871.214286,88 865,94.4732143 865,102.5 C865,110.785714 871.473214,117 879.5,117 C887.785714,117 894,110.526786 894,102.5 C894,94.4732143 887.526786,88 879.5,88" id="Path"></path>
            <path d="M956.5,44 C948.214286,44 942,50.4732143 942,58.5 C942,66.5267857 948.473214,73 956.5,73 C964.785714,73 971,66.5267857 971,58.5 C971,50.4732143 964.785714,44 956.5,44" id="Path"></path>
            <path d="M956.5,88 C948.214286,88 942,94.4732143 942,102.5 C942,110.785714 948.473214,117 956.5,117 C964.785714,117 971,110.526786 971,102.5 C971,94.4732143 964.785714,88 956.5,88" id="Path"></path>
            <path d="M956.5,0 C948.214286,0 942,6.47321429 942,14.5 C942,22.5267857 948.473214,29 956.5,29 C964.785714,29 971,22.5267857 971,14.5 C971,6.47321429 964.785714,0 956.5,0" id="Path"></path>
            <path d="M917.5,319 C925.785714,319 932,312.526786 932,304.5 C932,296.214286 925.526786,290 917.5,290 C909.214286,290 903,296.473214 903,304.5 C903,312.526786 909.214286,319 917.5,319" id="Path"></path>
            <path d="M879.452147,356 C871.193777,356 865,362.473214 865,370.5 C865,378.526786 871.451851,385 879.452147,385 C887.710516,385 893.904293,378.526786 893.904293,370.5 C894.936589,362.214286 887.452442,356 879.452147,356" id="Path"></path>
            <path d="M956.5,222 C948.214286,222 942,228.473214 942,236.5 C942,244.785714 948.473214,251 956.5,251 C964.785714,251 971,244.526786 971,236.5 C971,229.25 964.785714,222 956.5,222" id="Path"></path>
            <path d="M956.503751,296 C964.787322,296 971,289.526786 971,281.5 C971,273.214286 964.52846,267 956.503751,267 C948.220181,267 942.007503,273.473214 942.007503,281.5 C941.748641,289.785714 948.220181,296 956.503751,296" id="Path"></path>
            <path d="M917.5,66 C909.214286,66 903,72.4732143 903,80.5 C903,88.7857143 909.473214,95 917.5,95 C925.785714,95 932,88.5267857 932,80.5 C932,72.4732143 925.526786,66 917.5,66" id="Path"></path>
            <path d="M917.452147,22 C909.193777,22 903,28.4732143 903,36.5 C903,44.5267857 909.451851,51 917.452147,51 C925.710516,51 931.904293,44.5267857 931.904293,36.5 C932.936589,28.4732143 925.452442,22 917.452147,22" id="Path"></path>
            <path d="M879.452147,401 C871.193777,401 865,407.473214 865,415.5 C865,423.526786 871.451851,430 879.452147,430 C887.710516,430 893.904293,423.526786 893.904293,415.5 C894.936589,407.473214 887.452442,401 879.452147,401" id="Path"></path>
            <path d="M917.452147,245 C909.193777,245 903,251.473214 903,259.5 C903,267.785714 909.451851,274 917.452147,274 C925.710516,274 931.904293,267.526786 931.904293,259.5 C932.936589,251.214286 925.452442,245 917.452147,245" id="Path"></path>
            <path d="M1072.49625,111 C1064.21268,111 1058,117.473214 1058,125.5 C1058,133.526786 1064.47154,140 1072.49625,140 C1080.77982,140 1086.9925,133.526786 1086.9925,125.5 C1087.25136,117.473214 1080.77982,111 1072.49625,111" id="Path"></path>
            <path d="M1436.5,44 C1428.21429,44 1422,50.4732143 1422,58.5 C1422,66.5267857 1428.47321,73 1436.5,73 C1444.78571,73 1451,66.5267857 1451,58.5 C1451,50.4732143 1444.52679,44 1436.5,44" id="Path"></path>
            <path d="M1436.5,88 C1428.21429,88 1422,94.4732143 1422,102.5 C1422,110.785714 1428.47321,117 1436.5,117 C1444.78571,117 1451,110.526786 1451,102.5 C1451,94.4732143 1444.52679,88 1436.5,88" id="Path"></path>
            <path d="M1436.5,267 C1428.21429,267 1422,273.473214 1422,281.5 C1422,289.785714 1428.47321,296 1436.5,296 C1444.78571,296 1451,289.526786 1451,281.5 C1451,273.473214 1444.52679,267 1436.5,267" id="Path"></path>
            <path d="M1436.5,222 C1428.21429,222 1422,228.473214 1422,236.5 C1422,244.785714 1428.47321,251 1436.5,251 C1444.78571,251 1451,244.526786 1451,236.5 C1451,229.25 1444.52679,222 1436.5,222" id="Path"></path>
            <path d="M1475.5,22 C1467.21429,22 1461,28.4732143 1461,36.5 C1461,44.5267857 1467.47321,51 1475.5,51 C1483.52679,51 1490,44.5267857 1490,36.5 C1490,28.4732143 1483.78571,22 1475.5,22" id="Path"></path>
            <path d="M1475.5,111 C1467.21429,111 1461,117.473214 1461,125.5 C1461,133.526786 1467.47321,140 1475.5,140 C1483.52679,140 1490,133.526786 1490,125.5 C1490,117.473214 1483.78571,111 1475.5,111" id="Path"></path>
            <path d="M1475.5,155 C1467.21429,155 1461,161.473214 1461,169.5 C1461,177.526786 1467.47321,184 1475.5,184 C1483.52679,184 1490,177.526786 1490,169.5 C1490,161.214286 1483.78571,155 1475.5,155" id="Path"></path>
            <path d="M1475.5,66 C1467.21429,66 1461,72.4732143 1461,80.5 C1461,88.7857143 1467.47321,95 1475.5,95 C1483.52679,95 1490,88.5267857 1490,80.5 C1490,72.4732143 1483.78571,66 1475.5,66" id="Path"></path>
            <path d="M1397.49625,66 C1389.21268,66 1383,72.4732143 1383,80.5 C1383,88.7857143 1389.47154,95 1397.49625,95 C1405.77982,95 1411.9925,88.5267857 1411.9925,80.5 C1412.25136,72.4732143 1405.77982,66 1397.49625,66" id="Path"></path>
            <path d="M1436,5 C1430.6,5 1427,9.62857143 1427,14 C1427,19.4 1431.62857,23 1436,23 C1441.4,23 1445,18.3714286 1445,14 C1445,8.6 1441.4,5 1436,5" id="Path"></path>
            <path d="M1397.99354,117 C1392.59742,117 1389,121.628571 1389,126 C1389,131.4 1393.62525,135 1397.99354,135 C1403.38967,135 1406.98708,130.371429 1406.98708,126 C1407.24404,120.6 1403.64663,117 1397.99354,117" id="Path"></path>
            <path d="M1398,205 C1392.6,205 1389,209.628571 1389,214 C1389,219.4 1393.62857,223 1398,223 C1403.4,223 1407,218.371429 1407,214 C1407,209.628571 1403.65714,205 1398,205" id="Path"></path>
            <path d="M1436,317 C1430.6,317 1427,321.628571 1427,326 C1427,331.4 1431.62857,335 1436,335 C1441.4,335 1445,330.371429 1445,326 C1445,321.628571 1441.4,317 1436,317" id="Path"></path>
            <path d="M1397.5,22 C1389.21429,22 1383,28.4732143 1383,36.5 C1383,44.5267857 1389.47321,51 1397.5,51 C1405.78571,51 1412,44.5267857 1412,36.5 C1412,28.4732143 1405.78571,22 1397.5,22" id="Path"></path>
            <path d="M1397.49625,245 C1389.21268,245 1383,251.473214 1383,259.5 C1383,267.785714 1389.47154,274 1397.49625,274 C1405.77982,274 1411.9925,267.526786 1411.9925,259.5 C1412.25136,251.214286 1405.77982,245 1397.49625,245" id="Path"></path>
            <path d="M1397.5,319 C1405.78571,319 1412,312.526786 1412,304.5 C1412,296.214286 1405.52679,290 1397.5,290 C1389.21429,290 1383,296.473214 1383,304.5 C1383,312.526786 1389.47321,319 1397.5,319" id="Path"></path>
            <path d="M1359,336 C1364.4,336 1368,331.371429 1368,327 C1368,322.628571 1363.37143,318 1359,318 C1353.6,318 1350,322.628571 1350,327 C1350,331.371429 1354.62857,336 1359,336" id="Path"></path>
            <path d="M1552,72 C1546.6,72 1543,76.6285714 1543,81 C1543,86.4 1547.62857,90 1552,90 C1557.4,90 1561,85.3714286 1561,81 C1561,76.3714286 1556.62857,72 1552,72" id="Path"></path>
            <path d="M1514,291 C1519.4,291 1523,286.371429 1523,282 C1523,276.6 1518.37143,273 1514,273 C1508.6,273 1505,277.628571 1505,282 C1505,287.4 1508.6,291 1514,291" id="Path"></path>
            <path d="M1475.00606,313 C1480.40243,313 1484,308.371429 1484,304 C1484,298.6 1479.37455,295 1475.00606,295 C1469.6097,295 1466.01213,299.628571 1466.01213,304 C1465.75516,309.4 1469.6097,313 1475.00606,313" id="Path"></path>
            <path d="M1552.5493,140 C1560.80684,140 1567,133.526786 1567,125.5 C1567,117.473214 1560.5488,111 1552.5493,111 C1544.29176,111 1538.09861,117.473214 1538.09861,125.5 C1537.06642,133.785714 1544.29176,140 1552.5493,140" id="Path"></path>
            <path d="M1552.5,200 C1544.21429,200 1538,206.473214 1538,214.5 C1538,222.785714 1544.47321,229 1552.5,229 C1560.78571,229 1567,222.526786 1567,214.5 C1567,207.25 1560.78571,200 1552.5,200" id="Path"></path>
            <path d="M1552.5,155 C1544.21429,155 1538,161.473214 1538,169.5 C1538,177.526786 1544.47321,184 1552.5,184 C1560.78571,184 1567,177.526786 1567,169.5 C1567,161.473214 1560.78571,155 1552.5,155" id="Path"></path>
            <path d="M1513.5,222 C1505.21429,222 1499,228.473214 1499,236.5 C1499,244.785714 1505.47321,251 1513.5,251 C1521.78571,251 1528,244.526786 1528,236.5 C1528,229.25 1521.78571,222 1513.5,222" id="Path"></path>
            <path d="M1513.5,177 C1505.21429,177 1499,183.473214 1499,191.5 C1499,199.526786 1505.47321,206 1513.5,206 C1521.78571,206 1528,199.526786 1528,191.5 C1528,183.473214 1521.78571,177 1513.5,177" id="Path"></path>
            <path d="M1475.5,245 C1467.21429,245 1461,251.473214 1461,259.5 C1461,267.785714 1467.47321,274 1475.5,274 C1483.52679,274 1490,267.526786 1490,259.5 C1490,251.214286 1483.78571,245 1475.5,245" id="Path"></path>
            <path d="M1513.5,44 C1505.21429,44 1499,50.4732143 1499,58.5 C1499,66.5267857 1505.47321,73 1513.5,73 C1521.78571,73 1528,66.5267857 1528,58.5 C1528,50.4732143 1521.78571,44 1513.5,44" id="Path"></path>
            <path d="M1513.5,133 C1505.21429,133 1499,139.473214 1499,147.5 C1499,155.526786 1505.47321,162 1513.5,162 C1521.78571,162 1528,155.526786 1528,147.5 C1528,139.473214 1521.78571,133 1513.5,133" id="Path"></path>
            <path d="M1475.5,200 C1467.21429,200 1461,206.473214 1461,214.5 C1461,222.785714 1467.47321,229 1475.5,229 C1483.52679,229 1490,222.526786 1490,214.5 C1490,207.25 1483.78571,200 1475.5,200" id="Path"></path>
            <path d="M1513.5,88 C1505.21429,88 1499,94.4732143 1499,102.5 C1499,110.785714 1505.47321,117 1513.5,117 C1521.78571,117 1528,110.526786 1528,102.5 C1528,94.4732143 1521.78571,88 1513.5,88" id="Path"></path>
            <path d="M1282.5,222 C1274.21429,222 1268,228.473214 1268,236.5 C1268,244.785714 1274.47321,251 1282.5,251 C1290.78571,251 1297,244.526786 1297,236.5 C1297,229.25 1290.52679,222 1282.5,222" id="Path"></path>
            <path d="M1243.49625,333 C1235.21268,333 1229,339.473214 1229,347.5 C1229,355.526786 1235.47154,362 1243.49625,362 C1251.77982,362 1257.9925,355.526786 1257.9925,347.5 C1258.25136,340.508929 1251.77982,333 1243.49625,333" id="Path"></path>
            <path d="M1282.5,267 C1274.21429,267 1268,273.473214 1268,281.5 C1268,289.785714 1274.47321,296 1282.5,296 C1290.78571,296 1297,289.526786 1297,281.5 C1297,273.473214 1290.52679,267 1282.5,267" id="Path"></path>
            <path d="M1358.4507,267 C1350.19316,267 1344,273.473214 1344,281.5 C1344,289.785714 1350.4512,296 1358.4507,296 C1366.45019,296 1372.90139,289.526786 1372.90139,281.5 C1373.93358,273.473214 1366.70824,267 1358.4507,267" id="Path"></path>
            <path d="M1282.5,401 C1274.21429,401 1268,407.473214 1268,415.5 C1268,423.526786 1274.47321,430 1282.5,430 C1290.78571,430 1297,423.526786 1297,415.5 C1297,407.473214 1290.52679,401 1282.5,401" id="Path"></path>
            <path d="M1282.5,311 C1274.21429,311 1268,317.473214 1268,325.5 C1268,333.785714 1274.47321,340 1282.5,340 C1290.78571,340 1297,333.526786 1297,325.5 C1297,317.214286 1290.52679,311 1282.5,311" id="Path"></path>
            <path d="M1282.5,133 C1274.21429,133 1268,139.473214 1268,147.5 C1268,155.526786 1274.47321,162 1282.5,162 C1290.78571,162 1297,155.526786 1297,147.5 C1297,139.473214 1290.52679,133 1282.5,133" id="Path"></path>
            <path d="M1282.5,356 C1274.21429,356 1268,362.473214 1268,370.5 C1268,378.526786 1274.47321,385 1282.5,385 C1290.78571,385 1297,378.526786 1297,370.5 C1297,362.473214 1290.52679,356 1282.5,356" id="Path"></path>
            <path d="M1282.5,44 C1274.21429,44 1268,50.4732143 1268,58.5 C1268,66.5267857 1274.47321,73 1282.5,73 C1290.78571,73 1297,66.5267857 1297,58.5 C1297,50.4732143 1290.52679,44 1282.5,44" id="Path"></path>
            <path d="M1283.07473,469 C1288.42989,469 1292,464.371429 1292,460 C1292,454.6 1287.40986,451 1283.07473,451 C1277.71956,451 1274.14945,455.628571 1274.14945,460 C1273.12942,464.628571 1277.46455,469 1283.07473,469" id="Path"></path>
            <path d="M1243.54785,453 C1251.80622,453 1258,446.526786 1258,438.5 C1258,430.473214 1251.54815,424 1243.54785,424 C1235.28948,424 1229.09571,430.473214 1229.09571,438.5 C1228.06341,445.75 1235.54756,453 1243.54785,453" id="Path"></path>
            <path d="M1243.5,378 C1235.21429,378 1229,384.473214 1229,392.5 C1229,400.526786 1235.47321,407 1243.5,407 C1251.78571,407 1258,400.526786 1258,392.5 C1258,384.473214 1251.78571,378 1243.5,378" id="Path"></path>
            <path d="M1282.5,88 C1274.21429,88 1268,94.4732143 1268,102.5 C1268,110.785714 1274.47321,117 1282.5,117 C1290.78571,117 1297,110.526786 1297,102.5 C1297,94.4732143 1290.52679,88 1282.5,88" id="Path"></path>
            <path d="M1282.5,0 C1274.21429,0 1268,6.47321429 1268,14.5 C1268,22.5267857 1274.47321,29 1282.5,29 C1290.78571,29 1297,22.5267857 1297,14.5 C1297,6.47321429 1290.52679,0 1282.5,0" id="Path"></path>
            <path d="M1320.4507,22 C1312.19316,22 1306,28.4732143 1306,36.5 C1306,44.5267857 1312.4512,51 1320.4507,51 C1328.70824,51 1334.90139,44.5267857 1334.90139,36.5 C1335.93358,28.4732143 1328.70824,22 1320.4507,22" id="Path"></path>
            <path d="M1282.5,177 C1274.21429,177 1268,183.473214 1268,191.5 C1268,199.526786 1274.47321,206 1282.5,206 C1290.78571,206 1297,199.526786 1297,191.5 C1297,183.473214 1290.52679,177 1282.5,177" id="Path"></path>
            <path d="M1358.5,0 C1350.21429,0 1344,6.47321429 1344,14.5 C1344,22.5267857 1350.47321,29 1358.5,29 C1366.52679,29 1373,22.5267857 1373,14.5 C1373,6.47321429 1366.78571,0 1358.5,0" id="Path"></path>
            <path d="M1358.4507,44 C1350.19316,44 1344,50.4732143 1344,58.5 C1344,66.5267857 1350.4512,73 1358.4507,73 C1366.45019,73 1372.90139,66.5267857 1372.90139,58.5 C1373.93358,50.4732143 1366.70824,44 1358.4507,44" id="Path"></path>
            <path d="M1320.5,453 C1328.78571,453 1335,446.526786 1335,438.5 C1335,430.473214 1328.52679,424 1320.5,424 C1312.47321,424 1306,430.473214 1306,438.5 C1306,445.75 1312.21429,453 1320.5,453" id="Path"></path>
            <path d="M1358.4507,222 C1350.19316,222 1344,228.473214 1344,236.5 C1344,244.785714 1350.4512,251 1358.4507,251 C1366.45019,251 1372.90139,244.526786 1372.90139,236.5 C1373.93358,229.25 1366.70824,222 1358.4507,222" id="Path"></path>
            <path d="M1320.4507,378 C1312.19316,378 1306,384.473214 1306,392.5 C1306,400.526786 1312.4512,407 1320.4507,407 C1328.70824,407 1334.90139,400.526786 1334.90139,392.5 C1335.93358,384.473214 1328.70824,378 1320.4507,378" id="Path"></path>
            <path d="M1358.49625,88 C1350.21268,88 1344,94.4732143 1344,102.5 C1344,110.785714 1350.47154,117 1358.49625,117 C1366.52096,117 1372.9925,110.526786 1372.9925,102.5 C1373.25136,94.4732143 1366.77982,88 1358.49625,88" id="Path"></path>
            <path d="M1320.4507,245 C1312.19316,245 1306,251.473214 1306,259.5 C1306,267.785714 1312.4512,274 1320.4507,274 C1328.70824,274 1334.90139,267.526786 1334.90139,259.5 C1335.93358,251.214286 1328.70824,245 1320.4507,245" id="Path"></path>
            <path d="M1320.4507,200 C1312.19316,200 1306,206.473214 1306,214.5 C1306,222.785714 1312.4512,229 1320.4507,229 C1328.70824,229 1334.90139,222.526786 1334.90139,214.5 C1335.93358,207.25 1328.70824,200 1320.4507,200" id="Path"></path>
            <path d="M1320.4507,155 C1312.19316,155 1306,161.473214 1306,169.5 C1306,177.526786 1312.4512,184 1320.4507,184 C1328.70824,184 1334.90139,177.526786 1334.90139,169.5 C1335.93358,161.214286 1328.70824,155 1320.4507,155" id="Path"></path>
            <path d="M1320.4507,111 C1312.19316,111 1306,117.473214 1306,125.5 C1306,133.526786 1312.4512,140 1320.4507,140 C1328.70824,140 1334.90139,133.526786 1334.90139,125.5 C1335.93358,117.473214 1328.70824,111 1320.4507,111" id="Path"></path>
            <path d="M1320.49625,66 C1312.21268,66 1306,72.4732143 1306,80.5 C1306,88.7857143 1312.47154,95 1320.49625,95 C1328.77982,95 1334.9925,88.5267857 1334.9925,80.5 C1335.25136,72.4732143 1328.77982,66 1320.49625,66" id="Path"></path>
            <path d="M1320.5,289 C1312.21429,289 1306,295.473214 1306,303.5 C1306,311.785714 1312.47321,318 1320.5,318 C1328.78571,318 1335,311.526786 1335,303.5 C1335,295.473214 1328.78571,289 1320.5,289" id="Path"></path>
            <path d="M1320.4507,333 C1312.19316,333 1306,339.473214 1306,347.5 C1306,355.526786 1312.4512,362 1320.4507,362 C1328.70824,362 1334.90139,355.526786 1334.90139,347.5 C1335.93358,340.508929 1328.70824,333 1320.4507,333" id="Path"></path>
            <path d="M703,27 C697.6,27 694,31.6285714 694,36 C694,41.4 698.628571,45 703,45 C708.4,45 712,40.3714286 712,36 C712,31.6285714 708.4,27 703,27" id="Path"></path>
            <path d="M279.496249,267 C271.212678,267 265,273.473214 265,281.5 C265,289.785714 271.47154,296 279.496249,296 C287.779819,296 293.992497,289.526786 293.992497,281.5 C294.251359,273.473214 287.779819,267 279.496249,267" id="Path"></path>
            <path d="M279.496249,222 C271.212678,222 265,228.473214 265,236.5 C265,244.785714 271.47154,251 279.496249,251 C287.779819,251 293.992497,244.526786 293.992497,236.5 C294.251359,228.214286 287.779819,222 279.496249,222" id="Path"></path>
            <path d="M278.994882,139 C273.597953,139 270,143.628571 270,148 C270,153.4 274.625939,157 278.994882,157 C284.391812,157 287.989765,152.371429 287.989765,148 C288.246761,142.6 283.620822,139 278.994882,139" id="Path"></path>
            <path d="M279.5,177 C271.214286,177 265,183.473214 265,191.5 C265,199.526786 271.473214,206 279.5,206 C287.785714,206 294,199.526786 294,191.5 C294,183.473214 287.785714,177 279.5,177" id="Path"></path>
            <path d="M318.044085,313 C323.417634,313 327,308.371429 327,304 C327,298.6 322.394101,295 318.044085,295 C312.670536,295 309.088171,299.628571 309.088171,304 C308.320521,309.4 312.670536,313 318.044085,313" id="Path"></path>
            <path d="M279.496249,311 C271.212678,311 265,317.473214 265,325.5 C265,333.785714 271.47154,340 279.496249,340 C287.779819,340 293.992497,333.526786 293.992497,325.5 C294.251359,317.214286 287.779819,311 279.496249,311" id="Path"></path>
            <path d="M279.547853,385 C287.806223,385 294,378.526786 294,370.5 C294,362.473214 287.548149,356 279.547853,356 C271.289484,356 265.095707,362.473214 265.095707,370.5 C264.063411,378.785714 271.547558,385 279.547853,385" id="Path"></path>
            <path d="M240.549304,453 C248.806845,453 255,446.526786 255,438.5 C255,430.473214 248.548797,424 240.549304,424 C232.291764,424 226.098609,430.473214 226.098609,438.5 C225.066416,445.75 232.291764,453 240.549304,453" id="Path"></path>
            <path d="M240.5,289 C232.214286,289 226,295.473214 226,303.5 C226,311.785714 232.473214,318 240.5,318 C248.785714,318 255,311.526786 255,303.5 C255,295.473214 248.785714,289 240.5,289" id="Path"></path>
            <path d="M201.5,356 C193.214286,356 187,362.473214 187,370.5 C187,378.526786 193.473214,385 201.5,385 C209.526786,385 216,378.526786 216,370.5 C216,362.473214 209.785714,356 201.5,356" id="Path"></path>
            <path d="M201.5,401 C193.214286,401 187,407.473214 187,415.5 C187,423.526786 193.473214,430 201.5,430 C209.526786,430 216,423.526786 216,415.5 C216,407.473214 209.785714,401 201.5,401" id="Path"></path>
            <path d="M240.496249,245 C232.212678,245 226,251.473214 226,259.5 C226,267.785714 232.47154,274 240.496249,274 C248.779819,274 254.992497,267.526786 254.992497,259.5 C255.251359,251.214286 248.779819,245 240.496249,245" id="Path"></path>
            <path d="M240.5,378 C232.214286,378 226,384.473214 226,392.5 C226,400.526786 232.473214,407 240.5,407 C248.785714,407 255,400.526786 255,392.5 C255,384.473214 248.785714,378 240.5,378" id="Path"></path>
            <path d="M240.496249,333 C232.212678,333 226,339.473214 226,347.5 C226,355.526786 232.47154,362 240.496249,362 C248.779819,362 254.992497,355.526786 254.992497,347.5 C255.251359,340.508929 248.779819,333 240.496249,333" id="Path"></path>
            <path d="M355.5,252 C363.785714,252 370,245.526786 370,237.5 C370,229.214286 363.526786,223 355.5,223 C347.214286,223 341,229.473214 341,237.5 C341,245.526786 347.214286,252 355.5,252" id="Path"></path>
            <path d="M355.450696,177 C347.193155,177 341,183.473214 341,191.5 C341,199.526786 347.451203,206 355.450696,206 C363.708236,206 369.901391,199.526786 369.901391,191.5 C370.933584,183.473214 363.708236,177 355.450696,177" id="Path"></path>
            <path d="M355.450696,133 C347.193155,133 341,139.473214 341,147.5 C341,155.526786 347.451203,162 355.450696,162 C363.708236,162 369.901391,155.526786 369.901391,147.5 C370.933584,139.473214 363.708236,133 355.450696,133" id="Path"></path>
            <path d="M355.5,88 C347.214286,88 341,94.4732143 341,102.5 C341,110.785714 347.473214,117 355.5,117 C363.785714,117 370,110.526786 370,102.5 C370,94.4732143 363.785714,88 355.5,88" id="Path"></path>
            <path d="M394,313 C399.4,313 403,308.371429 403,304 C403,298.6 398.371429,295 394,295 C388.6,295 385,299.628571 385,304 C385,309.4 389.628571,313 394,313" id="Path"></path>
            <path d="M394.496249,66 C386.212678,66 380,72.4732143 380,80.5 C380,88.7857143 386.47154,95 394.496249,95 C402.779819,95 408.992497,88.5267857 408.992497,80.5 C409.251359,72.4732143 402.779819,66 394.496249,66" id="Path"></path>
            <path d="M317.496249,66 C309.212678,66 303,72.4732143 303,80.5 C303,88.7857143 309.47154,95 317.496249,95 C325.520958,95 331.992497,88.5267857 331.992497,80.5 C332.251359,72.4732143 325.779819,66 317.496249,66" id="Path"></path>
            <path d="M355.450696,44 C347.193155,44 341,50.4732143 341,58.5 C341,66.5267857 347.451203,73 355.450696,73 C363.708236,73 369.901391,66.5267857 369.901391,58.5 C370.933584,50.4732143 363.708236,44 355.450696,44" id="Path"></path>
            <path d="M317.496249,111 C309.212678,111 303,117.473214 303,125.5 C303,133.526786 309.47154,140 317.496249,140 C325.520958,140 331.992497,133.526786 331.992497,125.5 C332.251359,117.473214 325.779819,111 317.496249,111" id="Path"></path>
            <path d="M317.496249,200 C309.212678,200 303,206.473214 303,214.5 C303,222.785714 309.47154,229 317.496249,229 C325.520958,229 331.992497,222.526786 331.992497,214.5 C332.251359,207.25 325.779819,200 317.496249,200" id="Path"></path>
            <path d="M317.5,155 C309.214286,155 303,161.473214 303,169.5 C303,177.526786 309.473214,184 317.5,184 C325.526786,184 332,177.526786 332,169.5 C332,161.473214 325.785714,155 317.5,155" id="Path"></path>
            <path d="M317.496249,245 C309.212678,245 303,251.473214 303,259.5 C303,267.785714 309.47154,274 317.496249,274 C325.520958,274 331.992497,267.526786 331.992497,259.5 C332.251359,251.214286 325.779819,245 317.496249,245" id="Path"></path>
            <path d="M355.92849,5 C350.571396,5 347,9.62857143 347,14 C347,19.4 351.591795,23 355.92849,23 C361.285584,23 364.85698,18.3714286 364.85698,14 C365.877379,8.6 361.285584,5 355.92849,5" id="Path"></path>
            <path d="M318,27 C312.6,27 309,31.6285714 309,36 C309,41.4 313.628571,45 318,45 C323.4,45 327,40.3714286 327,36 C327,31.6285714 322.628571,27 318,27" id="Path"></path>
            <path d="M394,27 C388.6,27 385,31.6285714 385,36 C385,41.4 389.628571,45 394,45 C399.4,45 403,40.3714286 403,36 C403,31.6285714 399.4,27 394,27" id="Path"></path>
            <path d="M86.5,96 C94.7857143,96 101,89.5267857 101,81.5 C101,73.2142857 94.5267857,67 86.5,67 C78.2142857,67 72,73.4732143 72,81.5 C72,88.75 78.2142857,96 86.5,96" id="Path"></path>
            <path d="M124.5,44 C116.214286,44 110,50.4732143 110,58.5 C110,66.5267857 116.473214,73 124.5,73 C132.785714,73 139,66.5267857 139,58.5 C139,50.4732143 132.526786,44 124.5,44" id="Path"></path>
            <path d="M124.5,88 C116.214286,88 110,94.4732143 110,102.5 C110,110.785714 116.473214,117 124.5,117 C132.785714,117 139,110.526786 139,102.5 C139,94.4732143 132.526786,88 124.5,88" id="Path"></path>
            <path d="M124.5,177 C116.214286,177 110,183.473214 110,191.5 C110,199.526786 116.473214,206 124.5,206 C132.785714,206 139,199.526786 139,191.5 C139,183.473214 132.526786,177 124.5,177" id="Path"></path>
            <path d="M124.5,133 C116.214286,133 110,139.473214 110,147.5 C110,155.526786 116.473214,162 124.5,162 C132.785714,162 139,155.526786 139,147.5 C139,139.473214 132.526786,133 124.5,133" id="Path"></path>
            <path d="M86.5,185 C94.7857143,185 101,178.526786 101,170.5 C101,162.214286 94.5267857,156 86.5,156 C78.2142857,156 72,162.473214 72,170.5 C72,177.75 78.2142857,185 86.5,185" id="Path"></path>
            <path d="M394.450696,111 C386.193155,111 380,117.473214 380,125.5 C380,133.526786 386.451203,140 394.450696,140 C402.708236,140 408.901391,133.526786 408.901391,125.5 C409.933584,117.473214 402.708236,111 394.450696,111" id="Path"></path>
            <path d="M86.5,140 C94.7857143,140 101,133.526786 101,125.5 C101,117.473214 94.5267857,111 86.5,111 C78.2142857,111 72,117.473214 72,125.5 C72,133.526786 78.2142857,140 86.5,140" id="Path"></path>
            <path d="M124.5,0 C116.214286,0 110,6.47321429 110,14.5 C110,22.5267857 116.473214,29 124.5,29 C132.785714,29 139,22.5267857 139,14.5 C139,6.47321429 132.526786,0 124.5,0" id="Path"></path>
            <path d="M48.4506957,44 C40.1931553,44 34,50.4732143 34,58.5 C34,66.5267857 40.4512034,73 48.4506957,73 C56.4501879,73 62.9013914,66.5267857 62.9013914,58.5 C63.9335839,50.4732143 56.7082361,44 48.4506957,44" id="Path"></path>
            <path d="M48.5,0 C40.2142857,0 34,6.47321429 34,14.5 C34,22.5267857 40.4732143,29 48.5,29 C56.7857143,29 63,22.5267857 63,14.5 C63,6.47321429 56.7857143,0 48.5,0" id="Path"></path>
            <path d="M8.92849009,27 C3.57139603,27 0,31.6285714 0,36 C0,41.4 4.5917949,45 8.92849009,45 C14.2855841,45 17.8569802,40.3714286 17.8569802,36 C18.877379,31.6285714 14.2855841,27 8.92849009,27" id="Path"></path>
            <path d="M48.5,88 C40.2142857,88 34,94.4732143 34,102.5 C34,110.785714 40.4732143,117 48.5,117 C56.7857143,117 63,110.526786 63,102.5 C63,94.4732143 56.7857143,88 48.5,88" id="Path"></path>
            <path d="M86.5,22 C78.2142857,22 72,28.4732143 72,36.5 C72,44.5267857 78.4732143,51 86.5,51 C94.7857143,51 101,44.5267857 101,36.5 C101,28.4732143 94.7857143,22 86.5,22" id="Path"></path>
            <path d="M125.005118,291 C130.402047,291 134,286.371429 134,282 C134,276.6 129.374061,273 125.005118,273 C119.608188,273 116.010235,277.628571 116.010235,282 C115.753239,287.4 120.379178,291 125.005118,291" id="Path"></path>
            <path d="M163,72 C157.6,72 154,76.6285714 154,81 C154,86.4 158.628571,90 163,90 C168.4,90 172,85.3714286 172,81 C172,76.3714286 168.4,72 163,72" id="Path"></path>
            <path d="M202,469 C207.4,469 211,464.371429 211,460 C211,454.6 206.371429,451 202,451 C196.6,451 193,455.628571 193,460 C193,464.371429 196.6,469 202,469" id="Path"></path>
            <path d="M202,183 C196.6,183 193,187.628571 193,192 C193,197.4 197.628571,201 202,201 C207.4,201 211,196.371429 211,192 C211,187.628571 206.628571,183 202,183" id="Path"></path>
            <path d="M202,139 C196.6,139 193,143.628571 193,148 C193,153.4 197.628571,157 202,157 C207.4,157 211,152.371429 211,148 C211,142.6 206.628571,139 202,139" id="Path"></path>
            <path d="M511,139 C505.6,139 502,143.628571 502,148 C502,153.4 506.628571,157 511,157 C516.4,157 520,152.371429 520,148 C520,142.6 516.4,139 511,139" id="Path"></path>
            <path d="M241,205 C235.6,205 232,209.628571 232,214 C232,219.4 236.628571,223 241,223 C246.4,223 250,218.371429 250,214 C250,209.628571 245.628571,205 241,205" id="Path"></path>
            <path d="M472,205 C466.6,205 463,209.628571 463,214 C463,219.4 467.628571,223 472,223 C477.4,223 481,218.371429 481,214 C481,209.628571 477.657143,205 472,205" id="Path"></path>
            <path d="M163.5,289 C155.214286,289 149,295.473214 149,303.5 C149,311.785714 155.473214,318 163.5,318 C171.785714,318 178,311.526786 178,303.5 C178,295.473214 171.785714,289 163.5,289" id="Path"></path>
            <path d="M163.5,333 C155.214286,333 149,339.473214 149,347.5 C149,355.526786 155.473214,362 163.5,362 C171.785714,362 178,355.526786 178,347.5 C178,340.508929 171.785714,333 163.5,333" id="Path"></path>
            <path d="M124.5,222 C116.214286,222 110,228.473214 110,236.5 C110,244.785714 116.473214,251 124.5,251 C132.785714,251 139,244.526786 139,236.5 C139,228.214286 132.526786,222 124.5,222" id="Path"></path>
            <path d="M201.5,222 C193.214286,222 187,228.473214 187,236.5 C187,244.785714 193.473214,251 201.5,251 C209.526786,251 216,244.526786 216,236.5 C216,228.214286 209.785714,222 201.5,222" id="Path"></path>
            <path d="M201.5,267 C193.214286,267 187,273.473214 187,281.5 C187,289.785714 193.473214,296 201.5,296 C209.526786,296 216,289.526786 216,281.5 C216,273.473214 209.785714,267 201.5,267" id="Path"></path>
            <path d="M201.5,311 C193.214286,311 187,317.473214 187,325.5 C187,333.785714 193.473214,340 201.5,340 C209.526786,340 216,333.526786 216,325.5 C216,317.214286 209.785714,311 201.5,311" id="Path"></path>
            <path d="M163.5,111 C155.214286,111 149,117.473214 149,125.5 C149,133.526786 155.473214,140 163.5,140 C171.785714,140 178,133.526786 178,125.5 C178,117.473214 171.785714,111 163.5,111" id="Path"></path>
            <path d="M163.5,245 C155.214286,245 149,251.473214 149,259.5 C149,267.785714 155.473214,274 163.5,274 C171.785714,274 178,267.526786 178,259.5 C178,251.214286 171.785714,245 163.5,245" id="Path"></path>
            <path d="M163,402 C168.4,402 172,397.371429 172,393 C172,387.6 167.371429,384 163,384 C157.6,384 154,388.628571 154,393 C154,398.4 157.6,402 163,402" id="Path"></path>
            <path d="M163.5,200 C155.214286,200 149,206.473214 149,214.5 C149,222.785714 155.473214,229 163.5,229 C171.785714,229 178,222.526786 178,214.5 C178,207.25 171.785714,200 163.5,200" id="Path"></path>
            <path d="M163.5,155 C155.214286,155 149,161.473214 149,169.5 C149,177.526786 155.473214,184 163.5,184 C171.785714,184 178,177.526786 178,169.5 C178,161.473214 171.785714,155 163.5,155" id="Path"></path>
            <path d="M549,402 C554.4,402 558,397.371429 558,393 C558,387.6 553.371429,384 549,384 C544.628571,384 540,388.628571 540,393 C540,398.4 543.6,402 549,402" id="Path"></path>
            <path d="M626.496249,111 C618.212678,111 612,117.473214 612,125.5 C612,133.526786 618.47154,140 626.496249,140 C634.779819,140 640.992497,133.526786 640.992497,125.5 C641.251359,117.473214 634.779819,111 626.496249,111" id="Path"></path>
            <path d="M626.496249,66 C618.212678,66 612,72.4732143 612,80.5 C612,88.7857143 618.47154,95 626.496249,95 C634.779819,95 640.992497,88.5267857 640.992497,80.5 C641.251359,72.4732143 634.779819,66 626.496249,66" id="Path"></path>
            <path d="M626.549304,185 C634.806845,185 641,178.526786 641,170.5 C641,162.214286 634.548797,156 626.549304,156 C618.291764,156 612.098609,162.473214 612.098609,170.5 C611.066416,177.75 618.291764,185 626.549304,185" id="Path"></path>
            <path d="M665.5,118 C673.785714,118 680,111.526786 680,103.5 C680,95.2142857 673.526786,89 665.5,89 C657.214286,89 651,95.4732143 651,103.5 C651,111.526786 657.214286,118 665.5,118" id="Path"></path>
            <path d="M626.5,22 C618.214286,22 612,28.4732143 612,36.5 C612,44.5267857 618.473214,51 626.5,51 C634.785714,51 641,44.5267857 641,36.5 C641,28.4732143 634.785714,22 626.5,22" id="Path"></path>
            <path d="M665.5,44 C657.214286,44 651,50.4732143 651,58.5 C651,66.5267857 657.473214,73 665.5,73 C673.785714,73 680,66.5267857 680,58.5 C680,50.4732143 673.785714,44 665.5,44" id="Path"></path>
            <path d="M665.5,0 C657.214286,0 651,6.47321429 651,14.5 C651,22.5267857 657.473214,29 665.5,29 C673.785714,29 680,22.5267857 680,14.5 C680,6.47321429 673.785714,0 665.5,0" id="Path"></path>
            <path d="M587.5,177 C579.214286,177 573,183.473214 573,191.5 C573,199.526786 579.473214,206 587.5,206 C595.526786,206 602,199.526786 602,191.5 C602,183.473214 595.785714,177 587.5,177" id="Path"></path>
            <path d="M587.5,88 C579.214286,88 573,94.4732143 573,102.5 C573,110.785714 579.473214,117 587.5,117 C595.526786,117 602,110.526786 602,102.5 C602,94.4732143 595.785714,88 587.5,88" id="Path"></path>
            <path d="M587.5,44 C579.214286,44 573,50.4732143 573,58.5 C573,66.5267857 579.473214,73 587.5,73 C595.526786,73 602,66.5267857 602,58.5 C602,50.4732143 595.785714,44 587.5,44" id="Path"></path>
            <path d="M587.5,0 C579.214286,0 573,6.47321429 573,14.5 C573,22.5267857 579.473214,29 587.5,29 C595.526786,29 602,22.5267857 602,14.5 C602,6.47321429 595.785714,0 587.5,0" id="Path"></path>
            <path d="M802.07151,469 C807.428604,469 811,464.371429 811,460 C811,454.6 806.408205,451 802.07151,451 C796.714416,451 793.14302,455.628571 793.14302,460 C792.122621,464.628571 796.714416,469 802.07151,469" id="Path"></path>
            <path d="M588,291 C593.4,291 597,286.371429 597,282 C597,276.6 592.371429,273 588,273 C582.6,273 579,277.628571 579,282 C579,287.4 582.6,291 588,291" id="Path"></path>
            <path d="M587.5,222 C579.214286,222 573,228.473214 573,236.5 C573,244.785714 579.473214,251 587.5,251 C595.526786,251 602,244.526786 602,236.5 C602,228.214286 595.785714,222 587.5,222" id="Path"></path>
            <path d="M587.5,133 C579.214286,133 573,139.473214 573,147.5 C573,155.526786 579.473214,162 587.5,162 C595.526786,162 602,155.526786 602,147.5 C602,139.473214 595.785714,133 587.5,133" id="Path"></path>
            <path d="M802.5,311 C794.214286,311 788,317.473214 788,325.5 C788,333.785714 794.473214,340 802.5,340 C810.785714,340 817,333.526786 817,325.5 C817,317.214286 810.785714,311 802.5,311" id="Path"></path>
            <path d="M802.5,401 C794.214286,401 788,407.473214 788,415.5 C788,423.526786 794.473214,430 802.5,430 C810.785714,430 817,423.526786 817,415.5 C817,407.473214 810.785714,401 802.5,401" id="Path"></path>
            <path d="M802.5,356 C794.214286,356 788,362.473214 788,370.5 C788,378.526786 794.473214,385 802.5,385 C810.785714,385 817,378.526786 817,370.5 C817,362.473214 810.785714,356 802.5,356" id="Path"></path>
            <path d="M840.450696,22 C832.193155,22 826,28.4732143 826,36.5 C826,44.5267857 832.451203,51 840.450696,51 C848.450188,51 854.901391,44.5267857 854.901391,36.5 C855.933584,28.4732143 848.708236,22 840.450696,22" id="Path"></path>
            <path d="M840.496249,66 C832.212678,66 826,72.4732143 826,80.5 C826,88.7857143 832.47154,95 840.496249,95 C848.520958,95 854.992497,88.5267857 854.992497,80.5 C855.251359,72.4732143 848.779819,66 840.496249,66" id="Path"></path>
            <path d="M840.450696,111 C832.193155,111 826,117.473214 826,125.5 C826,133.526786 832.451203,140 840.450696,140 C848.450188,140 854.901391,133.526786 854.901391,125.5 C855.933584,117.473214 848.708236,111 840.450696,111" id="Path"></path>
            <path d="M802.5,177 C794.214286,177 788,183.473214 788,191.5 C788,199.526786 794.473214,206 802.5,206 C810.785714,206 817,199.526786 817,191.5 C817,183.473214 810.785714,177 802.5,177" id="Path"></path>
            <path d="M802.5,267 C794.214286,267 788,273.473214 788,281.5 C788,289.785714 794.473214,296 802.5,296 C810.785714,296 817,289.526786 817,281.5 C817,273.473214 810.785714,267 802.5,267" id="Path"></path>
            <path d="M802.5,133 C794.214286,133 788,139.473214 788,147.5 C788,155.526786 794.473214,162 802.5,162 C810.785714,162 817,155.526786 817,147.5 C817,139.473214 810.785714,133 802.5,133" id="Path"></path>
            <path d="M802.5,44 C794.214286,44 788,50.4732143 788,58.5 C788,66.5267857 794.473214,73 802.5,73 C810.785714,73 817,66.5267857 817,58.5 C817,50.4732143 810.785714,44 802.5,44" id="Path"></path>
            <path d="M802.5,88 C794.214286,88 788,94.4732143 788,102.5 C788,110.785714 794.473214,117 802.5,117 C810.785714,117 817,110.526786 817,102.5 C817,94.4732143 810.785714,88 802.5,88" id="Path"></path>
            <path d="M802.5,0 C794.214286,0 788,6.47321429 788,14.5 C788,22.5267857 794.473214,29 802.5,29 C810.785714,29 817,22.5267857 817,14.5 C817,6.47321429 810.785714,0 802.5,0" id="Path"></path>
            <path d="M802.5,222 C794.214286,222 788,228.473214 788,236.5 C788,244.785714 794.473214,251 802.5,251 C810.785714,251 817,244.526786 817,236.5 C817,229.25 810.785714,222 802.5,222" id="Path"></path>
            <path d="M394.450696,155 C386.193155,155 380,161.473214 380,169.5 C380,177.526786 386.451203,184 394.450696,184 C402.708236,184 408.901391,177.526786 408.901391,169.5 C409.933584,161.214286 402.708236,155 394.450696,155" id="Path"></path>
            <path d="M471.496249,245 C463.212678,245 457,251.473214 457,259.5 C457,267.785714 463.47154,274 471.496249,274 C479.520958,274 485.992497,267.526786 485.992497,259.5 C486.251359,251.214286 479.779819,245 471.496249,245" id="Path"></path>
            <path d="M433.450696,311 C425.193155,311 419,317.473214 419,325.5 C419,333.785714 425.451203,340 433.450696,340 C441.708236,340 447.901391,333.526786 447.901391,325.5 C448.933584,317.214286 441.708236,311 433.450696,311" id="Path"></path>
            <path d="M511,469 C516.4,469 520,464.371429 520,460 C520,454.6 515.371429,451 511,451 C505.6,451 502,455.628571 502,460 C502,464.371429 505.342857,469 511,469" id="Path"></path>
            <path d="M471.5,289 C463.214286,289 457,295.473214 457,303.5 C457,311.785714 463.473214,318 471.5,318 C479.526786,318 486,311.526786 486,303.5 C486,295.473214 479.785714,289 471.5,289" id="Path"></path>
            <path d="M471.5,453 C479.785714,453 486,446.526786 486,438.5 C486,430.473214 479.526786,424 471.5,424 C463.473214,424 457,430.473214 457,438.5 C457,445.75 463.473214,453 471.5,453" id="Path"></path>
            <path d="M471.496249,333 C463.212678,333 457,339.473214 457,347.5 C457,355.526786 463.47154,362 471.496249,362 C479.520958,362 485.992497,355.526786 485.992497,347.5 C486.251359,340.508929 479.779819,333 471.496249,333" id="Path"></path>
            <path d="M471.5,378 C463.214286,378 457,384.473214 457,392.5 C457,400.526786 463.473214,407 471.5,407 C479.526786,407 486,400.526786 486,392.5 C486,384.473214 479.785714,378 471.5,378" id="Path"></path>
            <path d="M433.5,385 C441.785714,385 448,378.526786 448,370.5 C448,362.473214 441.526786,356 433.5,356 C425.214286,356 419,362.473214 419,370.5 C419,378.526786 425.473214,385 433.5,385" id="Path"></path>
            <path d="M432.993542,139 C427.597417,139 424,143.628571 424,148 C424,153.4 428.62525,157 432.993542,157 C438.389668,157 441.987085,152.371429 441.987085,148 C442.244043,142.6 438.646626,139 432.993542,139" id="Path"></path>
            <path d="M394.450696,245 C386.193155,245 380,251.473214 380,259.5 C380,267.785714 386.451203,274 394.450696,274 C402.708236,274 408.901391,267.526786 408.901391,259.5 C409.933584,251.214286 402.708236,245 394.450696,245" id="Path"></path>
            <path d="M394.450696,200 C386.193155,200 380,206.473214 380,214.5 C380,222.785714 386.451203,229 394.450696,229 C402.708236,229 408.901391,222.526786 408.901391,214.5 C409.933584,207.25 402.708236,200 394.450696,200" id="Path"></path>
            <path d="M433.450696,267 C425.193155,267 419,273.473214 419,281.5 C419,289.785714 425.451203,296 433.450696,296 C441.708236,296 447.901391,289.526786 447.901391,281.5 C448.933584,273.473214 441.708236,267 433.450696,267" id="Path"></path>
            <path d="M433.450696,177 C425.193155,177 419,183.473214 419,191.5 C419,199.526786 425.451203,206 433.450696,206 C441.708236,206 447.901391,199.526786 447.901391,191.5 C448.933584,183.473214 441.708236,177 433.450696,177" id="Path"></path>
            <path d="M433.496249,222 C425.212678,222 419,228.473214 419,236.5 C419,244.785714 425.47154,251 433.496249,251 C441.779819,251 447.992497,244.526786 447.992497,236.5 C448.251359,228.214286 441.779819,222 433.496249,222" id="Path"></path>
            <path d="M549.5,200 C541.214286,200 535,206.473214 535,214.5 C535,222.785714 541.473214,229 549.5,229 C557.526786,229 564,222.526786 564,214.5 C564,207.25 557.785714,200 549.5,200" id="Path"></path>
            <path d="M549.5,155 C541.214286,155 535,161.473214 535,169.5 C535,177.526786 541.473214,184 549.5,184 C557.526786,184 564,177.526786 564,169.5 C564,161.473214 557.785714,155 549.5,155" id="Path"></path>
            <path d="M549.5,333 C541.214286,333 535,339.473214 535,347.5 C535,355.526786 541.473214,362 549.5,362 C557.526786,362 564,355.526786 564,347.5 C564,340.508929 557.785714,333 549.5,333" id="Path"></path>
            <path d="M511,183 C505.6,183 502,187.628571 502,192 C502,197.4 506.628571,201 511,201 C516.4,201 520,196.371429 520,192 C520,187.628571 516.4,183 511,183" id="Path"></path>
            <path d="M549.5,289 C541.214286,289 535,295.473214 535,303.5 C535,311.785714 541.473214,318 549.5,318 C557.526786,318 564,311.526786 564,303.5 C564,295.473214 557.785714,289 549.5,289" id="Path"></path>
            <path d="M549.5,245 C541.214286,245 535,251.473214 535,259.5 C535,267.785714 541.473214,274 549.5,274 C557.526786,274 564,267.526786 564,259.5 C564,251.214286 557.785714,245 549.5,245" id="Path"></path>
            <path d="M549,72 C543.6,72 540,76.6285714 540,81 C540,86.4 544.628571,90 549,90 C553.371429,90 558,85.3714286 558,81 C558,76.3714286 553.371429,72 549,72" id="Path"></path>
            <path d="M549.5,111 C541.214286,111 535,117.473214 535,125.5 C535,133.526786 541.473214,140 549.5,140 C557.526786,140 564,133.526786 564,125.5 C564,117.473214 557.785714,111 549.5,111" id="Path"></path>
            <path d="M510.5,267 C502.214286,267 496,273.473214 496,281.5 C496,289.785714 502.473214,296 510.5,296 C518.526786,296 525,289.526786 525,281.5 C525,273.473214 518.526786,267 510.5,267" id="Path"></path>
            <path d="M510.5,222 C502.214286,222 496,228.473214 496,236.5 C496,244.785714 502.473214,251 510.5,251 C518.526786,251 525,244.526786 525,236.5 C525,228.214286 518.526786,222 510.5,222" id="Path"></path>
            <path d="M510.5,311 C502.214286,311 496,317.473214 496,325.5 C496,333.785714 502.473214,340 510.5,340 C518.526786,340 525,333.526786 525,325.5 C525,317.214286 518.526786,311 510.5,311" id="Path"></path>
            <path d="M840.450696,155 C832.193155,155 826,161.473214 826,169.5 C826,177.526786 832.451203,184 840.450696,184 C848.450188,184 854.901391,177.526786 854.901391,169.5 C855.933584,161.214286 848.708236,155 840.450696,155" id="Path"></path>
            <path d="M510.5,356 C502.214286,356 496,362.473214 496,370.5 C496,378.526786 502.473214,385 510.5,385 C518.526786,385 525,378.526786 525,370.5 C525,362.473214 518.526786,356 510.5,356" id="Path"></path>
            <path d="M510.5,401 C502.214286,401 496,407.473214 496,415.5 C496,423.526786 502.473214,430 510.5,430 C518.526786,430 525,423.526786 525,415.5 C525,407.473214 518.526786,401 510.5,401" id="Path"></path>
        </g>
    </g>
</svg>